<?xml version="1.0" standalone="no"?>
<!DOCTYPE svg PUBLIC "-//W3C//DTD SVG 20010904//EN"
 "http://www.w3.org/TR/2001/REC-SVG-20010904/DTD/svg10.dtd">
<svg version="1.0" xmlns="http://www.w3.org/2000/svg"
 width="4096.000000pt" height="1667.000000pt" viewBox="0 0 4096.000000 1667.000000"
 preserveAspectRatio="xMidYMid meet">

<g transform="translate(0.000000,1667.000000) scale(0.100000,-0.100000)" stroke="none">
<path d="M32785 16654 c-639 -28 -1270 -101 -1971 -229 -722 -132 -1240 -305
-2189 -730 -82 -37 -188 -84 -235 -105 -342 -151 -737 -350 -895 -449 -104
-65 -197 -132 -191 -138 1 -2 56 22 122 53 575 271 1073 453 1659 609 890 237
1512 352 2265 421 233 21 1205 31 1475 15 480 -29 1251 -122 1670 -202 593
-113 1277 -342 2175 -729 724 -311 880 -386 1100 -525 425 -269 844 -671 1220
-1171 222 -294 590 -875 687 -1083 219 -470 344 -942 398 -1496 20 -208 21
-699 1 -925 -34 -379 -68 -676 -97 -850 -205 -1212 -757 -2022 -1694 -2485
-244 -120 -437 -192 -553 -207 -101 -12 -290 -5 -346 14 -51 17 -74 50 -86
122 -13 81 1 168 55 348 119 393 304 854 565 1408 84 180 327 662 683 1360
157 307 209 440 226 578 29 233 -64 441 -231 517 -83 38 -163 48 -318 40 -183
-9 -175 -6 -190 -72 -18 -82 -110 -360 -165 -498 -128 -323 -263 -597 -573
-1160 -63 -115 -160 -293 -215 -395 -55 -102 -103 -188 -106 -192 -4 -4 -73
59 -153 141 -195 198 -304 268 -503 326 -554 160 -1261 -130 -1678 -688 -131
-175 -206 -292 -466 -726 -405 -675 -486 -786 -884 -1203 -157 -165 -175 -181
-251 -219 -59 -29 -100 -42 -145 -46 l-62 -6 -43 45 c-77 81 -118 233 -97 367
28 182 67 270 549 1236 357 716 378 761 393 855 25 163 -46 302 -187 367 -152
69 -572 51 -883 -38 -158 -45 -303 -121 -553 -289 l-223 -150 -78 159 c-87
179 -100 195 -276 336 -105 84 -182 130 -236 141 l-31 6 -38 -134 c-53 -184
-95 -296 -154 -413 -27 -55 -82 -170 -122 -255 -290 -621 -557 -1093 -807
-1426 -157 -210 -342 -381 -602 -557 -96 -65 -142 -81 -223 -75 -47 3 -64 10
-89 34 -37 34 -79 117 -79 155 0 29 136 446 223 684 129 351 177 464 372 865
90 184 182 382 206 440 97 240 51 390 -148 483 -80 37 -238 71 -366 79 l-59 3
-54 -140 c-29 -77 -67 -174 -83 -215 -94 -239 -179 -458 -186 -479 -4 -12 -11
-19 -15 -15 -5 5 -38 103 -73 217 -36 114 -77 227 -91 251 -153 262 -604 465
-946 426 -215 -24 -527 -141 -753 -281 -208 -129 -453 -351 -618 -559 -293
-371 -522 -849 -659 -1375 -72 -278 -81 -372 -60 -628 17 -202 62 -320 159
-417 173 -173 534 -285 850 -266 392 25 709 155 1131 465 l110 81 36 -73 c65
-130 164 -247 264 -314 62 -42 107 -59 198 -78 142 -30 281 1 487 109 154 80
441 246 618 358 60 37 112 67 114 64 3 -3 -89 -166 -208 -367 -21 -36 -39 -70
-39 -76 0 -6 48 -21 108 -34 154 -34 374 -34 482 -1 172 55 295 142 421 299
85 107 157 229 307 518 182 352 225 433 370 695 213 384 514 896 612 1040 149
219 334 360 671 509 158 69 265 95 376 89 89 -4 103 -17 103 -92 -1 -107 -25
-149 -280 -491 -590 -792 -828 -1228 -937 -1722 -34 -153 -38 -359 -9 -468 28
-107 81 -201 156 -275 78 -79 161 -122 280 -146 195 -39 497 20 750 146 183
91 310 191 476 375 96 108 429 482 528 594 27 31 52 57 55 59 4 1 12 -48 19
-110 24 -231 105 -488 204 -648 63 -102 168 -209 240 -244 134 -65 372 -116
542 -116 311 0 652 95 866 240 68 46 265 226 383 348 48 51 89 92 91 92 2 0 6
-42 9 -92 15 -240 119 -450 265 -535 110 -65 296 -89 615 -80 506 13 1026 152
1562 417 655 324 1136 766 1475 1355 82 141 142 269 225 480 446 1132 581
2361 389 3550 -88 541 -220 992 -399 1360 -367 755 -1103 1698 -1630 2090
-493 367 -1359 858 -1914 1086 -89 37 -453 155 -721 234 -595 177 -1161 309
-1595 374 -402 59 -603 72 -1230 75 -286 2 -556 2 -600 0z m3648 -7994 c37 -6
85 -19 106 -29 54 -28 140 -126 181 -206 34 -67 35 -72 34 -185 0 -119 -12
-190 -64 -400 -89 -355 -242 -675 -473 -990 -167 -228 -457 -528 -648 -671
-134 -100 -285 -156 -384 -144 -217 28 -382 284 -362 559 11 140 99 433 195
652 155 351 413 755 602 943 129 129 501 430 560 453 65 26 155 32 253 18z
m-8105 -57 c48 -61 72 -106 72 -135 0 -65 -116 -308 -228 -476 -84 -128 -252
-310 -346 -377 -167 -118 -440 -210 -683 -231 -45 -3 -98 -3 -117 0 -32 6 -36
11 -36 36 0 29 79 178 195 371 197 324 366 515 590 666 143 96 362 182 467
183 53 0 58 -2 86 -37z m327 -674 c-60 -351 -127 -565 -231 -737 -373 -618
-810 -1035 -1235 -1176 -95 -32 -218 -43 -288 -26 -61 14 -136 80 -172 150
-38 74 -38 204 0 427 33 195 53 270 128 488 l48 140 245 -4 c272 -4 341 4 524
60 247 76 502 238 725 459 88 88 219 241 248 291 9 15 19 27 20 25 2 -2 -3
-46 -12 -97z"/>
<path d="M7255 16300 c-524 -80 -1009 -323 -1210 -605 -60 -83 -301 -563 -362
-720 -135 -343 -201 -680 -259 -1325 -20 -221 -24 -869 -6 -1050 6 -63 14
-255 18 -426 l7 -310 -94 -31 c-318 -105 -698 -149 -1214 -140 -743 13 -1110
89 -1585 327 -311 156 -528 348 -629 555 -118 241 -176 599 -151 931 44 586
236 1065 554 1377 135 133 302 229 486 279 74 20 108 23 260 23 150 -1 187 -4
260 -24 181 -48 366 -157 492 -289 83 -87 135 -172 213 -346 93 -211 123 -274
133 -280 14 -8 51 115 68 229 34 215 -22 454 -158 682 -88 147 -175 227 -345
312 -183 92 -365 135 -573 136 -165 0 -244 -14 -437 -76 -488 -158 -819 -462
-1089 -1000 -126 -253 -215 -501 -249 -697 -73 -426 -27 -878 127 -1266 149
-374 382 -653 719 -861 185 -115 431 -225 639 -288 317 -96 620 -140 1080
-157 480 -17 662 -13 990 25 63 7 116 12 117 11 1 -1 -584 -977 -706 -1176
-340 -555 -770 -1204 -1005 -1515 -296 -393 -684 -782 -1015 -1018 -215 -154
-490 -292 -682 -343 -215 -56 -459 38 -681 263 -132 133 -215 254 -271 395
-52 130 -60 179 -54 348 6 182 33 327 104 545 71 220 126 312 353 595 64 80
124 157 134 172 l17 26 -58 -15 c-103 -27 -219 -95 -333 -196 -444 -394 -732
-936 -821 -1542 -57 -392 -39 -754 52 -1030 127 -382 365 -601 766 -702 104
-27 118 -28 358 -28 234 1 258 3 380 28 446 95 842 318 1340 756 272 239 678
662 958 999 404 486 983 1302 1164 1642 102 190 319 667 356 780 9 28 17 -47
67 -565 81 -845 119 -1100 271 -1805 252 -1167 719 -2313 1344 -3295 416 -653
904 -1263 1440 -1800 239 -239 394 -380 665 -605 967 -802 1746 -1265 2654
-1576 283 -97 503 -154 1230 -319 672 -152 1243 -245 1716 -280 1006 -73 1883
-31 2740 131 1299 246 2442 717 3545 1459 309 208 629 449 955 718 141 117
477 443 467 453 -11 11 -489 -239 -637 -333 -1479 -940 -3108 -1495 -4800
-1638 -691 -58 -1200 -40 -2005 70 -99 13 -236 31 -305 40 -1259 159 -2317
513 -3635 1219 -327 176 -467 266 -694 450 -387 313 -844 839 -1246 1432 -326
480 -608 1167 -750 1823 -158 733 -132 1503 75 2273 303 1120 845 2149 1815
3443 363 484 683 789 973 928 79 38 94 42 165 42 74 0 80 -2 103 -28 99 -116
25 -423 -223 -921 -40 -82 -72 -151 -69 -153 12 -12 222 130 348 234 123 102
252 253 336 390 73 121 173 325 202 412 53 158 52 317 -2 425 -48 95 -177 183
-323 221 -86 22 -275 37 -375 30 -355 -26 -649 -144 -939 -374 -139 -111 -262
-239 -451 -466 -517 -623 -727 -911 -1060 -1455 -211 -344 -508 -926 -679
-1330 -18 -41 -43 -100 -56 -130 -25 -58 -86 -212 -155 -395 -58 -153 -209
-609 -264 -795 -173 -595 -202 -787 -272 -1818 -10 -139 -21 -249 -25 -245
-10 10 -563 1680 -618 1863 -114 386 -204 794 -255 1165 -16 110 -65 599 -131
1290 -62 658 -104 1108 -111 1186 l-7 76 79 43 c176 97 425 266 624 426 771
615 1316 1401 1561 2251 86 298 113 486 106 725 -4 145 -9 189 -31 273 -52
193 -146 353 -289 494 -289 283 -537 382 -947 380 -106 0 -208 -7 -285 -19z
m575 -500 c314 -51 513 -157 597 -317 42 -79 62 -168 73 -317 45 -639 -180
-1176 -809 -1931 -156 -187 -529 -562 -678 -683 -136 -110 -280 -206 -388
-260 -85 -43 -191 -79 -201 -70 -9 10 -34 677 -34 940 0 542 111 1365 246
1818 111 371 365 651 711 784 169 66 260 72 483 36z"/>
<path d="M25810 12101 c-41 -4 -80 -10 -87 -14 -6 -4 -26 -69 -43 -145 -65
-284 -93 -355 -310 -777 -449 -875 -652 -1288 -1429 -2912 -61 -128 -160 -335
-220 -460 -280 -584 -418 -884 -528 -1148 -229 -550 -494 -1330 -524 -1544
-23 -167 5 -342 80 -496 114 -234 300 -361 565 -387 117 -11 320 -5 440 13
249 37 495 131 691 263 120 80 436 332 576 459 287 259 510 584 569 827 32
137 24 186 -31 178 -16 -2 -44 -41 -108 -146 -120 -198 -245 -363 -389 -513
-207 -215 -416 -370 -668 -494 -171 -85 -222 -93 -308 -51 -94 46 -187 175
-215 296 -26 110 -4 367 48 585 47 193 125 393 247 638 25 49 183 389 351 756
167 366 342 747 388 846 105 228 294 639 636 1388 61 133 148 323 194 422 45
99 95 207 110 240 33 74 161 355 260 570 240 523 436 965 462 1040 17 48 27
100 30 165 4 82 2 103 -17 154 -46 121 -167 209 -329 240 -85 16 -291 19 -441
7z"/>
<path d="M19884 9585 c-4 -10 15 -40 52 -81 118 -133 172 -217 210 -330 45
-136 42 -282 -11 -434 -36 -103 -211 -591 -267 -745 -255 -701 -468 -1065
-838 -1435 -246 -247 -464 -405 -754 -546 -261 -128 -449 -161 -611 -109 -155
50 -255 210 -271 432 -12 180 21 316 137 548 98 198 84 186 199 173 52 -5 176
-8 275 -5 206 5 352 32 510 94 224 88 447 253 604 448 147 183 231 444 231
717 0 207 -37 329 -131 433 -143 156 -335 229 -604 229 -160 0 -243 -12 -402
-60 -468 -141 -802 -397 -1160 -889 -356 -489 -549 -863 -646 -1252 -54 -214
-62 -282 -62 -548 0 -270 5 -305 66 -430 146 -305 425 -427 942 -412 137 4
218 11 284 25 702 152 1332 619 1943 1437 181 243 317 448 527 794 68 112 145
231 171 265 220 285 564 521 949 649 158 53 215 59 256 26 33 -25 52 -84 39
-120 -12 -29 -99 -146 -262 -349 -64 -80 -189 -242 -277 -360 -88 -118 -229
-305 -313 -415 -408 -534 -591 -857 -655 -1160 -19 -93 -19 -274 0 -349 57
-217 226 -364 489 -424 91 -21 403 -23 491 -3 91 20 270 79 349 115 155 71
471 282 671 447 228 189 482 469 640 704 160 240 215 352 215 441 0 72 -76 99
-113 39 -73 -117 -207 -320 -255 -384 -229 -308 -550 -614 -759 -723 -291
-152 -535 -150 -639 4 -41 61 -49 117 -29 207 34 147 141 321 661 1076 486
705 611 918 679 1150 64 221 32 414 -82 491 -75 50 -422 58 -628 14 -185 -40
-575 -178 -858 -304 -81 -36 -154 -66 -162 -66 -17 0 -12 130 12 285 34 218
27 314 -32 443 -32 69 -133 170 -205 205 -100 48 -157 57 -372 57 -168 0 -200
-2 -204 -15z m-951 -945 c21 -6 52 -24 70 -40 30 -27 32 -32 32 -97 -1 -55
-10 -96 -49 -208 -174 -505 -368 -740 -732 -886 -96 -39 -96 -39 -237 -39
-166 0 -277 9 -277 22 0 15 201 411 276 545 184 327 396 547 649 674 96 49
102 50 165 45 36 -3 82 -10 103 -16z"/>
<path d="M15747 9040 c-27 -5 -52 -12 -55 -15 -13 -13 -3 -126 22 -249 39
-188 32 -307 -28 -473 -38 -103 -385 -788 -574 -1133 -413 -752 -732 -1144
-1125 -1379 -162 -98 -338 -161 -446 -161 -58 0 -74 4 -121 33 -60 36 -113
107 -148 197 -37 96 -45 145 -40 263 4 91 11 129 37 205 66 198 222 478 658
1187 364 593 460 766 514 927 27 80 30 102 27 177 -5 135 -57 215 -180 277
-145 74 -282 99 -526 97 -101 -1 -186 -4 -189 -7 -3 -2 -16 -62 -29 -133 -77
-403 -72 -391 -239 -658 -399 -640 -747 -1138 -1024 -1470 -167 -199 -408
-419 -605 -549 -182 -122 -429 -236 -596 -276 -324 -77 -584 62 -623 334 -14
95 8 234 59 385 42 124 169 391 187 391 27 0 436 40 511 50 673 88 1058 408
1212 1008 27 105 34 152 34 225 0 174 -53 314 -164 434 -107 115 -224 180
-404 225 -120 30 -397 32 -517 4 -286 -67 -544 -220 -873 -519 -516 -469 -875
-1097 -1062 -1861 -56 -229 -63 -283 -57 -410 8 -161 52 -313 128 -444 52 -87
190 -220 275 -265 115 -60 167 -68 449 -74 299 -6 462 9 678 64 237 59 380
124 617 278 259 169 478 353 751 633 99 101 182 182 184 180 2 -2 9 -64 15
-138 27 -333 98 -512 269 -680 100 -98 189 -152 334 -205 169 -61 298 -79 552
-80 229 0 307 9 490 56 394 101 827 379 1245 798 467 469 790 1032 1056 1841
79 239 98 341 90 470 -12 202 -67 300 -206 370 -115 58 -181 72 -355 76 -88 1
-182 -1 -208 -6z m-3710 -389 c99 -46 105 -164 18 -387 -55 -143 -99 -228
-173 -339 -164 -249 -394 -431 -688 -549 -89 -35 -95 -36 -221 -36 -166 0
-196 5 -188 34 4 11 51 111 105 221 139 281 277 484 463 682 220 235 375 354
495 382 65 16 144 12 189 -8z"/>
</g>
</svg>
