<svg width="1920" height="1079" viewBox="0 0 1920 1079" fill="none" xmlns="http://www.w3.org/2000/svg">
<mask id="mask0_683_3006" style="mask-type:luminance" maskUnits="userSpaceOnUse" x="0" y="0" width="1920" height="1078">
<path d="M1920 0H0V1078H1920V0Z" fill="white"/>
</mask>
<g mask="url(#mask0_683_3006)">
<path d="M1159.06 523.888L1159.66 553.064L1185.24 539L1160.26 554.112L1185.24 569.224L1159.66 555.16L1159.06 584.336L1158.45 555.16L1132.87 569.224L1157.85 554.112L1132.87 539L1158.45 553.064L1159.06 523.888Z" fill="white"/>
<path d="M1206.93 261.944L1208.49 325.161L1274.57 294.687L1210.05 327.43L1274.57 360.173L1208.49 329.698L1206.93 392.916L1205.37 329.698L1139.29 360.173L1203.8 327.43L1139.29 294.687L1205.37 325.161L1206.93 261.944Z" fill="white"/>
<path d="M1035.59 685.084L1037.15 748.303L1103.23 717.827L1038.71 750.57L1103.23 783.313L1037.15 752.837L1035.59 816.056L1034.03 752.837L967.947 783.313L1032.47 750.57L967.947 717.827L1034.03 748.303L1035.59 685.084Z" fill="white"/>
<path d="M123.465 0L130.079 114.032L210.767 38.3608L139.434 123.955L246.929 130.972L139.434 137.989L210.767 223.583L130.079 147.912L123.465 261.944L116.85 147.912L36.1619 223.583L107.495 137.989L0 130.972L107.495 123.955L36.1619 38.3608L116.85 114.032L123.465 0Z" fill="white"/>
<path d="M1796.54 816.056L1803.15 930.087L1883.84 854.416L1812.51 940.011L1920 947.028L1812.51 954.045L1883.84 1039.64L1803.15 963.969L1796.54 1078L1789.92 963.969L1709.23 1039.64L1780.57 954.045L1673.07 947.028L1780.57 940.011L1709.23 854.416L1789.92 930.087L1796.54 816.056Z" fill="white"/>
<g filter="url(#filter0_i_683_3006)">
<path d="M1388.42 256.96C1366.17 257.96 1344.19 260.568 1319.78 265.139C1294.64 269.854 1276.6 276.032 1243.55 291.211C1240.69 292.532 1237 294.211 1235.37 294.961C1223.46 300.354 1209.7 307.461 1204.2 310.997C1200.57 313.318 1197.34 315.711 1197.55 315.925C1197.58 315.997 1199.5 315.14 1201.79 314.032C1221.82 304.354 1239.16 297.854 1259.57 292.283C1290.56 283.818 1312.22 279.711 1338.45 277.246C1346.56 276.496 1380.41 276.139 1389.81 276.71C1406.53 277.746 1433.38 281.068 1447.97 283.925C1468.62 287.961 1492.44 296.14 1523.71 309.961C1548.93 321.069 1554.36 323.747 1562.02 328.711C1576.82 338.319 1591.41 352.676 1604.51 370.534C1612.24 381.034 1625.05 401.784 1628.43 409.213C1636.05 425.999 1640.41 442.856 1642.29 462.642C1642.99 470.071 1643.02 487.607 1642.32 495.678C1641.14 509.214 1639.95 519.823 1638.94 526.034C1631.8 569.32 1612.58 598.25 1579.95 614.787C1571.46 619.074 1564.73 621.643 1560.69 622.182C1557.18 622.61 1550.59 622.359 1548.64 621.678C1546.87 621.074 1546.07 619.895 1545.65 617.321C1545.2 614.43 1545.69 611.322 1547.57 604.894C1551.71 590.86 1558.15 574.393 1567.24 554.606C1570.17 548.178 1578.63 530.965 1591.02 506.035C1596.49 495.071 1598.31 490.321 1598.9 485.393C1599.9 477.071 1596.67 469.642 1590.85 466.928C1587.96 465.57 1585.17 465.213 1579.78 465.499C1573.41 465.821 1573.68 465.714 1573.16 468.071C1572.54 470.999 1569.33 480.928 1567.42 485.857C1562.96 497.393 1558.26 507.179 1547.46 527.288C1545.27 531.393 1541.89 537.751 1539.98 541.393C1538.06 545.035 1536.39 548.107 1536.28 548.249C1536.14 548.395 1533.74 546.143 1530.96 543.216C1524.16 536.144 1520.37 533.645 1513.44 531.57C1494.14 525.857 1469.53 536.214 1455 556.142C1450.44 562.394 1447.83 566.575 1438.78 582.075C1424.67 606.178 1421.85 610.143 1407.99 625.038C1402.52 630.932 1401.9 631.501 1399.25 632.861C1397.2 633.894 1395.76 634.358 1394.2 634.504L1392.04 634.715L1390.54 633.108C1387.86 630.217 1386.43 624.787 1387.17 620.001C1388.14 613.503 1389.5 610.359 1406.28 575.858C1418.71 550.289 1419.45 548.677 1419.97 545.322C1420.84 539.499 1418.37 534.537 1413.46 532.215C1408.17 529.751 1393.54 530.391 1382.71 533.57C1377.2 535.177 1372.16 537.892 1363.45 543.891L1355.69 549.251L1352.97 543.574C1349.94 537.181 1349.49 536.607 1343.35 531.57C1339.7 528.573 1337.02 526.93 1335.14 526.537L1334.06 526.321L1332.74 531.106C1330.89 537.68 1329.43 541.68 1327.37 545.856C1326.43 547.82 1324.52 551.931 1323.12 554.963C1313.02 577.143 1303.73 594.003 1295.02 605.896C1289.55 613.392 1283.11 619.502 1274.06 625.789C1270.71 628.111 1269.11 628.68 1266.29 628.464C1264.66 628.358 1264.06 628.111 1263.19 627.25C1261.9 626.036 1260.44 623.074 1260.44 621.714C1260.44 620.681 1265.17 605.786 1268.21 597.287C1272.7 584.749 1274.37 580.714 1281.16 566.393C1284.29 559.824 1287.5 552.752 1288.34 550.682C1291.71 542.108 1290.11 536.748 1283.18 533.429C1280.39 532.109 1274.89 530.895 1270.44 530.608L1268.38 530.502L1266.5 535.499C1265.49 538.249 1264.17 541.715 1263.61 543.181C1260.34 551.714 1257.37 559.537 1257.13 560.288C1256.99 560.716 1256.75 560.963 1256.61 560.822C1256.44 560.646 1255.29 557.145 1254.07 553.074C1252.81 548.999 1251.39 544.964 1250.9 544.108C1245.57 534.748 1229.86 527.5 1217.96 528.895C1210.47 529.751 1199.6 533.927 1191.73 538.929C1184.49 543.539 1175.96 551.462 1170.21 558.893C1160.01 572.146 1152.03 589.218 1147.26 608.002C1144.75 617.931 1144.44 621.286 1145.17 630.428C1145.76 637.647 1147.33 641.858 1150.71 645.324C1156.73 651.5 1169.31 655.504 1180.31 654.824C1193.96 653.933 1205 649.288 1219.69 638.216L1223.52 635.325L1224.78 637.929C1227.04 642.574 1230.49 646.755 1233.98 649.147C1236.13 650.643 1237.7 651.253 1240.87 651.933C1245.81 653.001 1250.66 651.893 1257.83 648.039C1263.19 645.183 1273.19 639.254 1279.35 635.254C1281.44 633.929 1283.25 632.861 1283.32 632.967C1283.42 633.073 1280.22 638.896 1276.07 646.074C1275.34 647.359 1274.72 648.573 1274.72 648.79C1274.72 649.001 1276.39 649.54 1278.48 650.004C1283.84 651.218 1291.5 651.218 1295.26 650.039C1301.26 648.074 1305.54 644.966 1309.92 639.36C1312.89 635.536 1315.39 631.179 1320.62 620.857C1326.95 608.289 1328.45 605.393 1333.5 596.038C1340.92 582.321 1351.4 564.036 1354.81 558.893C1360 551.075 1366.45 546.037 1378.18 540.713C1383.69 538.249 1387.41 537.322 1391.27 537.534C1394.37 537.68 1394.86 538.144 1394.86 540.823C1394.83 544.642 1393.99 546.143 1385.11 558.359C1364.57 586.643 1356.28 602.214 1352.48 619.86C1351.3 625.326 1351.16 632.68 1352.17 636.574C1353.14 640.392 1354.99 643.752 1357.6 646.397C1360.32 649.218 1363.21 650.754 1367.35 651.611C1374.14 653.001 1384.66 650.895 1393.47 646.397C1399.84 643.143 1404.27 639.571 1410.05 633.003C1413.39 629.144 1424.98 615.79 1428.43 611.785C1429.37 610.682 1430.24 609.75 1430.35 609.679C1430.49 609.644 1430.76 611.392 1431.01 613.609C1431.85 621.86 1434.66 631.038 1438.12 636.75C1440.31 640.392 1443.97 644.216 1446.47 645.465C1451.14 647.787 1459.43 649.611 1465.35 649.611C1476.18 649.611 1488.05 646.216 1495.5 641.037C1497.87 639.395 1504.73 632.967 1508.84 628.61C1510.51 626.786 1511.94 625.326 1512.01 625.326C1512.08 625.326 1512.22 626.822 1512.33 628.61C1512.84 637.178 1516.47 644.679 1521.55 647.717C1525.38 650.039 1531.86 650.895 1542.97 650.573C1560.59 650.109 1578.7 645.143 1597.36 635.682C1620.17 624.106 1636.92 608.324 1648.73 587.288C1651.59 582.251 1653.67 577.682 1656.57 570.146C1672.1 529.716 1676.8 485.821 1670.11 443.356C1667.05 424.034 1662.45 407.927 1656.22 394.784C1643.44 367.819 1617.8 334.14 1599.46 320.14C1582.29 307.032 1552.13 289.496 1532.8 281.353C1529.7 280.032 1517.03 275.818 1507.69 272.996C1486.97 266.675 1467.26 261.96 1452.14 259.639C1438.15 257.532 1431.15 257.068 1409.32 256.96C1399.35 256.889 1389.95 256.889 1388.42 256.96ZM1515.46 542.466C1516.74 542.677 1518.42 543.146 1519.15 543.498C1521.03 544.501 1524.03 548.002 1525.45 550.858C1526.64 553.251 1526.67 553.427 1526.64 557.467C1526.64 561.713 1526.22 564.252 1524.41 571.753C1521.31 584.432 1515.98 595.857 1507.94 607.11C1502.12 615.251 1492.02 625.965 1485.37 631.073C1480.7 634.645 1475.45 636.645 1472 636.216C1464.44 635.214 1458.7 626.071 1459.39 616.253C1459.77 611.251 1462.84 600.788 1466.18 592.965C1471.58 580.427 1480.56 566 1487.14 559.285C1491.64 554.681 1504.59 543.932 1506.65 543.105C1508.91 542.179 1512.04 541.967 1515.46 542.466ZM1233.21 544.501C1234.88 546.677 1235.71 548.284 1235.71 549.322C1235.71 551.644 1231.68 560.323 1227.78 566.323C1224.85 570.892 1219 577.395 1215.73 579.788C1209.91 583.999 1200.4 587.288 1191.94 588.039C1190.37 588.145 1188.53 588.145 1187.87 588.039C1186.75 587.822 1186.61 587.646 1186.61 586.749C1186.61 585.717 1189.36 580.392 1193.4 573.501C1200.26 561.93 1206.15 555.109 1213.95 549.714C1218.93 546.284 1226.56 543.216 1230.21 543.181C1232.06 543.181 1232.23 543.251 1233.21 544.501ZM1244.59 568.574C1242.51 581.107 1240.17 588.749 1236.55 594.895C1223.56 616.963 1208.35 631.859 1193.54 636.896C1190.23 638.04 1185.95 638.433 1183.51 637.823C1181.39 637.325 1178.78 634.967 1177.52 632.469C1176.2 629.824 1176.2 625.179 1177.52 617.215C1178.67 610.254 1179.37 607.574 1181.98 599.786L1183.65 594.789L1192.18 594.93C1201.66 595.071 1204.06 594.789 1210.43 592.789C1219.03 590.074 1227.91 584.286 1235.68 576.392C1238.74 573.249 1243.31 567.789 1244.32 566C1244.63 565.466 1244.98 565.038 1245.01 565.109C1245.08 565.179 1244.91 566.751 1244.59 568.574Z" fill="#BECFE2"/>
<path d="M499.356 269.603C481.108 272.46 464.218 281.139 457.219 291.211C455.129 294.175 446.737 311.318 444.613 316.925C439.911 329.176 437.613 341.212 435.593 364.248C434.897 372.141 434.757 395.284 435.384 401.748C435.593 403.998 435.872 410.855 436.011 416.963L436.255 428.034L432.981 429.142C421.907 432.891 408.674 434.463 390.704 434.142C364.83 433.677 352.049 430.963 335.508 422.463C324.678 416.891 317.121 410.034 313.604 402.641C309.494 394.034 307.475 381.248 308.345 369.391C309.877 348.461 316.564 331.354 327.638 320.211C332.339 315.461 338.155 312.033 344.562 310.247C347.14 309.533 348.323 309.425 353.617 309.425C358.84 309.461 360.129 309.568 362.671 310.283C368.974 311.997 375.416 315.89 379.805 320.604C382.695 323.711 384.506 326.747 387.222 332.961C390.46 340.497 391.506 342.747 391.854 342.962C392.341 343.247 393.63 338.854 394.222 334.783C395.406 327.104 393.455 318.568 388.719 310.425C385.655 305.175 382.625 302.318 376.705 299.282C370.332 295.997 363.994 294.461 356.751 294.425C351.005 294.425 348.254 294.925 341.533 297.14C324.538 302.782 313.011 313.639 303.609 332.854C299.221 341.89 296.122 350.747 294.938 357.747C292.396 372.962 293.997 389.105 299.361 402.962C304.549 416.32 312.663 426.284 324.399 433.713C330.842 437.82 339.409 441.749 346.652 443.999C357.691 447.427 368.243 448.999 384.262 449.606C400.978 450.213 407.316 450.07 418.738 448.713C420.932 448.463 422.777 448.285 422.812 448.32C422.848 448.356 402.475 483.214 398.227 490.321C386.386 510.141 371.412 533.323 363.228 544.43C352.92 558.464 339.409 572.357 327.882 580.785C320.395 586.286 310.818 591.217 304.132 593.036C296.644 595.036 288.147 591.681 280.416 583.646C275.819 578.896 272.929 574.574 270.979 569.536C269.168 564.892 268.889 563.144 269.098 557.109C269.307 550.606 270.247 545.428 272.72 537.645C275.192 529.787 277.108 526.502 285.013 516.392C287.242 513.536 289.331 510.785 289.68 510.252L290.271 509.32L288.251 509.859C284.665 510.821 280.625 513.249 276.655 516.856C261.193 530.93 251.164 550.284 248.065 571.929C246.079 585.928 246.706 598.859 249.875 608.717C254.298 622.358 262.586 630.182 276.551 633.788C280.172 634.75 280.66 634.786 289.018 634.786C297.167 634.75 298.002 634.68 302.251 633.788C317.783 630.393 331.573 622.429 348.915 606.788C358.387 598.25 372.526 583.142 382.277 571.108C396.346 553.749 416.509 524.608 422.812 512.463C426.364 505.678 433.922 488.642 435.21 484.607C435.524 483.606 435.802 486.285 437.543 504.786C440.364 534.965 441.687 544.073 446.981 569.249C455.756 610.929 472.019 651.857 493.784 686.933C508.271 710.251 525.264 732.037 543.929 751.22C552.254 759.753 557.652 764.79 567.09 772.825C600.763 801.468 627.89 818.005 659.512 829.113C669.369 832.579 677.029 834.614 702.347 840.507C725.75 845.933 745.635 849.257 762.104 850.507C797.138 853.111 827.681 851.61 857.524 845.827C902.758 837.042 942.564 820.217 980.974 793.72C991.738 786.29 1002.88 777.681 1014.23 768.075C1019.14 763.899 1030.84 752.252 1030.5 751.895C1030.11 751.502 1013.47 760.433 1008.31 763.788C956.805 797.362 900.077 817.184 841.157 822.292C817.094 824.363 799.365 823.718 771.331 819.789C767.884 819.325 763.117 818.685 760.713 818.363C716.871 812.681 680.023 800.042 634.124 774.825C622.74 768.538 617.862 765.324 609.96 758.756C596.48 747.573 580.566 728.788 566.566 707.611C555.213 690.469 545.396 665.932 540.447 642.503C534.944 616.324 535.851 588.825 543.063 561.321C553.61 521.324 572.488 484.571 606.266 438.356C618.905 421.07 630.052 410.177 640.151 405.213C642.903 403.855 643.422 403.712 645.896 403.712C648.471 403.712 648.683 403.784 649.484 404.712C652.931 408.856 650.356 419.82 641.718 437.606C640.323 440.535 639.209 442.999 639.315 443.07C639.733 443.499 647.045 438.428 651.434 434.713C655.718 431.07 660.208 425.677 663.136 420.784C665.676 416.463 669.158 409.177 670.171 406.069C672.015 400.427 671.98 394.748 670.1 390.891C668.427 387.498 663.937 384.355 658.852 382.998C655.854 382.212 649.272 381.676 645.79 381.926C633.429 382.855 623.189 387.069 613.09 395.284C608.252 399.248 603.968 403.82 597.387 411.927C579.381 434.177 572.069 444.463 560.474 463.892C553.126 476.178 542.78 496.964 536.829 511.395C536.199 512.856 535.327 514.967 534.879 516.034C534.007 518.105 531.88 523.606 529.482 530.144C527.461 535.61 522.2 551.896 520.285 558.535C514.263 579.788 513.25 586.643 510.816 623.467C510.463 628.429 510.08 632.358 509.944 632.217C509.596 631.859 490.337 572.216 488.421 565.678C484.451 551.896 481.317 537.322 479.541 524.069C478.984 520.145 477.278 502.678 474.979 477.999C472.82 454.499 471.358 438.428 471.114 435.641L470.87 432.927L473.621 431.391C479.75 427.927 488.421 421.891 495.351 416.177C522.2 394.212 541.178 366.141 549.71 335.783C552.708 325.14 553.645 318.426 553.403 309.89C553.262 304.711 553.091 303.14 552.325 300.139C550.511 293.247 547.24 287.532 542.261 282.496C532.198 272.389 523.56 268.853 509.279 268.925C505.59 268.925 502.038 269.175 499.356 269.603ZM519.378 287.461C530.313 289.282 537.247 293.068 540.17 298.782C541.632 301.604 542.327 304.782 542.71 310.104C544.277 332.926 536.446 352.104 514.54 379.069C509.107 385.748 496.117 399.141 490.929 403.463C486.192 407.391 481.178 410.82 477.417 412.748C474.457 414.284 470.765 415.57 470.417 415.249C470.104 414.891 469.233 391.07 469.233 381.676C469.233 362.319 473.099 332.926 477.8 316.747C481.666 303.497 490.511 293.497 502.56 288.746C508.447 286.389 511.612 286.175 519.378 287.461Z" fill="#BECFE2"/>
<path d="M1145.52 419.57C1144.09 419.713 1142.73 419.927 1142.49 420.07C1142.28 420.212 1141.58 422.534 1140.99 425.248C1138.73 435.392 1137.75 437.927 1130.19 452.999C1114.56 484.249 1107.49 499 1080.43 556.998C1078.31 561.572 1074.86 568.967 1072.77 573.43C1063.02 594.285 1058.22 605 1054.38 614.43C1046.41 634.075 1037.18 661.932 1036.13 669.574C1035.33 675.538 1036.31 681.79 1038.92 687.29C1042.89 695.647 1049.37 700.181 1058.6 701.108C1062.67 701.501 1069.74 701.289 1073.92 700.644C1082.59 699.325 1091.16 695.965 1097.98 691.255C1102.17 688.394 1113.17 679.397 1118.04 674.858C1128.04 665.609 1135.8 654.003 1137.86 645.324C1138.97 640.433 1138.7 638.68 1136.78 638.967C1136.22 639.037 1135.24 640.433 1133.02 644.18C1128.84 651.253 1124.49 657.147 1119.47 662.501C1112.26 670.178 1104.98 675.714 1096.21 680.147C1090.25 683.18 1088.48 683.467 1085.48 681.966C1082.21 680.324 1078.97 675.714 1078 671.397C1077.09 667.468 1077.86 658.29 1079.66 650.502C1081.3 643.611 1084.02 636.468 1088.27 627.718C1089.14 625.965 1094.64 613.825 1100.49 600.718C1106.31 587.646 1112.4 574.035 1114 570.499C1117.66 562.358 1124.24 547.679 1136.15 520.931C1138.28 516.181 1141.31 509.39 1142.91 505.859C1144.48 502.321 1146.21 498.464 1146.74 497.285C1147.89 494.642 1152.35 484.606 1155.79 476.928C1164.15 458.249 1170.98 442.463 1171.88 439.784C1172.47 438.07 1172.82 436.213 1172.93 433.891C1173.06 430.963 1172.99 430.213 1172.33 428.391C1170.73 424.07 1166.52 420.927 1160.88 419.82C1157.92 419.248 1150.75 419.141 1145.52 419.57Z" fill="#BECFE2"/>
<path d="M939.152 509.431C939.011 509.788 939.676 510.856 940.961 512.322C945.073 517.072 946.953 520.07 948.273 524.11C949.841 528.966 949.74 534.179 947.89 539.61C946.641 543.287 940.543 560.716 938.593 566.217C929.713 591.253 922.295 604.249 909.41 617.467C900.843 626.288 893.254 631.93 883.155 636.967C874.064 641.536 867.518 642.715 861.878 640.861C856.481 639.073 852.994 633.36 852.44 625.431C852.021 619.004 853.17 614.143 857.212 605.856C860.624 598.789 860.135 599.217 864.141 599.68C865.95 599.857 870.269 599.967 873.716 599.857C880.892 599.68 885.977 598.718 891.48 596.502C899.276 593.358 907.041 587.465 912.509 580.503C917.629 573.964 920.557 564.645 920.557 554.893C920.557 547.503 919.267 543.146 915.991 539.428C911.012 533.857 904.325 531.253 894.962 531.253C889.388 531.253 886.496 531.681 880.963 533.393C864.66 538.431 853.029 547.574 840.562 565.144C828.165 582.609 821.448 595.968 818.066 609.861C816.187 617.503 815.909 619.931 815.909 629.431C815.909 639.073 816.081 640.322 818.207 644.79C823.292 655.681 833.008 660.038 851.014 659.504C855.781 659.358 858.603 659.111 860.901 658.608C885.347 653.182 907.288 636.504 928.564 607.287C934.869 598.607 939.606 591.288 946.918 578.931C949.286 574.932 951.967 570.68 952.874 569.466C960.534 559.286 972.513 550.858 985.923 546.284C991.42 544.395 993.406 544.178 994.837 545.357C995.986 546.249 996.646 548.359 996.193 549.644C995.775 550.682 992.746 554.858 987.071 562.106C984.839 564.963 980.49 570.751 977.421 574.967C974.357 579.178 969.449 585.858 966.521 589.787C952.315 608.858 945.94 620.394 943.713 631.214C943.053 634.539 943.053 641.002 943.713 643.682C945.698 651.429 951.584 656.683 960.741 658.824C963.911 659.575 974.775 659.645 977.839 658.93C981.009 658.215 987.243 656.109 989.994 654.825C995.391 652.286 1006.4 644.75 1013.36 638.861C1021.3 632.111 1030.15 622.107 1035.65 613.714C1041.22 605.146 1043.13 601.146 1043.13 597.968C1043.13 595.394 1040.49 594.431 1039.2 596.572C1036.66 600.753 1031.99 608.002 1030.32 610.289C1022.35 621.286 1011.17 632.217 1003.89 636.111C993.754 641.536 985.257 641.465 981.639 635.965C980.208 633.788 979.931 631.789 980.626 628.575C981.81 623.321 985.54 617.11 1003.65 590.145C1020.57 564.963 1024.92 557.356 1027.29 549.07C1029.52 541.181 1028.4 534.285 1024.44 531.535C1021.82 529.751 1009.74 529.464 1002.57 531.036C996.122 532.467 982.541 537.393 972.689 541.891C969.867 543.181 967.322 544.249 967.045 544.249C966.455 544.249 966.627 539.61 967.463 534.073C968.648 526.286 968.406 522.855 966.35 518.251C965.236 515.788 961.718 512.181 959.209 510.927C955.727 509.214 953.741 508.892 946.258 508.892C940.407 508.892 939.293 508.962 939.152 509.431ZM906.033 543.181C906.764 543.393 907.843 544.037 908.472 544.607C909.516 545.574 909.586 545.75 909.586 548.072C909.551 550.037 909.238 551.503 907.878 555.502C901.82 573.536 895.063 581.929 882.389 587.142C879.043 588.538 879.043 588.538 874.134 588.538C868.354 588.538 864.489 588.215 864.489 587.752C864.489 587.218 871.488 573.073 874.099 568.287C880.509 556.606 887.892 548.752 896.7 544.214C900.042 542.466 900.253 542.431 902.445 542.607C903.7 542.713 905.303 542.964 906.033 543.181Z" fill="#BECFE2"/>
<path d="M795.082 528.895C794.144 529.071 793.272 529.323 793.167 529.429C792.713 529.892 793.066 533.927 793.933 538.32C795.293 545.035 795.046 549.286 792.96 555.215C791.635 558.893 779.55 583.359 772.969 595.681C758.587 622.535 747.48 636.539 733.793 644.931C728.154 648.432 722.021 650.679 718.261 650.679C716.241 650.679 715.686 650.538 714.049 649.5C711.957 648.215 710.113 645.682 708.893 642.468C707.603 639.037 707.326 637.289 707.502 633.073C707.638 629.824 707.885 628.464 708.787 625.754C711.085 618.681 716.518 608.682 731.701 583.359C744.381 562.177 747.722 556.001 749.601 550.248C750.544 547.392 750.65 546.606 750.544 543.927C750.367 539.106 748.558 536.25 744.275 534.038C739.225 531.394 734.453 530.502 725.957 530.572C722.439 530.608 719.481 530.713 719.375 530.819C719.269 530.895 718.821 533.036 718.367 535.57C715.686 549.966 715.858 549.538 710.042 559.074C696.149 581.929 684.029 599.716 674.384 611.574C668.568 618.681 660.173 626.54 653.314 631.179C646.975 635.536 638.372 639.607 632.557 641.037C621.274 643.788 612.223 638.826 610.862 629.109C610.374 625.719 611.14 620.752 612.918 615.357C614.38 610.929 618.804 601.393 619.429 601.393C620.372 601.393 634.613 599.967 637.223 599.61C660.661 596.466 674.071 585.037 679.433 563.608C680.37 559.86 680.617 558.177 680.617 555.573C680.617 549.357 678.773 544.36 674.903 540.073C671.179 535.962 667.107 533.645 660.838 532.038C656.655 530.965 647.01 530.895 642.832 531.892C632.874 534.285 623.889 539.751 612.43 550.43C594.459 567.179 581.962 589.611 575.446 616.893C573.495 625.074 573.254 627.003 573.46 631.537C573.742 637.289 575.274 642.715 577.92 647.394C579.729 650.502 584.537 655.253 587.495 656.86C591.501 659.001 593.31 659.288 603.132 659.504C613.543 659.716 619.223 659.182 626.741 657.217C634.996 655.112 639.975 652.789 648.229 647.289C657.25 641.254 664.874 634.68 674.384 624.681C677.831 621.074 680.723 618.183 680.789 618.253C680.859 618.324 681.106 620.535 681.313 623.18C682.255 635.073 684.724 641.465 690.681 647.465C694.163 650.966 697.262 652.895 702.312 654.789C708.198 656.965 712.688 657.61 721.537 657.645C729.509 657.645 732.226 657.323 738.6 655.646C752.317 652.039 767.4 642.11 781.954 627.144C798.216 610.395 809.464 590.286 818.731 561.391C821.483 552.858 822.143 549.216 821.866 544.607C821.448 537.393 819.533 533.892 814.69 531.394C810.683 529.323 808.386 528.819 802.328 528.678C799.264 528.643 795.989 528.714 795.082 528.895ZM665.887 542.788C669.334 544.43 669.541 548.642 666.512 556.606C664.597 561.714 663.065 564.751 660.49 568.715C654.775 577.606 646.768 584.11 636.528 588.321C633.429 589.57 633.222 589.611 628.833 589.611C623.053 589.611 622.009 589.429 622.287 588.392C622.423 588.004 624.061 584.432 625.94 580.503C630.783 570.463 635.591 563.215 642.066 556.142C649.726 547.75 655.123 543.498 659.306 542.501C661.569 541.927 664.32 542.073 665.887 542.788Z" fill="#BECFE2"/>
</g>
<path d="M1197.77 246.351C1073.01 342.609 1040.7 522.805 775.625 778.613C510.549 1034.42 364.894 753.442 517.332 662.688C669.773 571.935 1527.14 527.606 1526.29 346.745C1525.44 165.885 1322.52 150.093 1197.77 246.351Z" stroke="url(#paint0_linear_683_3006)" stroke-opacity="0.1" stroke-width="30"/>
<path d="M1211.11 300.639C1086.35 396.896 1054.04 577.093 788.964 832.901C523.888 1088.71 378.236 807.729 530.676 716.976C683.117 626.222 1540.48 581.893 1539.63 401.033C1538.79 220.172 1335.87 204.381 1211.11 300.639Z" stroke="url(#paint1_linear_683_3006)" stroke-opacity="0.1" stroke-width="30"/>
</g>
<defs>
<filter id="filter0_i_683_3006" x="246.929" y="256.907" width="1426.14" height="598.833" filterUnits="userSpaceOnUse" color-interpolation-filters="sRGB">
<feFlood flood-opacity="0" result="BackgroundImageFix"/>
<feBlend mode="normal" in="SourceGraphic" in2="BackgroundImageFix" result="shape"/>
<feColorMatrix in="SourceAlpha" type="matrix" values="0 0 0 0 0 0 0 0 0 0 0 0 0 0 0 0 0 0 127 0" result="hardAlpha"/>
<feOffset dy="4"/>
<feGaussianBlur stdDeviation="2"/>
<feComposite in2="hardAlpha" operator="arithmetic" k2="-1" k3="1"/>
<feColorMatrix type="matrix" values="0 0 0 0 0.658824 0 0 0 0 0.698039 0 0 0 0 0.831373 0 0 0 1 0"/>
<feBlend mode="normal" in2="shape" result="effect1_innerShadow_683_3006"/>
</filter>
<linearGradient id="paint0_linear_683_3006" x1="1310.61" y1="374.696" x2="371.593" y2="763.803" gradientUnits="userSpaceOnUse">
<stop stop-color="#029FD7"/>
<stop offset="1" stop-color="white"/>
</linearGradient>
<linearGradient id="paint1_linear_683_3006" x1="1323.95" y1="428.983" x2="384.934" y2="818.091" gradientUnits="userSpaceOnUse">
<stop stop-color="#029FD7"/>
<stop offset="1" stop-color="white"/>
</linearGradient>
</defs>
</svg>
