<svg width="342" height="202" viewBox="0 0 342 202" fill="none" xmlns="http://www.w3.org/2000/svg">
<g clip-path="url(#clip0_690_4035)">
<g filter="url(#filter0_f_690_4035)">
<g filter="url(#filter1_f_690_4035)">
<path fill-rule="evenodd" clip-rule="evenodd" d="M86.3362 116C79.806 116 73.7589 117.314 68.8141 119.548C63.8693 117.314 57.8221 116 51.292 116C36.5677 116 24.2993 122.68 21.5857 131.53C9.10063 133.9 0 141.252 0 149.955C0 160.573 13.5503 169.182 30.2655 169.182C37.3084 169.182 43.7895 167.653 48.9318 165.09C54.2892 168.143 61.3697 170 69.1328 170C78.2774 170 86.4747 167.423 92.0243 163.351C97.5239 166.947 105.219 169.182 113.735 169.182C130.45 169.182 144 160.573 144 149.955C144 139.773 131.544 131.44 115.784 130.771C112.62 122.301 100.636 116 86.3362 116Z" fill="white"/>
</g>
<g filter="url(#filter2_ddf_690_4035)">
<path fill-rule="evenodd" clip-rule="evenodd" d="M288.698 99C283.681 99 279.035 100.033 275.236 101.789C271.437 100.033 266.791 99 261.774 99C250.462 99 241.036 104.25 238.951 111.206C229.359 113.07 222.367 118.848 222.367 125.689C222.367 134.035 232.778 140.802 245.62 140.802C251.031 140.802 256.01 139.6 259.961 137.586C264.077 139.985 269.517 141.445 275.481 141.445C282.506 141.445 288.804 139.42 293.068 136.218C297.293 139.045 303.205 140.802 309.748 140.802C322.59 140.802 333 134.035 333 125.689C333 117.686 323.43 111.136 311.323 110.61C308.892 103.952 299.685 99 288.698 99Z" fill="white"/>
</g>
</g>
<path d="M213.5 52L213.753 67.4087L225.167 56.6863L214.11 67.7551L230 68L214.11 68.2449L225.167 79.3137L213.753 68.5913L213.5 84L213.247 68.5913L201.833 79.3137L212.89 68.2449L197 68L212.89 67.7551L201.833 56.6863L213.247 67.4087L213.5 52Z" fill="white"/>
<path d="M16.5 170L16.7526 185.409L28.1673 174.686L17.1098 185.755L33 186L17.1098 186.245L28.1673 197.314L16.7526 186.591L16.5 202L16.2474 186.591L4.83274 197.314L15.8902 186.245L0 186L15.8902 185.755L4.83274 174.686L16.2474 185.409L16.5 170Z" fill="white"/>
<path d="M317.5 0L318.813 22.6371L334.824 7.61522L320.669 24.607L342 26L320.669 27.393L334.824 44.3848L318.813 29.3629L317.5 52L316.187 29.3629L300.176 44.3848L314.331 27.393L293 26L314.331 24.607L300.176 7.61522L316.187 22.6371L317.5 0Z" fill="white"/>
<g filter="url(#filter3_i_690_4035)">
<path d="M258.319 48.0108C253.731 48.2118 249.201 48.7357 244.169 49.6544C238.986 50.6017 235.267 51.8434 228.454 54.8937C227.865 55.1592 227.104 55.4966 226.767 55.6473C224.312 56.731 221.476 58.1593 220.342 58.8698C219.595 59.3363 218.927 59.8172 218.97 59.8602C218.978 59.8746 219.372 59.7024 219.846 59.4799C223.974 57.5349 227.549 56.2286 231.756 55.109C238.146 53.408 242.611 52.5826 248.017 52.0874C249.69 51.9367 256.668 51.8649 258.606 51.9798C262.052 52.1879 267.587 52.8554 270.595 53.4295C274.852 54.2406 279.763 55.8841 286.209 58.6617C291.407 60.8938 292.527 61.432 294.106 62.4297C297.157 64.3603 300.165 67.2455 302.865 70.8341C304.458 72.9442 307.1 77.1141 307.797 78.6069C309.369 81.9802 310.266 85.3678 310.654 89.3439C310.798 90.8368 310.805 94.3607 310.661 95.9828C310.417 98.7029 310.173 100.835 309.965 102.083C308.493 110.782 304.53 116.596 297.803 119.919C296.052 120.78 294.666 121.297 293.833 121.404C293.108 121.49 291.752 121.44 291.35 121.304C290.983 121.182 290.818 120.945 290.732 120.428C290.639 119.847 290.739 119.222 291.127 117.93C291.981 115.11 293.309 111.801 295.183 107.825C295.786 106.533 297.531 103.074 300.086 98.0641C301.214 95.8608 301.587 94.9062 301.709 93.9158C301.917 92.2435 301.249 90.7506 300.051 90.2052C299.455 89.9325 298.88 89.8607 297.768 89.9181C296.454 89.9827 296.511 89.9612 296.404 90.4349C296.274 91.0234 295.614 93.0186 295.219 94.0091C294.3 96.3273 293.331 98.2938 291.105 102.335C290.653 103.16 289.957 104.437 289.562 105.17C289.167 105.902 288.823 106.519 288.801 106.548C288.772 106.576 288.277 106.124 287.703 105.536C286.303 104.114 285.52 103.612 284.092 103.196C280.114 102.047 275.039 104.129 272.045 108.134C271.105 109.39 270.566 110.229 268.7 113.344C265.792 118.189 265.211 118.985 262.353 121.978C261.226 123.163 261.097 123.277 260.551 123.55C260.128 123.758 259.834 123.852 259.511 123.88L259.065 123.923L258.757 123.6C258.204 123.019 257.91 121.928 258.06 120.966C258.261 119.66 258.541 119.029 262.002 112.095C264.565 106.957 264.715 106.634 264.823 105.959C265.002 104.789 264.493 103.792 263.481 103.325C262.389 102.83 259.374 102.959 257.141 103.598C256.007 103.921 254.966 104.466 253.171 105.672L251.57 106.748L251.011 105.607C250.386 104.323 250.293 104.208 249.029 103.196C248.275 102.593 247.723 102.263 247.335 102.184L247.112 102.141L246.839 103.102C246.459 104.423 246.157 105.227 245.734 106.067C245.54 106.461 245.145 107.287 244.858 107.897C242.776 112.354 240.859 115.741 239.065 118.131C237.937 119.639 236.609 120.866 234.743 122.129C234.054 122.596 233.723 122.71 233.142 122.667C232.804 122.646 232.682 122.596 232.503 122.423C232.237 122.179 231.936 121.584 231.936 121.311C231.936 121.103 232.912 118.11 233.537 116.402C234.463 113.883 234.807 113.072 236.207 110.194C236.853 108.873 237.514 107.452 237.686 107.036C238.383 105.313 238.052 104.236 236.624 103.569C236.049 103.303 234.915 103.059 233.996 103.002L233.573 102.98L233.185 103.985C232.977 104.538 232.704 105.234 232.589 105.528C231.914 107.244 231.304 108.815 231.254 108.966C231.225 109.052 231.175 109.103 231.146 109.074C231.11 109.038 230.873 108.335 230.622 107.516C230.364 106.698 230.069 105.887 229.969 105.715C228.87 103.835 225.633 102.378 223.177 102.658C221.634 102.83 219.394 103.669 217.772 104.674C216.278 105.6 214.519 107.193 213.335 108.686C211.231 111.349 209.587 114.78 208.604 118.555C208.087 120.55 208.022 121.225 208.173 123.062C208.295 124.512 208.618 125.359 209.315 126.055C210.557 127.297 213.148 128.1 215.417 127.964C218.231 127.785 220.507 126.852 223.536 124.627L224.326 124.045L224.584 124.569C225.051 125.502 225.762 126.342 226.48 126.823C226.925 127.124 227.248 127.246 227.901 127.383C228.921 127.598 229.918 127.376 231.397 126.6C232.503 126.026 234.563 124.835 235.834 124.031C236.265 123.765 236.638 123.55 236.652 123.572C236.674 123.593 236.014 124.763 235.159 126.206C235.008 126.464 234.879 126.708 234.879 126.751C234.879 126.794 235.224 126.902 235.655 126.995C236.76 127.239 238.34 127.239 239.115 127.002C240.35 126.608 241.233 125.983 242.137 124.856C242.747 124.088 243.264 123.213 244.341 121.139C245.648 118.612 245.956 118.031 246.997 116.151C248.527 113.395 250.687 109.72 251.391 108.686C252.461 107.115 253.789 106.103 256.208 105.033C257.342 104.538 258.111 104.351 258.907 104.394C259.546 104.423 259.647 104.516 259.647 105.055C259.64 105.823 259.467 106.124 257.637 108.579C253.401 114.263 251.693 117.392 250.91 120.938C250.666 122.036 250.637 123.514 250.845 124.297C251.046 125.065 251.427 125.739 251.965 126.27C252.525 126.837 253.121 127.146 253.975 127.318C255.375 127.598 257.543 127.175 259.36 126.27C260.674 125.617 261.585 124.899 262.777 123.579C263.466 122.804 265.857 120.119 266.567 119.316C266.761 119.093 266.941 118.907 266.962 118.892C266.991 118.885 267.048 119.237 267.099 119.682C267.271 121.34 267.853 123.184 268.563 124.332C269.016 125.065 269.769 125.832 270.286 126.084C271.248 126.55 272.957 126.916 274.177 126.916C276.41 126.916 278.858 126.234 280.394 125.194C280.883 124.864 282.297 123.572 283.144 122.696C283.488 122.33 283.783 122.036 283.797 122.036C283.812 122.036 283.84 122.337 283.862 122.696C283.969 124.419 284.716 125.926 285.764 126.536C286.554 127.002 287.889 127.175 290.179 127.11C293.812 127.017 297.545 126.019 301.393 124.117C306.095 121.792 309.548 118.619 311.982 114.392C312.571 113.38 313.002 112.461 313.597 110.947C316.799 102.823 317.768 94.0019 316.39 85.4683C315.758 81.5854 314.811 78.3486 313.526 75.7074C310.891 70.2886 305.607 63.5206 301.824 60.7072C298.284 58.0731 292.067 54.5492 288.083 52.9128C287.444 52.6472 284.831 51.8003 282.907 51.2333C278.635 49.963 274.572 49.0156 271.456 48.5491C268.57 48.1256 267.127 48.0323 262.626 48.0108C260.573 47.9964 258.635 47.9964 258.319 48.0108ZM284.508 105.385C284.774 105.428 285.118 105.521 285.269 105.593C285.657 105.794 286.274 106.497 286.568 107.071C286.812 107.552 286.82 107.588 286.812 108.399C286.812 109.253 286.726 109.763 286.353 111.27C285.714 113.818 284.616 116.115 282.957 118.375C281.758 120.012 279.676 122.165 278.305 123.191C277.343 123.909 276.259 124.311 275.548 124.225C273.991 124.024 272.806 122.187 272.95 120.213C273.029 119.208 273.66 117.105 274.35 115.533C275.462 113.014 277.315 110.115 278.671 108.765C279.597 107.839 282.268 105.679 282.692 105.514C283.158 105.327 283.804 105.284 284.508 105.385ZM226.322 105.794C226.666 106.232 226.839 106.555 226.839 106.763C226.839 107.229 226.006 108.973 225.202 110.179C224.599 111.098 223.393 112.404 222.718 112.885C221.519 113.732 219.559 114.392 217.815 114.543C217.492 114.564 217.111 114.564 216.975 114.543C216.745 114.5 216.716 114.464 216.716 114.284C216.716 114.076 217.283 113.007 218.116 111.622C219.53 109.296 220.744 107.926 222.352 106.842C223.378 106.153 224.951 105.536 225.704 105.528C226.085 105.528 226.121 105.543 226.322 105.794ZM228.669 110.631C228.239 113.15 227.758 114.686 227.011 115.921C224.333 120.356 221.196 123.349 218.145 124.361C217.463 124.591 216.58 124.67 216.077 124.548C215.639 124.447 215.101 123.974 214.843 123.471C214.57 122.94 214.57 122.007 214.843 120.407C215.079 119.007 215.223 118.469 215.761 116.904L216.106 115.899L217.865 115.928C219.818 115.957 220.313 115.899 221.627 115.497C223.4 114.952 225.231 113.789 226.832 112.203C227.463 111.572 228.404 110.473 228.612 110.115C228.677 110.007 228.748 109.921 228.755 109.935C228.77 109.949 228.734 110.265 228.669 110.631Z" fill="#7EE4F8"/>
<path d="M75.038 50.5512C71.2762 51.1254 67.7943 52.8695 66.3513 54.8934C65.9206 55.4891 64.1905 58.9341 63.7525 60.0609C62.7834 62.5227 62.3096 64.9414 61.8932 69.5706C61.7496 71.1568 61.7209 75.8076 61.8501 77.1066C61.8932 77.5588 61.9506 78.9368 61.9793 80.1641L62.0296 82.389L61.3547 82.6115C59.0718 83.3651 56.3438 83.6809 52.6394 83.6163C47.3054 83.523 44.6707 82.9775 41.2606 81.2694C39.0279 80.1497 37.4701 78.7717 36.745 77.2861C35.8979 75.5564 35.4815 72.987 35.661 70.6042C35.9768 66.3984 37.3552 62.9605 39.6381 60.7212C40.6073 59.7667 41.8062 59.0777 43.1272 58.7188C43.6584 58.5753 43.9025 58.5537 44.9937 58.5537C46.0706 58.5609 46.3362 58.5825 46.8603 58.726C48.1597 59.0705 49.4878 59.8528 50.3923 60.8002C50.9882 61.4246 51.3615 62.0347 51.9215 63.2835C52.5891 64.7979 52.8045 65.25 52.8763 65.2931C52.9768 65.3505 53.2424 64.4677 53.3645 63.6495C53.6086 62.1064 53.2065 60.3911 52.2302 58.7547C51.5984 57.6997 50.9738 57.1255 49.7534 56.5154C48.4396 55.8551 47.1331 55.5465 45.6398 55.5393C44.4553 55.5393 43.8881 55.6398 42.5026 56.0848C38.9992 57.2188 36.6229 59.4006 34.6846 63.2619C33.78 65.0778 33.1411 66.8577 32.897 68.2644C32.373 71.3219 32.7032 74.5659 33.8088 77.3507C34.8784 80.0349 36.5512 82.0373 38.9705 83.5302C40.2986 84.3555 42.0647 85.145 43.5579 85.5972C45.8337 86.2862 48.0089 86.602 51.3113 86.724C54.7572 86.846 56.0638 86.8173 58.4185 86.5446C58.8708 86.4943 59.2513 86.4584 59.2585 86.4656C59.2656 86.4728 55.0659 93.4777 54.1901 94.9059C51.7492 98.8892 48.6622 103.547 46.9751 105.779C44.8501 108.6 42.0647 111.392 39.6884 113.086C38.1449 114.191 36.1707 115.181 34.7923 115.547C33.2488 115.949 31.4971 115.275 29.9034 113.66C28.9557 112.705 28.3599 111.837 27.9578 110.825C27.5845 109.892 27.5271 109.54 27.5702 108.327C27.6133 107.021 27.8071 105.98 28.3168 104.416C28.8265 102.837 29.2214 102.176 30.851 100.145C31.3105 99.5711 31.7412 99.0184 31.813 98.9108L31.935 98.7242L31.5187 98.8318C30.7792 99.0256 29.9464 99.5137 29.128 100.239C25.9405 103.066 23.873 106.956 23.234 111.306C22.8248 114.119 22.9541 116.717 23.6074 118.698C24.5191 121.44 26.2277 123.012 29.1065 123.736C29.8531 123.93 29.9536 123.937 31.6766 123.937C33.3565 123.93 33.5288 123.916 34.4046 123.736C37.6065 123.055 40.4494 121.454 44.0245 118.311C45.9772 116.595 48.8919 113.559 50.9021 111.141C53.8024 107.653 57.9591 101.796 59.2585 99.3558C59.9907 97.9921 61.5486 94.5686 61.8142 93.7576C61.8788 93.5566 61.9362 94.0949 62.2952 97.8127C62.8767 103.877 63.1495 105.708 64.2407 110.767C66.0498 119.143 69.4024 127.368 73.8893 134.416C76.8758 139.103 80.3792 143.481 84.2272 147.335C85.9429 149.05 87.0557 150.062 89.0012 151.677C95.9433 157.433 101.536 160.756 108.054 162.988C110.086 163.684 111.665 164.094 116.885 165.278C121.709 166.369 125.808 167.036 129.204 167.287C136.426 167.811 142.722 167.51 148.874 166.347C158.2 164.582 166.406 161.201 174.324 155.876C176.542 154.383 178.84 152.653 181.18 150.723C182.192 149.883 184.604 147.543 184.533 147.471C184.454 147.392 181.022 149.187 179.96 149.861C169.342 156.608 157.647 160.591 145.5 161.617C140.54 162.034 136.885 161.904 131.106 161.115C130.396 161.022 129.412 160.893 128.917 160.828C119.878 159.687 112.283 157.146 102.821 152.079C100.473 150.816 99.4683 150.17 97.8386 148.849C95.0603 146.603 91.7795 142.828 88.8935 138.572C86.5532 135.127 84.5287 130.196 83.5093 125.488C82.375 120.227 82.5616 114.7 84.0477 109.174C86.2229 101.136 90.114 93.7504 97.0776 84.4632C99.6836 80.9895 101.981 78.8004 104.063 77.8028C104.63 77.5301 104.738 77.5014 105.247 77.5014C105.779 77.5014 105.822 77.5157 105.987 77.7023C106.698 78.5349 106.166 80.7383 104.386 84.3125C104.099 84.901 103.869 85.3962 103.891 85.4106C103.977 85.4967 105.484 84.4776 106.389 83.7311C107.272 82.9991 108.198 81.9153 108.801 80.9321C109.325 80.0636 110.043 78.5995 110.251 77.9751C110.632 76.8411 110.624 75.6999 110.237 74.9248C109.892 74.243 108.966 73.6114 107.918 73.3386C107.301 73.1807 105.944 73.0731 105.226 73.1233C102.677 73.3099 100.567 74.1568 98.4847 75.8076C97.4868 76.6042 96.6038 77.5229 95.247 79.1521C91.5354 83.6235 90.0278 85.6905 87.6372 89.5949C86.1224 92.0638 83.9902 96.2409 82.7626 99.1404C82.6334 99.4347 82.4539 99.8582 82.3606 100.073C82.1811 100.49 81.7432 101.595 81.2479 102.908C80.8315 104.007 79.7474 107.279 79.3526 108.614C78.1106 112.885 77.9024 114.263 77.3999 121.662C77.3281 122.66 77.2491 123.449 77.2204 123.421C77.1486 123.349 73.1786 111.363 72.7838 110.05C71.9654 107.279 71.3192 104.351 70.9531 101.688C70.8382 100.899 70.4865 97.3892 70.0127 92.4298C69.5676 87.7073 69.266 84.4776 69.2158 83.9177L69.1655 83.3723L69.7327 83.0637C70.9962 82.3675 72.7838 81.1545 74.2124 80.0062C79.7474 75.5923 83.66 69.951 85.4189 63.8505C86.0363 61.7117 86.2301 60.3624 86.1799 58.647C86.1511 57.6064 86.1152 57.2906 85.9573 56.6877C85.584 55.3025 84.9092 54.1542 83.8826 53.1422C81.8078 51.1111 80.0274 50.4005 77.084 50.4149C76.323 50.4149 75.5908 50.4651 75.038 50.5512ZM79.1659 54.1398C81.4202 54.5058 82.8488 55.2666 83.4518 56.415C83.7533 56.982 83.8969 57.6207 83.9759 58.6901C84.2989 63.2763 82.6837 67.1304 78.168 72.5492C77.0481 73.8913 74.3703 76.5827 73.3007 77.4511C72.3243 78.2406 71.2905 78.9296 70.5152 79.3172C69.905 79.6258 69.144 79.8842 69.0722 79.8196C69.0076 79.7478 68.8281 74.9607 68.8281 73.0731C68.8281 69.1831 69.625 63.2763 70.5942 60.0251C71.391 57.3623 73.2145 55.3527 75.6985 54.3982C76.9117 53.9245 77.565 53.8814 79.1659 54.1398Z" fill="#7EE4F8"/>
<path d="M208.245 80.6879C207.951 80.7166 207.671 80.7597 207.62 80.7884C207.577 80.8171 207.434 81.2836 207.312 81.8291C206.845 83.8674 206.644 84.3769 205.086 87.4057C201.863 93.6857 200.406 96.6498 194.827 108.306C194.39 109.224 193.679 110.71 193.248 111.607C191.238 115.798 190.247 117.952 189.458 119.846C187.814 123.794 185.911 129.392 185.696 130.928C185.531 132.126 185.732 133.382 186.27 134.488C187.088 136.167 188.424 137.079 190.326 137.265C191.166 137.344 192.623 137.301 193.485 137.172C195.273 136.906 197.039 136.232 198.446 135.284C199.307 134.71 201.576 132.902 202.581 131.99C204.641 130.131 206.242 127.799 206.666 126.055C206.895 125.071 206.838 124.72 206.443 124.777C206.328 124.791 206.127 125.071 205.668 125.825C204.806 127.246 203.909 128.43 202.875 129.507C201.389 131.05 199.889 132.162 198.08 133.052C196.852 133.662 196.486 133.72 195.868 133.418C195.194 133.088 194.526 132.162 194.325 131.294C194.138 130.504 194.296 128.66 194.67 127.095C195.007 125.71 195.567 124.275 196.443 122.516C196.622 122.165 197.756 119.724 198.963 117.09C200.161 114.463 201.418 111.729 201.748 111.018C202.502 109.382 203.859 106.432 206.314 101.057C206.752 100.102 207.376 98.7384 207.707 98.0278C208.03 97.3173 208.389 96.5422 208.496 96.3053C208.733 95.7742 209.652 93.7575 210.363 92.2144C212.086 88.4607 213.493 85.2884 213.68 84.7501C213.802 84.4056 213.873 84.0324 213.895 83.5659C213.924 82.9774 213.909 82.8267 213.773 82.4606C213.443 81.5922 212.574 80.9606 211.411 80.7381C210.801 80.6233 209.322 80.6018 208.245 80.6879Z" fill="#7EE4F8"/>
<path d="M165.702 98.7456C165.673 98.8174 165.81 99.0327 166.075 99.327C166.923 100.282 167.31 100.884 167.583 101.695C167.906 102.671 167.885 103.719 167.504 104.81C167.246 105.55 165.989 109.052 165.587 110.157C163.757 115.188 162.227 117.801 159.571 120.456C157.805 122.229 156.24 123.363 154.158 124.375C152.285 125.294 150.935 125.531 149.772 125.157C148.659 124.799 147.941 123.65 147.826 122.057C147.74 120.765 147.977 119.789 148.81 118.124C149.513 116.703 149.413 116.789 150.239 116.882C150.612 116.918 151.502 116.94 152.213 116.918C153.692 116.882 154.74 116.688 155.874 116.243C157.482 115.612 159.083 114.428 160.21 113.028C161.266 111.715 161.869 109.841 161.869 107.882C161.869 106.396 161.603 105.521 160.928 104.774C159.901 103.655 158.523 103.131 156.592 103.131C155.443 103.131 154.847 103.217 153.706 103.561C150.346 104.573 147.948 106.411 145.378 109.942C142.823 113.452 141.437 116.136 140.741 118.928C140.353 120.464 140.296 120.952 140.296 122.861C140.296 124.799 140.331 125.05 140.769 125.947C141.817 128.136 143.82 129.012 147.532 128.904C148.516 128.875 149.097 128.825 149.571 128.725C154.611 127.634 159.133 124.282 163.52 118.411C164.819 116.667 165.795 115.196 167.303 112.712C167.791 111.908 168.344 111.054 168.531 110.81C170.11 108.765 172.58 107.071 175.344 106.152C176.478 105.772 176.887 105.729 177.181 105.966C177.418 106.145 177.555 106.569 177.461 106.827C177.375 107.035 176.751 107.875 175.581 109.332C175.121 109.906 174.224 111.069 173.592 111.916C172.96 112.763 171.948 114.105 171.345 114.894C168.416 118.727 167.102 121.045 166.643 123.22C166.506 123.887 166.506 125.186 166.643 125.724C167.052 127.282 168.265 128.337 170.153 128.768C170.806 128.918 173.046 128.933 173.678 128.789C174.331 128.646 175.616 128.222 176.184 127.964C177.296 127.454 179.565 125.94 181.001 124.756C182.638 123.399 184.461 121.389 185.595 119.703C186.744 117.98 187.139 117.176 187.139 116.538C187.139 116.021 186.593 115.827 186.328 116.258C185.803 117.098 184.841 118.555 184.497 119.014C182.853 121.224 180.548 123.421 179.048 124.203C176.959 125.294 175.207 125.279 174.461 124.174C174.166 123.736 174.109 123.334 174.252 122.689C174.496 121.633 175.265 120.385 178.998 114.966C182.487 109.906 183.384 108.377 183.872 106.712C184.332 105.126 184.102 103.741 183.284 103.188C182.745 102.829 180.254 102.772 178.775 103.088C177.447 103.375 174.647 104.365 172.616 105.27C172.034 105.528 171.51 105.743 171.453 105.743C171.331 105.743 171.366 104.81 171.539 103.698C171.783 102.133 171.733 101.444 171.309 100.518C171.079 100.023 170.354 99.2982 169.837 99.047C169.119 98.7025 168.71 98.6379 167.167 98.6379C165.961 98.6379 165.731 98.6523 165.702 98.7456ZM158.875 105.528C159.026 105.571 159.248 105.7 159.377 105.815C159.593 106.009 159.607 106.045 159.607 106.511C159.6 106.906 159.535 107.2 159.255 108.004C158.006 111.629 156.613 113.315 154 114.363C153.311 114.643 153.311 114.643 152.299 114.643C151.107 114.643 150.31 114.578 150.31 114.485C150.31 114.377 151.753 111.535 152.292 110.574C153.613 108.227 155.135 106.648 156.951 105.736C157.64 105.384 157.683 105.377 158.135 105.413C158.394 105.435 158.724 105.485 158.875 105.528Z" fill="#7EE4F8"/>
<path d="M136.002 102.657C135.809 102.693 135.629 102.743 135.607 102.765C135.514 102.858 135.586 103.669 135.765 104.552C136.045 105.901 135.995 106.755 135.564 107.947C135.292 108.686 132.8 113.602 131.444 116.078C128.479 121.476 126.189 124.289 123.367 125.976C122.204 126.679 120.941 127.131 120.165 127.131C119.749 127.131 119.634 127.102 119.297 126.894C118.866 126.636 118.485 126.126 118.234 125.48C117.969 124.791 117.911 124.44 117.947 123.593C117.976 122.94 118.026 122.667 118.213 122.121C118.686 120.7 119.806 118.691 122.936 113.602C125.55 109.346 126.239 108.105 126.627 106.949C126.82 106.375 126.842 106.217 126.82 105.679C126.784 104.71 126.411 104.136 125.528 103.691C124.487 103.159 123.504 102.98 121.752 102.994C121.027 103.002 120.417 103.023 120.395 103.045C120.374 103.059 120.28 103.49 120.187 103.999C119.634 106.892 119.67 106.805 118.471 108.722C115.607 113.315 113.108 116.889 111.12 119.272C109.921 120.7 108.191 122.279 106.776 123.212C105.47 124.088 103.697 124.906 102.498 125.193C100.172 125.746 98.3052 124.748 98.0252 122.796C97.9247 122.114 98.0827 121.117 98.4488 120.033C98.7503 119.143 99.662 117.227 99.7913 117.227C99.9851 117.227 102.921 116.94 103.46 116.868C108.291 116.236 111.055 113.94 112.161 109.633C112.355 108.88 112.405 108.542 112.405 108.018C112.405 106.77 112.024 105.765 111.227 104.904C110.459 104.078 109.619 103.612 108.327 103.289C107.466 103.073 105.477 103.059 104.616 103.26C102.562 103.741 100.71 104.839 98.3483 106.985C94.6439 110.351 92.0666 114.858 90.7241 120.342C90.3221 121.985 90.2719 122.373 90.3149 123.284C90.3724 124.44 90.6882 125.531 91.2339 126.471C91.6072 127.095 92.5979 128.05 93.2081 128.373C94.0337 128.803 94.407 128.861 96.4315 128.904C98.578 128.947 99.7482 128.839 101.299 128.445C103 128.021 104.027 127.555 105.728 126.449C107.588 125.236 109.16 123.916 111.12 121.906C111.831 121.181 112.426 120.6 112.441 120.614C112.455 120.629 112.505 121.074 112.548 121.605C112.742 123.995 113.252 125.279 114.48 126.485C115.197 127.189 115.836 127.576 116.877 127.956C118.091 128.394 119.017 128.523 120.84 128.531C122.484 128.531 123.044 128.466 124.358 128.129C127.186 127.404 130.295 125.409 133.296 122.401C136.648 119.035 138.967 114.995 140.877 109.188C141.444 107.473 141.58 106.741 141.523 105.815C141.437 104.365 141.042 103.662 140.044 103.159C139.219 102.743 138.745 102.643 137.496 102.614C136.864 102.607 136.189 102.621 136.002 102.657ZM109.368 105.449C110.079 105.779 110.122 106.626 109.497 108.227C109.102 109.253 108.787 109.863 108.255 110.66C107.078 112.447 105.427 113.753 103.316 114.6C102.677 114.851 102.634 114.858 101.73 114.858C100.538 114.858 100.323 114.822 100.38 114.614C100.409 114.535 100.746 113.818 101.134 113.028C102.132 111.011 103.122 109.554 104.458 108.133C106.037 106.447 107.15 105.593 108.011 105.392C108.478 105.277 109.045 105.305 109.368 105.449Z" fill="#7EE4F8"/>
</g>
</g>
<defs>
<filter id="filter0_f_690_4035" x="-4" y="95" width="341" height="78.9999" filterUnits="userSpaceOnUse" color-interpolation-filters="sRGB">
<feFlood flood-opacity="0" result="BackgroundImageFix"/>
<feBlend mode="normal" in="SourceGraphic" in2="BackgroundImageFix" result="shape"/>
<feGaussianBlur stdDeviation="2" result="effect1_foregroundBlur_690_4035"/>
</filter>
<filter id="filter1_f_690_4035" x="-4" y="112" width="152" height="61.9999" filterUnits="userSpaceOnUse" color-interpolation-filters="sRGB">
<feFlood flood-opacity="0" result="BackgroundImageFix"/>
<feBlend mode="normal" in="SourceGraphic" in2="BackgroundImageFix" result="shape"/>
<feGaussianBlur stdDeviation="2" result="effect1_foregroundBlur_690_4035"/>
</filter>
<filter id="filter2_ddf_690_4035" x="207.367" y="84" width="130.633" height="65.4446" filterUnits="userSpaceOnUse" color-interpolation-filters="sRGB">
<feFlood flood-opacity="0" result="BackgroundImageFix"/>
<feColorMatrix in="SourceAlpha" type="matrix" values="0 0 0 0 0 0 0 0 0 0 0 0 0 0 0 0 0 0 127 0" result="hardAlpha"/>
<feOffset dx="-5" dy="-5"/>
<feGaussianBlur stdDeviation="5"/>
<feComposite in2="hardAlpha" operator="out"/>
<feColorMatrix type="matrix" values="0 0 0 0 0.89749 0 0 0 0 0.956042 0 0 0 0 0.981136 0 0 0 1 0"/>
<feBlend mode="normal" in2="BackgroundImageFix" result="effect1_dropShadow_690_4035"/>
<feColorMatrix in="SourceAlpha" type="matrix" values="0 0 0 0 0 0 0 0 0 0 0 0 0 0 0 0 0 0 127 0" result="hardAlpha"/>
<feOffset dy="4"/>
<feGaussianBlur stdDeviation="2"/>
<feComposite in2="hardAlpha" operator="out"/>
<feColorMatrix type="matrix" values="0 0 0 0 0.912354 0 0 0 0 0.912354 0 0 0 0 0.912354 0 0 0 1 0"/>
<feBlend mode="normal" in2="effect1_dropShadow_690_4035" result="effect2_dropShadow_690_4035"/>
<feBlend mode="normal" in="SourceGraphic" in2="effect2_dropShadow_690_4035" result="shape"/>
<feGaussianBlur stdDeviation="2" result="effect3_foregroundBlur_690_4035"/>
</filter>
<filter id="filter3_i_690_4035" x="23" y="48.0001" width="295" height="123.536" filterUnits="userSpaceOnUse" color-interpolation-filters="sRGB">
<feFlood flood-opacity="0" result="BackgroundImageFix"/>
<feBlend mode="normal" in="SourceGraphic" in2="BackgroundImageFix" result="shape"/>
<feColorMatrix in="SourceAlpha" type="matrix" values="0 0 0 0 0 0 0 0 0 0 0 0 0 0 0 0 0 0 127 0" result="hardAlpha"/>
<feOffset dx="1" dy="5"/>
<feGaussianBlur stdDeviation="2"/>
<feComposite in2="hardAlpha" operator="arithmetic" k2="-1" k3="1"/>
<feColorMatrix type="matrix" values="0 0 0 0 0.46 0 0 0 0 0.665417 0 0 0 0 0.8 0 0 0 0.8 0"/>
<feBlend mode="normal" in2="shape" result="effect1_innerShadow_690_4035"/>
</filter>
<clipPath id="clip0_690_4035">
<rect width="342" height="202" fill="white"/>
</clipPath>
</defs>
</svg>
