<svg width="1080" height="720" viewBox="0 0 1080 720" fill="none" xmlns="http://www.w3.org/2000/svg">
<g clip-path="url(#clip0_693_11100)">
<g filter="url(#filter0_d_693_11100)">
<path d="M208.402 441.851L133.146 363.622L973.991 369.797L934.916 414.326L879.921 453.44L853.147 484.316L823.478 488.933C818.172 495.108 771.378 562.346 771.378 562.346C771.378 562.346 714.212 609.378 720.724 605.571L667.9 636.446L620.141 669.567L561.528 719.999L544.161 708.41L528.965 692.474L507.257 669.567L429.106 622.937L374.835 562.346L337.206 536.016L288.724 500.523L248.925 478.792L208.402 441.851Z" fill="#412504"/>
<path d="M558.634 691.61L561.528 720L617.97 670.16L668.624 636.093L718.553 606.441L770.654 562.91L830.714 496.037L853.146 483.419L879.92 452.506L939.981 417.948L973.991 367.968H562.975L558.634 691.61Z" fill="#AD5E00"/>
</g>
<path opacity="0.5" fill-rule="evenodd" clip-rule="evenodd" d="M171.382 146.318C161.455 146.318 153.407 154.365 153.407 164.292C153.407 174.219 161.455 182.267 171.382 182.267L221.286 182.267C223.035 190.363 230.237 196.429 238.855 196.429L316.087 196.429C326.014 196.429 334.061 188.382 334.061 178.454C334.061 168.527 326.014 160.48 316.087 160.48L266.183 160.48C264.434 152.384 257.232 146.318 248.613 146.318L171.382 146.318Z" fill="white"/>
<rect x="137.488" y="128.934" width="113.18" height="35.949" rx="17.9745" fill="#70C7EC" fill-opacity="0.31"/>
<path opacity="0.5" fill-rule="evenodd" clip-rule="evenodd" d="M546.193 97.1266L504.454 97.1266C486.419 97.1266 471.8 82.5067 471.8 64.4721C471.8 46.4375 486.419 31.8176 504.454 31.8176L543.746 31.8176C544.19 14.1698 558.635 2.80352e-08 576.39 3.37674e-08L713.503 7.80351e-08C731.538 8.38577e-08 746.158 14.6199 746.158 32.6545C746.158 42.2944 741.981 50.9587 735.338 56.9361C741.981 62.9135 746.158 71.5779 746.158 81.218C746.158 99.2526 731.538 113.873 713.504 113.873L574.717 113.873C562.458 113.873 551.777 107.118 546.193 97.1266Z" fill="white"/>
<path opacity="0.5" fill-rule="evenodd" clip-rule="evenodd" d="M745.121 124.76C740.49 128.762 734.455 131.182 727.854 131.182L616.898 131.182C602.303 131.182 590.473 119.351 590.473 104.757C590.473 90.1624 602.303 78.3315 616.898 78.3315L663.516 78.3315C668.148 74.3302 674.183 71.9102 680.784 71.9102L793.094 71.9102C807.688 71.9102 819.519 83.7411 819.519 98.3352C819.519 112.929 807.688 124.76 793.094 124.76L745.121 124.76ZM898.485 159.222C898.485 152.748 903.733 147.499 910.208 147.499L959.373 147.499C965.847 147.499 971.096 152.748 971.096 159.222C971.096 165.697 965.847 170.945 959.373 170.945L910.208 170.945C903.733 170.945 898.485 165.697 898.485 159.222Z" fill="#0081C9" fill-opacity="0.41"/>
<path opacity="0.5" fill-rule="evenodd" clip-rule="evenodd" d="M74.3934 363.685L32.6545 363.685C14.6199 363.685 -2.6611e-08 349.065 -2.07942e-08 331.031C-1.49775e-08 312.996 14.6199 298.376 32.6545 298.376L71.9456 298.376C72.3896 280.728 86.8349 266.559 104.59 266.559L241.703 266.559C259.738 266.559 274.358 281.179 274.358 299.213C274.358 308.853 270.181 317.517 263.538 323.495C270.181 329.472 274.358 338.136 274.358 347.777C274.358 365.811 259.739 380.431 241.704 380.431L102.917 380.431C90.6586 380.431 79.9775 373.676 74.3934 363.685Z" fill="white"/>
<path opacity="0.5" fill-rule="evenodd" clip-rule="evenodd" d="M940.655 160.766L921.163 160.766C912.537 160.766 905.544 153.773 905.544 145.147C905.544 136.521 912.537 129.528 921.163 129.528L940.005 129.528C940.178 121.232 946.958 114.56 955.295 114.56L1020.93 114.56C1029.37 114.56 1036.22 121.407 1036.22 129.854C1036.22 134.87 1033.81 139.323 1030.07 142.112C1033.06 144.903 1034.92 148.874 1034.92 153.281C1034.92 161.728 1028.07 168.575 1019.63 168.575L953.995 168.575C948.267 168.575 943.275 165.426 940.655 160.766Z" fill="white"/>
<path opacity="0.5" fill-rule="evenodd" clip-rule="evenodd" d="M932.619 413.148L902.56 413.148C889.257 413.148 878.473 402.364 878.473 389.061C878.473 375.759 889.258 364.974 902.56 364.974L931.617 364.974C931.884 352.18 942.339 341.891 955.197 341.891L1056.41 341.891C1069.44 341.891 1080 352.451 1080 365.476C1080 373.213 1076.27 380.08 1070.52 384.381C1075.12 388.685 1078 394.811 1078 401.608C1078 414.633 1067.44 425.193 1054.41 425.193L953.193 425.193C944.359 425.193 936.66 420.337 932.619 413.148Z" fill="white"/>
<path opacity="0.5" fill-rule="evenodd" clip-rule="evenodd" d="M776.327 270.905C770.396 270.905 765.589 275.713 765.589 281.643C765.589 287.574 770.396 292.381 776.327 292.381L806.139 292.381C807.184 297.218 811.486 300.841 816.635 300.841L862.773 300.841C868.704 300.841 873.512 296.034 873.512 290.103C873.512 284.173 868.704 279.365 862.773 279.365L832.961 279.365C831.916 274.529 827.614 270.905 822.465 270.905L776.327 270.905Z" fill="white"/>
<rect x="826.373" y="283.943" width="67.6143" height="21.476" rx="10.738" fill="#04D1C3" fill-opacity="0.2"/>
<path opacity="0.5" fill-rule="evenodd" clip-rule="evenodd" d="M254.965 505.974L241.971 505.974C236.22 505.974 231.558 501.312 231.558 495.561C231.558 489.811 236.22 485.149 241.971 485.149L254.532 485.149C254.647 479.618 259.167 475.17 264.725 475.17L308.481 475.17C314.112 475.17 318.676 479.735 318.676 485.366C318.676 488.711 317.066 491.679 314.578 493.538C316.567 495.399 317.81 498.047 317.81 500.985C317.81 506.616 313.245 511.181 307.614 511.181L263.859 511.181C260.04 511.181 256.712 509.082 254.965 505.974Z" fill="white"/>
<path d="M974.715 329.576L768.846 426.68L730.132 444.941L655.599 480.096L594.092 509.108L577.087 517.129L560.082 525.149V572.956L974.715 367.242V329.576Z" fill="#B1F492"/>
<path d="M560.082 525.149L429.83 465.685L279.318 396.97L264.122 390.032L253.267 385.077L131.699 329.576V362.896L560.082 572.956V525.149Z" fill="#6AE5AE"/>
<path d="M475.958 136.901L406.674 175.678L460.946 206.68L465.999 204.297L535.479 171.525L483.913 141.528L475.958 136.901Z" fill="#97BC6D"/>
<path d="M350.232 207.267L283.465 244.636L350.232 284.667L415.358 244.636L350.232 207.267Z" fill="#97BC6D"/>
<path d="M601.328 449.093L655.599 480.096L730.132 444.941L672.243 412.876L601.328 449.093Z" fill="#97BC6D"/>
<path d="M185.247 299.607L164.986 310.947L279.318 368.149L294.461 375.726L314.945 366.067L185.247 299.607Z" fill="#ECF2F9"/>
<path d="M467.44 444.208L314.945 366.067L294.461 375.726L305.368 381.182L450.581 453.835L467.44 444.208Z" fill="#ECF2F9"/>
<path d="M467.44 444.208L450.581 453.835L560.082 508.621V491.68L467.44 444.208Z" fill="#ECF2F9"/>
<path d="M577.087 517.129L594.092 509.108L560.082 491.68V508.621L577.087 517.129Z" fill="#ECF2F9"/>
<path d="M264.122 390.032L294.461 375.726L279.318 368.149L253.267 385.077L264.122 390.032Z" fill="#ECF2F9"/>
<path fill-rule="evenodd" clip-rule="evenodd" d="M340.102 354.204L314.945 366.067L467.44 444.208L500.745 425.19L340.102 354.204ZM305.368 381.182L279.318 396.97L429.83 465.685L450.581 453.835L305.368 381.182Z" fill="#97BC6D"/>
<path d="M294.461 375.726L264.122 390.032L279.318 396.97L305.368 381.182L294.461 375.726Z" fill="#ECF2F9"/>
<path d="M807.559 408.42L753.288 377.417L824.203 341.2L829.782 344.22L846.635 295.532L759.046 283.908L756.906 285.131L753.738 283.204L675.403 272.808L655.599 270.18L622.313 359.275L768.846 426.68L807.559 408.42Z" fill="#8698AB"/>
<path fill-rule="evenodd" clip-rule="evenodd" d="M882.816 372.923L807.559 408.42L829.782 344.22L882.816 372.923Z" fill="#97BC6D"/>
<path d="M753.288 377.417L807.559 408.42L829.782 344.22L824.203 341.2L753.288 377.417Z" fill="#8698AB"/>
<path fill-rule="evenodd" clip-rule="evenodd" d="M253.267 385.077L131.699 329.576L164.986 310.947L279.318 368.149L253.267 385.077ZM283.465 244.636L185.247 299.607L314.945 366.067L340.102 354.204L500.745 425.19L467.44 444.208L560.082 491.68V270.18H447.197L465.999 204.297L460.946 206.68L406.674 175.678L350.232 207.267L415.358 244.636L350.232 284.667L283.465 244.636ZM483.913 141.528L486.996 130.723L560.082 142.44V89.8184L486.996 130.723L475.958 136.901L483.913 141.528ZM560.082 508.621L450.581 453.835L429.83 465.685L560.082 525.149V508.621Z" fill="#97BC6D"/>
<path fill-rule="evenodd" clip-rule="evenodd" d="M560.082 142.44V89.8184L685.991 162.624L560.082 142.44ZM560.082 270.18V491.68L594.092 509.108L655.599 480.096L601.328 449.093L672.243 412.876L730.132 444.941L768.846 426.68L622.313 359.275L655.599 270.18H560.082ZM675.403 272.808L753.738 283.204L683.667 240.593L675.403 272.808ZM846.635 295.532L759.046 283.908L827.821 244.636L974.715 329.576L882.816 372.923L829.782 344.22L846.635 295.532ZM560.082 508.621V525.149L577.087 517.129L560.082 508.621Z" fill="#97BC6D"/>
<path d="M447.197 270.18H560.082V142.44L486.996 130.723L483.913 141.528L535.479 171.525L465.999 204.297L447.197 270.18Z" fill="#E8E5D8"/>
<path fill-rule="evenodd" clip-rule="evenodd" d="M701.384 171.525L827.821 244.636L759.046 283.908L756.906 285.131L753.738 283.204L683.667 240.593L701.384 171.525Z" fill="#97BC6D"/>
<path d="M704.29 173.181L681.397 160.909L619.452 151.363L560.2 196.363V269.999H670.624L704.29 173.181Z" fill="#E5E2D7"/>
<path d="M347.482 245.497L315.498 309.877V323.797L518.951 442.987L494.955 458.509L510.955 466.477L601.576 409.057L635.337 318.577L468.31 302.917L438.103 375.997L393.681 349.897L440.768 229.836L416.78 207.216L464.756 164.586V146.316L347.482 245.497Z" fill="#ECF2F9"/>
<g filter="url(#filter1_di_693_11100)">
<path d="M454.144 339.855L452.524 372.473L456.579 372.674L458.199 340.057L454.144 339.855Z" fill="#5C5858"/>
<path d="M576.216 378.628L580.272 378.83L581.892 346.212L577.836 346.01L576.216 378.628Z" fill="#5C5858"/>
<path d="M622.496 326.774L623.863 299.253L620.547 300.894L618.441 326.572L622.496 326.774Z" fill="#5C5858"/>
<path d="M623.863 299.253L505.239 293.35L471.022 306.975L454.144 339.855L458.199 340.057L577.836 346.01L581.892 346.212L595.729 313.18L620.547 300.894L623.863 299.253Z" fill="#EBC986"/>
</g>
<g filter="url(#filter2_d_693_11100)">
<path d="M470.905 136.168L442.855 132.73L464.036 84.0229L490.368 85.742L470.905 136.168Z" fill="#B2BEC4"/>
<path d="M490.369 104.652L470.905 151.64V136.169L490.369 85.7422V104.652Z" fill="#948C8C"/>
<path d="M499.528 155.651L470.905 151.64L490.369 103.506L518.419 105.225L499.528 155.651Z" fill="#B2BEC4"/>
<g filter="url(#filter3_d_693_11100)">
<path d="M493.804 96.6304C489.988 104.872 477.775 134.583 477.775 134.583L495.521 136.742L510.978 96.6304H493.804Z" fill="#7EC6C3"/>
<path d="M495.521 136.742L477.775 134.583V147.203L495.521 149.349V136.742Z" fill="#81898A"/>
<path d="M510.978 96.6304L495.521 136.742V149.349L510.978 109.235V96.6304Z" fill="#929FA1"/>
</g>
<g filter="url(#filter4_d_693_11100)">
<path fill-rule="evenodd" clip-rule="evenodd" d="M498.382 136.741L527.005 140.179L545.896 90.326L519.563 88.6069L498.382 136.741Z" fill="#B9BEC1"/>
<path d="M545.896 90.326L527.005 140.179V265.099L531.181 253.066V140.179L545.896 99.4944V90.326Z" fill="#6D7170"/>
<path d="M531.181 140.179V253.066L535.592 240.355V190.267V140.179L545.896 109.236V99.4944L531.181 140.179Z" fill="#759B9B"/>
<path fill-rule="evenodd" clip-rule="evenodd" d="M545.896 210.662L535.592 240.355V190.267V140.179L545.896 109.236V210.662ZM539.014 131.401L536.318 140.179V153.891L539.014 145.195V131.401Z" fill="#ABACAD"/>
<path d="M536.318 140.179L539.014 131.401V145.195L536.318 153.891V140.179Z" fill="#6D938F"/>
<path d="M536.318 158.771L539.014 149.993V163.786L536.318 172.482V158.771Z" fill="#6D938F"/>
<path d="M536.318 177.063L539.014 168.284V182.078L536.318 190.774V177.063Z" fill="#6D938F"/>
<path d="M539.913 130.584L542.609 121.805V135.599L539.913 144.295V130.584Z" fill="#6D938F"/>
<path d="M539.913 149.175L542.609 140.397V154.191L539.913 162.887V149.175Z" fill="#6D938F"/>
<path d="M539.913 167.467L542.609 158.689V172.482L539.913 181.178V167.467Z" fill="#6D938F"/>
<path d="M543.2 120.688L545.896 111.91V125.704L543.2 134.4V120.688Z" fill="#6D938F"/>
<path d="M543.2 139.28L545.896 130.501V144.295L543.2 152.991V139.28Z" fill="#6D938F"/>
<path d="M543.2 157.571L545.896 148.793V162.587L543.2 171.283V157.571Z" fill="#6D938F"/>
</g>
<path d="M545.904 165.586H665.729V201.27H545.904V165.586Z" fill="#D0B2A0"/>
<path d="M599.826 180.279V165.586H665.73V180.279H599.826Z" fill="#759B9B"/>
<path d="M599.826 185.677V180.279H665.73V185.677H599.826Z" fill="#9EBFB8"/>
<path fill-rule="evenodd" clip-rule="evenodd" d="M589.342 188.376H572.866V201.27H589.342V188.376Z" fill="#938E8E"/>
<path d="M589.342 188.376V201.27H599.826V165.586H589.342V188.376Z" fill="#605C5C"/>
<path d="M545.904 138.598C598.694 137.257 624.883 143.268 665.729 165.586H545.904V138.598Z" fill="#959698"/>
<path d="M461.314 99.884L464.888 91.9228L482.059 92.2228L479.057 100.194L461.314 99.884Z" fill="url(#paint0_linear_693_11100)"/>
<path d="M461.314 99.884L464.888 91.9228L482.059 92.2228L479.057 100.194L461.314 99.884Z" fill="url(#paint1_linear_693_11100)"/>
<path d="M456.515 112.408L460.089 104.447L477.26 104.747L474.259 112.718L456.515 112.408Z" fill="url(#paint2_linear_693_11100)"/>
<path d="M450.573 124.913L454.147 116.952L471.318 117.252L468.316 125.223L450.573 124.913Z" fill="url(#paint3_linear_693_11100)"/>
<path d="M517.275 104.653L520.71 96.6304H537.883L535.021 104.653H517.275Z" fill="url(#paint4_linear_693_11100)"/>
<path d="M512.694 117.26L516.129 109.237H533.303L530.44 117.26H512.694Z" fill="url(#paint5_linear_693_11100)"/>
<path d="M506.97 129.865L510.405 121.843H527.578L524.716 129.865H506.97Z" fill="url(#paint6_linear_693_11100)"/>
<path d="M499.528 155.652L470.905 151.641V258.797L498.574 261.542L499.528 155.652Z" fill="#4A6A67"/>
<g filter="url(#filter5_d_693_11100)">
<path d="M470.73 166.192C481.225 173.298 488.362 173.461 499.996 169.63L499.996 177.653C488.162 180.654 481.08 179.834 470.801 173.641L470.73 166.192Z" fill="#858488"/>
<path d="M470.73 166.192C481.225 173.298 488.362 173.461 499.996 169.63L470.73 166.192Z" fill="#343435"/>
</g>
<g filter="url(#filter6_d_693_11100)">
<path d="M470.802 187.967C481.663 195.126 489.546 195.325 501.532 191.545L500.869 199.223C488.673 202.172 481.47 201.417 470.835 195.172L470.802 187.967Z" fill="#858488"/>
<path d="M470.802 187.967C481.663 195.126 489.546 195.325 501.532 191.545L470.802 187.967Z" fill="#343435"/>
</g>
<g filter="url(#filter7_d_693_11100)">
<path d="M470.824 208.444C481.823 215.623 489.274 215.832 501.393 212.071L501.444 220.101C489.112 223.03 481.714 222.164 470.945 215.9L470.824 208.444Z" fill="#858488"/>
<path d="M470.824 208.444C481.823 215.623 489.274 215.832 501.393 212.071L470.824 208.444Z" fill="#343435"/>
</g>
<g filter="url(#filter8_d_693_11100)">
<path d="M471.876 231.517C482.784 238.683 490.178 238.884 502.209 235.111L502.251 243.139C490.009 246.081 482.668 245.224 471.988 238.973L471.876 231.517Z" fill="#858488"/>
<path d="M471.876 231.517C482.784 238.683 490.178 238.884 502.209 235.111L471.876 231.517Z" fill="#343435"/>
</g>
<g filter="url(#filter9_i_693_11100)">
<path d="M470.905 136.169L442.855 132.73L447.435 255.931L470.905 258.796V136.169Z" fill="#759B9B"/>
</g>
<path d="M470.906 140.753L444 137.888L444.344 142.472L470.906 145.911V140.753Z" fill="#525050"/>
<path d="M470.906 160.236L444 157.371L444.344 161.955L470.906 165.393V160.236Z" fill="#525050"/>
<path d="M470.906 179.719L445.718 177.427V181.438L470.906 184.876V179.719Z" fill="#525050"/>
<path d="M470.906 199.202L445.718 196.336V200.921L470.906 204.359V199.202Z" fill="#525050"/>
<path d="M470.905 218.684L446.29 215.819V220.403L470.905 223.841V218.684Z" fill="#525050"/>
<path d="M470.905 238.168L446.603 235.303L447.434 239.887L470.905 243.325V238.168Z" fill="#525050"/>
<g filter="url(#filter10_i_693_11100)">
<path d="M527.005 140.242L498.382 136.741V261.542L527.005 265.099V140.242Z" fill="#899095"/>
</g>
<path d="M442.855 132.73L447.435 133.303L452.014 256.504L447.435 255.931L442.855 132.73Z" fill="#A8B0B8"/>
<path d="M466.898 135.688L470.905 136.168V258.797L466.898 258.326V135.688Z" fill="#A8B0B8"/>
<g filter="url(#filter11_i_693_11100)">
<path d="M540.745 203.213H542.462H567.65L572.803 188.314H545.897L540.745 203.213Z" fill="#9F9A9A"/>
<path fill-rule="evenodd" clip-rule="evenodd" d="M542.462 203.213L532.158 256.505H557.919L567.65 203.213H542.462Z" fill="#D9D9D9"/>
<path d="M540.745 203.213L531.013 256.505H532.158L542.462 203.213H540.745Z" fill="#7B7A7A"/>
<path d="M540.745 203.213L531.013 256.505H532.158L542.462 203.213H540.745Z" fill="#7B7A7A"/>
<path d="M540.745 203.213L531.013 256.505H532.158L542.462 203.213H540.745Z" fill="#7B7A7A"/>
</g>
<path d="M565.36 206.651L541.889 206.078L541.317 208.943L564.787 209.516L565.36 206.651Z" fill="#969191"/>
<path d="M564.215 212.955L540.744 212.382L540.172 215.247L563.642 215.82L564.215 212.955Z" fill="#969191"/>
<path d="M564.215 212.955L540.744 212.382L540.172 215.247L563.642 215.82L564.215 212.955Z" fill="#969191"/>
<path d="M563.07 218.685L539.6 218.112L539.027 220.977L562.498 221.55L563.07 218.685Z" fill="#969191"/>
<path d="M565.933 203.213L556.201 255.932H557.828L567.078 203.213H565.933Z" fill="#908585"/>
<path d="M563.07 224.415L538.482 223.842L537.882 226.707L562.47 227.28L563.07 224.415Z" fill="#969191"/>
<path d="M559.635 238.167L535.832 237.594L535.225 240.459L559.076 241.032L559.635 238.167Z" fill="#969191"/>
<path d="M558.49 245.044L534.447 244.471L533.875 247.336L557.918 247.909L558.49 245.044Z" fill="#969191"/>
<path d="M557.346 251.92L533.131 251.347L532.627 254.212L556.773 254.785L557.346 251.92Z" fill="#969191"/>
<path d="M560.781 231.291L537.081 230.718L536.577 233.583L560.208 234.156L560.781 231.291Z" fill="#969191"/>
<path d="M566.445 203.213L556.201 255.932H557.914L567.65 203.213H566.445Z" fill="#908585"/>
<path d="M520.941 151.779C519.647 151.77 518.873 150.801 518.885 149.11C518.897 147.422 519.692 146.461 520.979 146.47C522.265 146.479 523.046 147.452 523.034 149.139C523.022 150.838 522.231 151.788 520.941 151.779ZM519.983 149.117C519.967 150.309 520.348 150.89 520.947 150.894C521.546 150.898 521.931 150.323 521.936 149.132C521.948 147.951 521.568 147.356 520.972 147.348C520.377 147.347 519.991 147.937 519.983 149.117Z" fill="#7E0B0B"/>
<path d="M516.122 151.744C514.828 151.735 514.055 150.766 514.067 149.075C514.079 147.387 514.874 146.426 516.16 146.435C517.447 146.445 518.228 147.417 518.216 149.105C518.204 150.803 517.413 151.754 516.122 151.744ZM515.165 149.083C515.149 150.274 515.53 150.855 516.129 150.859C516.727 150.864 517.113 150.289 517.118 149.097C517.13 147.916 516.749 147.321 516.154 147.313C515.559 147.312 515.173 147.902 515.165 149.083Z" fill="#7E0B0B"/>
<path d="M513.035 146.519L512.844 151.682L511.769 151.642L511.922 147.499L511.893 147.498L510.683 148.196L510.718 147.248L512.023 146.482L513.035 146.519Z" fill="#7E0B0B"/>
<g filter="url(#filter12_i_693_11100)">
<ellipse cx="613.679" cy="232.455" rx="46.2057" ry="27.8873" fill="#D2D1D1"/>
<ellipse cx="614.359" cy="232.455" rx="36.0133" ry="19.7251" fill="#7A0707"/>
<ellipse cx="615.038" cy="231.775" rx="29.8978" ry="14.9639" fill="#989794"/>
</g>
<path d="M572.866 188.376V185.377H575.861M575.861 185.377V188.376M575.861 185.377H578.557M578.557 185.377V188.376M578.557 185.377H581.253M581.253 185.377V188.376M581.253 185.377H583.949M583.949 185.377V188.376M583.949 185.377H586.346M586.346 185.377V188.376M586.346 185.377H588.443M588.443 185.377V188.376M588.443 185.377H589.342" stroke="#604A4A"/>
<path d="M545.904 188.376V165.586H572.565V188.376H545.904Z" fill="#433D3D"/>
</g>
<g filter="url(#filter13_d_693_11100)">
<path d="M718.835 426.189L721.317 353.143L691.646 352.133L689.165 425.179L718.835 426.189Z" fill="#999A96"/>
<path d="M642.901 416.373L645.136 350.551L653.155 350.824L650.919 416.646L642.901 416.373Z" fill="#7A8989"/>
<path d="M650.593 426.277L653.156 350.823L691.647 352.133L689.165 425.178L689.084 427.587L688.282 427.559L684.272 427.423L685.963 377.655L658.698 376.727L657.008 426.495L650.593 426.277Z" fill="#D9D9D9"/>
<path d="M720.569 259.862L721.932 219.762L713.86 242.002L716.023 242.136L715.721 251.017L715.417 259.958L720.569 259.862Z" fill="#393131"/>
<g filter="url(#filter14_i_693_11100)">
<path fill-rule="evenodd" clip-rule="evenodd" d="M756.621 282.823L757.03 270.782L757.358 261.15L721.299 353.658L720.554 375.62L756.621 282.823Z" fill="#D5C5BD"/>
<path d="M756.621 282.823L720.554 375.62L720.063 390.068L718.836 426.19L726.625 409.579L727.716 377.471L755.749 308.509L756.621 282.823Z" fill="#A27965"/>
<path d="M755.749 308.509L727.716 377.471L780.641 379.272L819.578 272.911L757.03 270.782L756.621 282.823L755.749 308.509Z" fill="#D5B2A1"/>
<path d="M727.716 377.471L726.625 409.579L736.248 409.906L736.848 392.247C747.956 386.339 753.878 387.187 764.112 393.175L763.513 410.834L779.55 411.38L780.641 379.272L727.716 377.471Z" fill="#EFC9B5"/>
</g>
<path fill-rule="evenodd" clip-rule="evenodd" d="M818.678 299.399L819.578 272.91L780.641 379.271L779.55 411.379L785.468 394.443L785.977 379.453C787.476 369.051 788.564 367.337 790.649 366.68L790.163 381.008L818.678 299.399Z" fill="#C5AC7B"/>
<path fill-rule="evenodd" clip-rule="evenodd" d="M818.678 299.399L819.578 272.91L780.641 379.271L779.55 411.379L785.468 394.443L785.977 379.453C787.476 369.051 788.564 367.337 790.649 366.68L790.163 381.008L818.678 299.399Z" fill="#C5AC7B"/>
<path d="M658.699 376.728L658.426 384.755L668.049 385.083L677.344 395.042L685.363 395.315L685.636 387.288L677.617 387.015L668.321 377.056L658.699 376.728Z" fill="#A3B1B4"/>
<path d="M658.153 392.783L657.88 400.81L667.503 401.137L676.799 411.097L684.818 411.37L685.09 403.343L677.071 403.07L667.776 393.11L658.153 392.783Z" fill="#A3B1B4"/>
<path d="M657.609 408.836L657.336 416.863L666.959 417.19L676.254 427.15L684.273 427.423L684.546 419.396L676.527 419.123L667.231 409.163L657.609 408.836Z" fill="#A3B1B4"/>
<path d="M668.321 377.056L666.631 426.823L676.253 427.151L677.944 377.383L668.321 377.056Z" fill="#676161"/>
<g filter="url(#filter15_i_693_11100)">
<path d="M647.1 292.757L676.77 293.767L686.232 275.204L686.791 258.748L693.806 241.307L713.853 241.99L721.932 219.763L678.531 218.286L647.1 292.757Z" fill="#7FDCB0"/>
<path d="M716.259 242.071L710.847 259.567L709.73 292.478L715.386 267.758L715.659 259.731L716.259 242.071Z" fill="#496156"/>
<path d="M647.1 292.757L645.122 351L676.77 293.767L647.1 292.757Z" fill="#63716B"/>
<path d="M710.847 259.567L686.791 258.748L686.232 275.204L685.673 291.659L709.73 292.478L710.847 259.567Z" fill="#565B59"/>
<path d="M713.853 241.99L693.806 241.307L686.791 258.748L710.847 259.567L716.259 242.071L713.853 241.99Z" fill="#64CD9C"/>
<path d="M676.77 293.767L645.122 351L721.302 353.593L757.357 261.15L715.659 259.731L715.386 267.758L709.73 292.478L685.673 291.659L686.232 275.204L676.77 293.767Z" fill="#6AE5AE"/>
</g>
<path d="M808.678 328.802L809.111 316.068C809.815 307.763 811.303 305.456 814.2 301.865L813.795 313.786L808.678 328.802Z" fill="#D9D9D9"/>
<path d="M796.56 363.03L795.828 348.857C798.089 338.362 799.472 335.056 802.135 333.531L802.754 345.514L796.56 363.03Z" fill="#D9D9D9"/>
</g>
<g filter="url(#filter16_d_693_11100)">
<rect x="816.381" y="233.749" width="6.91038" height="32.6102" fill="#93642D"/>
<rect x="816.399" y="221.691" width="6.91038" height="32.6102" fill="#714D22"/>
<rect x="807.573" y="220.991" width="25.009" height="25.0341" rx="12.5045" fill="#83C082"/>
<rect x="808.833" y="205.05" width="22.8866" height="22.9095" rx="11.4433" fill="#66A865"/>
<rect x="810.511" y="192.676" width="19.3553" height="19.3747" rx="9.67764" fill="#83C082"/>
<path fill-rule="evenodd" clip-rule="evenodd" d="M807.65 232.155C807.589 232.654 807.558 233.161 807.558 233.676C807.558 240.582 813.157 246.193 820.063 246.193C826.969 246.193 832.567 240.582 832.567 233.676C832.567 233.161 832.536 232.654 832.476 232.155C831.725 238.345 826.454 243.15 820.063 243.15C813.672 243.15 808.4 238.345 807.65 232.155Z" fill="#679A66"/>
</g>
<g filter="url(#filter17_d_693_11100)">
<rect x="742.571" y="193.185" width="6.91038" height="32.6102" fill="#93642D"/>
<rect x="742.59" y="181.128" width="6.91038" height="32.6102" fill="#714D22"/>
<rect x="733.764" y="180.429" width="25.009" height="25.0341" rx="12.5045" fill="#83C082"/>
<rect x="735.023" y="164.486" width="22.8866" height="22.9095" rx="11.4433" fill="#66A865"/>
<rect x="736.701" y="152.112" width="19.3553" height="19.3747" rx="9.67764" fill="#83C082"/>
<path fill-rule="evenodd" clip-rule="evenodd" d="M733.841 191.59C733.781 192.089 733.75 192.596 733.75 193.111C733.75 200.018 739.348 205.629 746.254 205.629C753.16 205.629 758.759 200.018 758.759 193.111C758.759 192.596 758.728 192.089 758.667 191.59C757.916 197.78 752.645 202.585 746.254 202.585C739.863 202.585 734.592 197.78 733.841 191.59Z" fill="#679A66"/>
</g>
<g filter="url(#filter18_d_693_11100)">
<rect x="775.858" y="210.569" width="6.91038" height="32.6102" fill="#93642D"/>
<rect x="775.877" y="198.512" width="6.91038" height="32.6102" fill="#714D22"/>
<rect x="767.05" y="197.812" width="25.009" height="25.0341" rx="12.5045" fill="#83C082"/>
<rect x="768.31" y="181.871" width="22.8866" height="22.9095" rx="11.4433" fill="#66A865"/>
<rect x="769.988" y="169.497" width="19.3553" height="19.3747" rx="9.67764" fill="#83C082"/>
<path fill-rule="evenodd" clip-rule="evenodd" d="M767.127 208.976C767.067 209.474 767.036 209.982 767.036 210.497C767.036 217.403 772.634 223.014 779.54 223.014C786.446 223.014 792.045 217.403 792.045 210.497C792.045 209.982 792.014 209.474 791.953 208.976C791.203 215.166 785.931 219.971 779.54 219.971C773.149 219.971 767.878 215.166 767.127 208.976Z" fill="#679A66"/>
</g>
<g filter="url(#filter19_d_693_11100)">
<path d="M390.664 161.445H395.814L400.011 201.572H386.401L390.664 161.445Z" fill="#93642D"/>
<path d="M390.627 161.445H395.743L397.968 183.043H388.403L390.627 161.445Z" fill="#714D22"/>
<path d="M408.674 179.377C413.808 179.895 410.407 173.716 407.925 168.22C405.444 162.725 400.075 152.388 391.834 152.388C385.082 152.388 372.286 176.643 375.282 178.926C377.68 180.751 383.307 179.319 387.053 176.445C388.176 178.981 389.873 180.167 392.57 180.37C395.267 180.573 396.84 178.727 398.962 176.445C399.712 177.29 404.196 178.926 408.674 179.377Z" fill="#83C082"/>
<path fill-rule="evenodd" clip-rule="evenodd" d="M407.707 167.605C404.612 161.509 399.263 153.43 391.669 153.43C387.764 153.43 381.997 160.898 377.949 168.258C380.704 167.979 383.975 166.652 386.475 164.734C387.695 167.489 389.7 170.354 392.63 170.574C395.56 170.795 397.746 167.92 399.414 164.734C400.101 165.509 403.681 166.897 407.707 167.605Z" fill="#458244"/>
<path d="M408.674 165.413C413.588 166.99 410.407 159.751 407.925 154.256C405.444 148.761 400.075 138.423 391.834 138.423C385.082 138.423 372.286 162.679 375.282 164.961C377.68 166.787 383.307 162.312 387.053 159.438C388.176 161.974 389.873 166.203 392.57 166.406C395.267 166.609 396.84 161.72 398.962 159.438C399.712 160.284 404.196 163.975 408.674 165.413Z" fill="#66A865"/>
<path fill-rule="evenodd" clip-rule="evenodd" d="M405.391 148.609C406.58 151.144 407.45 152.999 407.31 152.985C403.504 152.602 399.091 150.92 398.454 150.204C397.149 152.688 395.144 154.27 392.852 154.098C390.56 153.926 388.469 152.015 387.514 149.868C384.331 152.302 378.424 153.208 378.839 152.54C379.549 151.397 380.212 150.134 380.843 148.807C384.639 142.721 389.262 137.399 392.559 137.399C396.543 137.399 399.909 139.623 402.656 142.618C402.798 142.975 402.94 143.315 403.084 143.633C403.869 145.366 404.686 147.107 405.391 148.609Z" fill="#458244"/>
<path d="M407.087 148.976C410.646 150.201 407.99 143.884 405.975 139.402C403.96 134.92 399.972 126.518 393.296 126.043C387.054 125.599 375.738 146.447 378.171 148.308C380.118 149.797 385.274 146.862 388.316 144.518C389.228 146.586 390.606 150.035 392.796 150.201C394.986 150.366 396.264 146.379 397.988 144.518C398.596 145.207 403.914 147.885 407.087 148.976Z" fill="#83C082"/>
</g>
<g filter="url(#filter20_d_693_11100)">
<path d="M340.011 184.625H345.161L349.358 224.751H335.748L340.011 184.625Z" fill="#93642D"/>
<path d="M339.974 184.625H345.09L347.314 206.222H337.75L339.974 184.625Z" fill="#714D22"/>
<path d="M358.02 202.557C363.154 203.075 359.753 196.895 357.271 191.4C354.79 185.904 349.421 175.567 341.18 175.567C334.428 175.567 321.632 199.823 324.628 202.105C327.026 203.93 332.653 202.498 336.399 199.624C337.522 202.16 339.219 203.347 341.916 203.549C344.613 203.752 346.186 201.906 348.308 199.624C349.058 200.469 353.542 202.105 358.02 202.557Z" fill="#83C082"/>
<path fill-rule="evenodd" clip-rule="evenodd" d="M357.052 190.784C353.958 184.688 348.609 176.609 341.015 176.609C337.11 176.609 331.343 184.077 327.295 191.436C330.05 191.157 333.321 189.83 335.82 187.913C337.041 190.668 339.046 193.533 341.976 193.753C344.906 193.973 347.092 191.099 348.76 187.913C349.447 188.688 353.026 190.075 357.052 190.784Z" fill="#458244"/>
<path d="M358.02 188.592C362.933 190.17 359.753 182.93 357.271 177.435C354.79 171.94 349.421 161.603 341.18 161.603C334.428 161.603 321.632 185.858 324.628 188.14C327.026 189.966 332.653 185.491 336.399 182.617C337.522 185.153 339.219 189.382 341.916 189.585C344.613 189.788 346.186 184.9 348.308 182.617C349.058 183.463 353.542 187.154 358.02 188.592Z" fill="#66A865"/>
<path fill-rule="evenodd" clip-rule="evenodd" d="M354.736 171.787C355.926 174.321 356.796 176.177 356.656 176.163C352.85 175.78 348.437 174.098 347.8 173.382C346.495 175.866 344.49 177.448 342.198 177.276C339.906 177.104 337.815 175.193 336.86 173.045C333.677 175.479 327.77 176.385 328.185 175.717C328.894 174.576 329.556 173.316 330.186 171.991C333.983 165.903 338.608 160.577 341.906 160.577C345.889 160.577 349.255 162.8 352.002 165.794C352.143 166.151 352.285 166.492 352.43 166.811C353.215 168.543 354.032 170.284 354.736 171.787Z" fill="#458244"/>
<path d="M356.434 172.156C359.992 173.38 357.337 167.063 355.321 162.582C353.306 158.1 349.318 149.697 342.643 149.222C336.4 148.778 325.084 169.626 327.518 171.488C329.465 172.977 334.62 170.041 337.662 167.697C338.575 169.765 339.953 173.215 342.143 173.38C344.333 173.546 345.61 169.559 347.334 167.697C347.943 168.387 353.26 171.064 356.434 172.156Z" fill="#83C082"/>
</g>
<g filter="url(#filter21_d_693_11100)">
<path d="M289.357 213.598H294.507L298.704 253.725H285.094L289.357 213.598Z" fill="#93642D"/>
<path d="M289.321 213.598H294.436L296.661 235.195H287.096L289.321 213.598Z" fill="#714D22"/>
<path d="M307.368 231.53C312.501 232.048 309.1 225.868 306.619 220.373C304.137 214.877 298.768 204.54 290.528 204.54C283.775 204.54 270.979 228.796 273.976 231.078C276.373 232.904 282 231.471 285.746 228.597C286.87 231.133 288.566 232.32 291.263 232.523C293.96 232.725 295.533 230.879 297.656 228.597C298.405 229.442 302.889 231.078 307.368 231.53Z" fill="#83C082"/>
<path fill-rule="evenodd" clip-rule="evenodd" d="M306.399 219.758C303.304 213.661 297.955 205.583 290.362 205.583C286.456 205.583 280.69 213.051 276.642 220.41C279.397 220.131 282.667 218.804 285.166 216.887C286.387 219.641 288.392 222.506 291.322 222.727C294.252 222.947 296.438 220.073 298.106 216.887C298.793 217.662 302.373 219.049 306.399 219.758Z" fill="#458244"/>
<path d="M307.368 217.565C312.281 219.143 309.1 211.904 306.619 206.408C304.137 200.913 298.768 190.576 290.528 190.576C283.775 190.576 270.979 214.831 273.976 217.114C276.373 218.939 282 214.464 285.746 211.591C286.87 214.126 288.566 218.355 291.263 218.558C293.96 218.761 295.533 213.873 297.656 211.591C298.405 212.436 302.889 216.128 307.368 217.565Z" fill="#66A865"/>
<path fill-rule="evenodd" clip-rule="evenodd" d="M304.084 200.76C305.273 203.294 306.143 205.15 306.003 205.136C302.197 204.753 297.784 203.071 297.148 202.355C295.842 204.839 293.838 206.421 291.546 206.249C289.253 206.077 287.162 204.166 286.207 202.018C283.024 204.452 277.118 205.358 277.532 204.69C278.241 203.549 278.904 202.287 279.535 200.961C283.331 194.874 287.955 189.551 291.252 189.551C295.237 189.551 298.603 191.775 301.35 194.77C301.491 195.126 301.633 195.466 301.777 195.784C302.562 197.516 303.379 199.257 304.084 200.76Z" fill="#458244"/>
<path d="M305.78 201.129C309.339 202.354 306.683 196.037 304.668 191.555C302.653 187.073 298.665 178.671 291.99 178.196C285.747 177.752 274.431 198.6 276.864 200.461C278.811 201.95 283.967 199.015 287.009 196.671C287.921 198.739 289.299 202.188 291.489 202.354C293.68 202.519 294.957 198.532 296.681 196.671C297.289 197.36 302.607 200.037 305.78 201.129Z" fill="#83C082"/>
</g>
<g filter="url(#filter22_d_693_11100)">
<path d="M164.895 291.827H170.045L174.242 331.954H160.632L164.895 291.827Z" fill="#93642D"/>
<path d="M164.858 291.827H169.974L172.199 313.424H162.634L164.858 291.827Z" fill="#714D22"/>
<path d="M182.906 309.759C188.039 310.277 184.638 304.097 182.156 298.602C179.675 293.106 174.306 282.769 166.065 282.769C159.313 282.769 146.517 307.025 149.513 309.307C151.911 311.133 157.538 309.7 161.284 306.826C162.407 309.362 164.104 310.549 166.801 310.752C169.498 310.954 171.071 309.108 173.194 306.826C173.943 307.671 178.427 309.307 182.906 309.759Z" fill="#83C082"/>
<path fill-rule="evenodd" clip-rule="evenodd" d="M181.937 297.987C178.842 291.891 173.493 283.812 165.9 283.812C161.994 283.812 156.227 291.28 152.179 298.64C154.934 298.361 158.205 297.034 160.704 295.116C161.925 297.871 163.929 300.736 166.86 300.956C169.79 301.176 171.975 298.302 173.644 295.116C174.331 295.891 177.91 297.278 181.937 297.987Z" fill="#458244"/>
<path d="M182.906 295.794C187.819 297.372 184.638 290.133 182.156 284.637C179.675 279.142 174.306 268.805 166.065 268.805C159.313 268.805 146.517 293.06 149.513 295.343C151.911 297.168 157.538 292.693 161.284 289.82C162.407 292.355 164.104 296.584 166.801 296.787C169.498 296.99 171.071 292.102 173.194 289.82C173.943 290.665 178.427 294.357 182.906 295.794Z" fill="#66A865"/>
<path fill-rule="evenodd" clip-rule="evenodd" d="M179.622 278.989C180.811 281.524 181.681 283.379 181.541 283.365C177.735 282.982 173.322 281.3 172.685 280.584C171.38 283.068 169.375 284.65 167.083 284.478C164.791 284.306 162.7 282.395 161.745 280.248C158.562 282.682 152.656 283.587 153.07 282.919C153.78 281.777 154.443 280.515 155.074 279.189C158.87 273.102 163.493 267.78 166.79 267.78C170.774 267.78 174.141 270.004 176.888 272.999C177.029 273.355 177.171 273.695 177.315 274.013C178.1 275.745 178.917 277.487 179.622 278.989Z" fill="#458244"/>
<path d="M181.318 279.358C184.877 280.583 182.221 274.266 180.206 269.784C178.19 265.302 174.203 256.9 167.527 256.425C161.285 255.981 149.968 276.829 152.402 278.69C154.349 280.179 159.504 277.244 162.546 274.9C163.459 276.968 164.837 280.417 167.027 280.583C169.217 280.748 170.495 276.761 172.218 274.9C172.827 275.589 178.145 278.266 181.318 279.358Z" fill="#83C082"/>
</g>
<g filter="url(#filter23_d_693_11100)">
<path d="M227.127 249.815H232.277L236.473 289.941H222.864L227.127 249.815Z" fill="#93642D"/>
<path d="M227.09 249.815H232.206L234.43 271.412H224.865L227.09 249.815Z" fill="#714D22"/>
<path d="M245.136 267.747C250.27 268.265 246.868 262.085 244.387 256.59C241.905 251.095 236.537 240.757 228.296 240.757C221.543 240.757 208.747 265.013 211.744 267.295C214.141 269.121 219.768 267.688 223.514 264.814C224.638 267.35 226.335 268.537 229.032 268.74C231.728 268.943 233.301 267.097 235.424 264.814C236.173 265.66 240.657 267.295 245.136 267.747Z" fill="#83C082"/>
<path fill-rule="evenodd" clip-rule="evenodd" d="M244.168 255.975C241.073 249.879 235.724 241.8 228.131 241.8C224.225 241.8 218.459 249.268 214.411 256.627C217.166 256.348 220.437 255.021 222.936 253.104C224.157 255.859 226.161 258.723 229.092 258.944C232.022 259.164 234.208 256.29 235.876 253.104C236.563 253.879 240.142 255.266 244.168 255.975Z" fill="#458244"/>
<path d="M245.136 253.783C250.049 255.36 246.868 248.121 244.387 242.626C241.905 237.13 236.537 226.793 228.296 226.793C221.543 226.793 208.747 251.049 211.744 253.331C214.141 255.156 219.768 250.682 223.514 247.808C224.638 250.344 226.335 254.573 229.032 254.776C231.728 254.978 233.301 250.09 235.424 247.808C236.173 248.653 240.657 252.345 245.136 253.783Z" fill="#66A865"/>
<path fill-rule="evenodd" clip-rule="evenodd" d="M241.852 236.977C243.041 239.512 243.911 241.367 243.772 241.353C239.966 240.97 235.553 239.288 234.916 238.573C233.611 241.056 231.606 242.638 229.314 242.466C227.022 242.295 224.93 240.384 223.975 238.236C220.792 240.67 214.886 241.576 215.301 240.908C216.01 239.766 216.672 238.505 217.303 237.18C221.099 231.092 225.724 225.768 229.021 225.768C233.005 225.768 236.371 227.991 239.117 230.985C239.259 231.342 239.401 231.682 239.546 232.002C240.33 233.734 241.147 235.475 241.852 236.977Z" fill="#458244"/>
<path d="M243.549 237.346C247.108 238.57 244.452 232.254 242.437 227.772C240.422 223.29 236.434 214.888 229.758 214.413C223.516 213.969 212.2 234.817 214.633 236.678C216.58 238.167 221.736 235.232 224.778 232.888C225.69 234.956 227.068 238.405 229.258 238.57C231.448 238.736 232.726 234.749 234.45 232.888C235.058 233.577 240.376 236.254 243.549 237.346Z" fill="#83C082"/>
</g>
</g>
<defs>
<filter id="filter0_d_693_11100" x="129.146" y="363.622" width="848.845" height="364.378" filterUnits="userSpaceOnUse" color-interpolation-filters="sRGB">
<feFlood flood-opacity="0" result="BackgroundImageFix"/>
<feColorMatrix in="SourceAlpha" type="matrix" values="0 0 0 0 0 0 0 0 0 0 0 0 0 0 0 0 0 0 127 0" result="hardAlpha"/>
<feOffset dy="4"/>
<feGaussianBlur stdDeviation="2"/>
<feComposite in2="hardAlpha" operator="out"/>
<feColorMatrix type="matrix" values="0 0 0 0 0 0 0 0 0 0 0 0 0 0 0 0 0 0 0.25 0"/>
<feBlend mode="normal" in2="BackgroundImageFix" result="effect1_dropShadow_693_11100"/>
<feBlend mode="normal" in="SourceGraphic" in2="effect1_dropShadow_693_11100" result="shape"/>
</filter>
<filter id="filter1_di_693_11100" x="448.524" y="293.35" width="179.339" height="93.4795" filterUnits="userSpaceOnUse" color-interpolation-filters="sRGB">
<feFlood flood-opacity="0" result="BackgroundImageFix"/>
<feColorMatrix in="SourceAlpha" type="matrix" values="0 0 0 0 0 0 0 0 0 0 0 0 0 0 0 0 0 0 127 0" result="hardAlpha"/>
<feOffset dy="4"/>
<feGaussianBlur stdDeviation="2"/>
<feComposite in2="hardAlpha" operator="out"/>
<feColorMatrix type="matrix" values="0 0 0 0 0 0 0 0 0 0 0 0 0 0 0 0 0 0 0.25 0"/>
<feBlend mode="normal" in2="BackgroundImageFix" result="effect1_dropShadow_693_11100"/>
<feBlend mode="normal" in="SourceGraphic" in2="effect1_dropShadow_693_11100" result="shape"/>
<feColorMatrix in="SourceAlpha" type="matrix" values="0 0 0 0 0 0 0 0 0 0 0 0 0 0 0 0 0 0 127 0" result="hardAlpha"/>
<feOffset dx="10" dy="4"/>
<feGaussianBlur stdDeviation="2"/>
<feComposite in2="hardAlpha" operator="arithmetic" k2="-1" k3="1"/>
<feColorMatrix type="matrix" values="0 0 0 0 0 0 0 0 0 0 0 0 0 0 0 0 0 0 0.25 0"/>
<feBlend mode="normal" in2="shape" result="effect2_innerShadow_693_11100"/>
</filter>
<filter id="filter2_d_693_11100" x="434.955" y="79.1229" width="230.775" height="188.876" filterUnits="userSpaceOnUse" color-interpolation-filters="sRGB">
<feFlood flood-opacity="0" result="BackgroundImageFix"/>
<feColorMatrix in="SourceAlpha" type="matrix" values="0 0 0 0 0 0 0 0 0 0 0 0 0 0 0 0 0 0 127 0" result="hardAlpha"/>
<feOffset dx="-4" dy="-1"/>
<feGaussianBlur stdDeviation="1.95"/>
<feComposite in2="hardAlpha" operator="out"/>
<feColorMatrix type="matrix" values="0 0 0 0 0 0 0 0 0 0 0 0 0 0 0 0 0 0 0.25 0"/>
<feBlend mode="normal" in2="BackgroundImageFix" result="effect1_dropShadow_693_11100"/>
<feBlend mode="normal" in="SourceGraphic" in2="effect1_dropShadow_693_11100" result="shape"/>
</filter>
<filter id="filter3_d_693_11100" x="468.775" y="92.6304" width="42.2023" height="60.7183" filterUnits="userSpaceOnUse" color-interpolation-filters="sRGB">
<feFlood flood-opacity="0" result="BackgroundImageFix"/>
<feColorMatrix in="SourceAlpha" type="matrix" values="0 0 0 0 0 0 0 0 0 0 0 0 0 0 0 0 0 0 127 0" result="hardAlpha"/>
<feOffset dx="-5"/>
<feGaussianBlur stdDeviation="2"/>
<feComposite in2="hardAlpha" operator="out"/>
<feColorMatrix type="matrix" values="0 0 0 0 0 0 0 0 0 0 0 0 0 0 0 0 0 0 0.25 0"/>
<feBlend mode="normal" in2="BackgroundImageFix" result="effect1_dropShadow_693_11100"/>
<feBlend mode="normal" in="SourceGraphic" in2="effect1_dropShadow_693_11100" result="shape"/>
</filter>
<filter id="filter4_d_693_11100" x="495.782" y="87.0069" width="50.7137" height="179.692" filterUnits="userSpaceOnUse" color-interpolation-filters="sRGB">
<feFlood flood-opacity="0" result="BackgroundImageFix"/>
<feColorMatrix in="SourceAlpha" type="matrix" values="0 0 0 0 0 0 0 0 0 0 0 0 0 0 0 0 0 0 127 0" result="hardAlpha"/>
<feOffset dx="-1"/>
<feGaussianBlur stdDeviation="0.8"/>
<feComposite in2="hardAlpha" operator="out"/>
<feColorMatrix type="matrix" values="0 0 0 0 0 0 0 0 0 0 0 0 0 0 0 0 0 0 0.25 0"/>
<feBlend mode="normal" in2="BackgroundImageFix" result="effect1_dropShadow_693_11100"/>
<feBlend mode="normal" in="SourceGraphic" in2="effect1_dropShadow_693_11100" result="shape"/>
</filter>
<filter id="filter5_d_693_11100" x="466.73" y="166.192" width="37.2656" height="21.1445" filterUnits="userSpaceOnUse" color-interpolation-filters="sRGB">
<feFlood flood-opacity="0" result="BackgroundImageFix"/>
<feColorMatrix in="SourceAlpha" type="matrix" values="0 0 0 0 0 0 0 0 0 0 0 0 0 0 0 0 0 0 127 0" result="hardAlpha"/>
<feOffset dy="4"/>
<feGaussianBlur stdDeviation="2"/>
<feComposite in2="hardAlpha" operator="out"/>
<feColorMatrix type="matrix" values="0 0 0 0 0 0 0 0 0 0 0 0 0 0 0 0 0 0 0.25 0"/>
<feBlend mode="normal" in2="BackgroundImageFix" result="effect1_dropShadow_693_11100"/>
<feBlend mode="normal" in="SourceGraphic" in2="effect1_dropShadow_693_11100" result="shape"/>
</filter>
<filter id="filter6_d_693_11100" x="466.802" y="187.967" width="38.7306" height="20.9175" filterUnits="userSpaceOnUse" color-interpolation-filters="sRGB">
<feFlood flood-opacity="0" result="BackgroundImageFix"/>
<feColorMatrix in="SourceAlpha" type="matrix" values="0 0 0 0 0 0 0 0 0 0 0 0 0 0 0 0 0 0 127 0" result="hardAlpha"/>
<feOffset dy="4"/>
<feGaussianBlur stdDeviation="2"/>
<feComposite in2="hardAlpha" operator="out"/>
<feColorMatrix type="matrix" values="0 0 0 0 0 0 0 0 0 0 0 0 0 0 0 0 0 0 0.25 0"/>
<feBlend mode="normal" in2="BackgroundImageFix" result="effect1_dropShadow_693_11100"/>
<feBlend mode="normal" in="SourceGraphic" in2="effect1_dropShadow_693_11100" result="shape"/>
</filter>
<filter id="filter7_d_693_11100" x="466.824" y="208.443" width="38.6207" height="21.271" filterUnits="userSpaceOnUse" color-interpolation-filters="sRGB">
<feFlood flood-opacity="0" result="BackgroundImageFix"/>
<feColorMatrix in="SourceAlpha" type="matrix" values="0 0 0 0 0 0 0 0 0 0 0 0 0 0 0 0 0 0 127 0" result="hardAlpha"/>
<feOffset dy="4"/>
<feGaussianBlur stdDeviation="2"/>
<feComposite in2="hardAlpha" operator="out"/>
<feColorMatrix type="matrix" values="0 0 0 0 0 0 0 0 0 0 0 0 0 0 0 0 0 0 0.25 0"/>
<feBlend mode="normal" in2="BackgroundImageFix" result="effect1_dropShadow_693_11100"/>
<feBlend mode="normal" in="SourceGraphic" in2="effect1_dropShadow_693_11100" result="shape"/>
</filter>
<filter id="filter8_d_693_11100" x="467.876" y="231.517" width="38.3751" height="21.248" filterUnits="userSpaceOnUse" color-interpolation-filters="sRGB">
<feFlood flood-opacity="0" result="BackgroundImageFix"/>
<feColorMatrix in="SourceAlpha" type="matrix" values="0 0 0 0 0 0 0 0 0 0 0 0 0 0 0 0 0 0 127 0" result="hardAlpha"/>
<feOffset dy="4"/>
<feGaussianBlur stdDeviation="2"/>
<feComposite in2="hardAlpha" operator="out"/>
<feColorMatrix type="matrix" values="0 0 0 0 0 0 0 0 0 0 0 0 0 0 0 0 0 0 0.25 0"/>
<feBlend mode="normal" in2="BackgroundImageFix" result="effect1_dropShadow_693_11100"/>
<feBlend mode="normal" in="SourceGraphic" in2="effect1_dropShadow_693_11100" result="shape"/>
</filter>
<filter id="filter9_i_693_11100" x="442.855" y="132.73" width="28.0502" height="127.866" filterUnits="userSpaceOnUse" color-interpolation-filters="sRGB">
<feFlood flood-opacity="0" result="BackgroundImageFix"/>
<feBlend mode="normal" in="SourceGraphic" in2="BackgroundImageFix" result="shape"/>
<feColorMatrix in="SourceAlpha" type="matrix" values="0 0 0 0 0 0 0 0 0 0 0 0 0 0 0 0 0 0 127 0" result="hardAlpha"/>
<feOffset dy="4"/>
<feGaussianBlur stdDeviation="0.9"/>
<feComposite in2="hardAlpha" operator="arithmetic" k2="-1" k3="1"/>
<feColorMatrix type="matrix" values="0 0 0 0 0 0 0 0 0 0 0 0 0 0 0 0 0 0 0.25 0"/>
<feBlend mode="normal" in2="shape" result="effect1_innerShadow_693_11100"/>
</filter>
<filter id="filter10_i_693_11100" x="498.382" y="136.741" width="28.6227" height="130.158" filterUnits="userSpaceOnUse" color-interpolation-filters="sRGB">
<feFlood flood-opacity="0" result="BackgroundImageFix"/>
<feBlend mode="normal" in="SourceGraphic" in2="BackgroundImageFix" result="shape"/>
<feColorMatrix in="SourceAlpha" type="matrix" values="0 0 0 0 0 0 0 0 0 0 0 0 0 0 0 0 0 0 127 0" result="hardAlpha"/>
<feOffset dy="4"/>
<feGaussianBlur stdDeviation="0.9"/>
<feComposite in2="hardAlpha" operator="arithmetic" k2="-1" k3="1"/>
<feColorMatrix type="matrix" values="0 0 0 0 0 0 0 0 0 0 0 0 0 0 0 0 0 0 0.25 0"/>
<feBlend mode="normal" in2="shape" result="effect1_innerShadow_693_11100"/>
</filter>
<filter id="filter11_i_693_11100" x="531.013" y="188.314" width="41.7891" height="72.1904" filterUnits="userSpaceOnUse" color-interpolation-filters="sRGB">
<feFlood flood-opacity="0" result="BackgroundImageFix"/>
<feBlend mode="normal" in="SourceGraphic" in2="BackgroundImageFix" result="shape"/>
<feColorMatrix in="SourceAlpha" type="matrix" values="0 0 0 0 0 0 0 0 0 0 0 0 0 0 0 0 0 0 127 0" result="hardAlpha"/>
<feOffset dy="4"/>
<feGaussianBlur stdDeviation="2"/>
<feComposite in2="hardAlpha" operator="arithmetic" k2="-1" k3="1"/>
<feColorMatrix type="matrix" values="0 0 0 0 0 0 0 0 0 0 0 0 0 0 0 0 0 0 0.25 0"/>
<feBlend mode="normal" in2="shape" result="effect1_innerShadow_693_11100"/>
</filter>
<filter id="filter12_i_693_11100" x="567.474" y="204.568" width="92.4114" height="59.7744" filterUnits="userSpaceOnUse" color-interpolation-filters="sRGB">
<feFlood flood-opacity="0" result="BackgroundImageFix"/>
<feBlend mode="normal" in="SourceGraphic" in2="BackgroundImageFix" result="shape"/>
<feColorMatrix in="SourceAlpha" type="matrix" values="0 0 0 0 0 0 0 0 0 0 0 0 0 0 0 0 0 0 127 0" result="hardAlpha"/>
<feOffset dy="23"/>
<feGaussianBlur stdDeviation="2"/>
<feComposite in2="hardAlpha" operator="arithmetic" k2="-1" k3="1"/>
<feColorMatrix type="matrix" values="0 0 0 0 0 0 0 0 0 0 0 0 0 0 0 0 0 0 0.25 0"/>
<feBlend mode="normal" in2="shape" result="effect1_innerShadow_693_11100"/>
</filter>
<filter id="filter13_d_693_11100" x="637.401" y="210.786" width="185.678" height="218.301" filterUnits="userSpaceOnUse" color-interpolation-filters="sRGB">
<feFlood flood-opacity="0" result="BackgroundImageFix"/>
<feColorMatrix in="SourceAlpha" type="matrix" values="0 0 0 0 0 0 0 0 0 0 0 0 0 0 0 0 0 0 127 0" result="hardAlpha"/>
<feOffset dx="-1" dy="-3"/>
<feGaussianBlur stdDeviation="2.25"/>
<feComposite in2="hardAlpha" operator="out"/>
<feColorMatrix type="matrix" values="0 0 0 0 0 0 0 0 0 0 0 0 0 0 0 0 0 0 0.25 0"/>
<feBlend mode="normal" in2="BackgroundImageFix" result="effect1_dropShadow_693_11100"/>
<feBlend mode="normal" in="SourceGraphic" in2="effect1_dropShadow_693_11100" result="shape"/>
</filter>
<filter id="filter14_i_693_11100" x="718.836" y="261.15" width="100.743" height="173.44" filterUnits="userSpaceOnUse" color-interpolation-filters="sRGB">
<feFlood flood-opacity="0" result="BackgroundImageFix"/>
<feBlend mode="normal" in="SourceGraphic" in2="BackgroundImageFix" result="shape"/>
<feColorMatrix in="SourceAlpha" type="matrix" values="0 0 0 0 0 0 0 0 0 0 0 0 0 0 0 0 0 0 127 0" result="hardAlpha"/>
<feOffset dy="20"/>
<feGaussianBlur stdDeviation="4.2"/>
<feComposite in2="hardAlpha" operator="arithmetic" k2="-1" k3="1"/>
<feColorMatrix type="matrix" values="0 0 0 0 0 0 0 0 0 0 0 0 0 0 0 0 0 0 0.25 0"/>
<feBlend mode="normal" in2="shape" result="effect1_innerShadow_693_11100"/>
</filter>
<filter id="filter15_i_693_11100" x="644.122" y="218.286" width="113.236" height="145.707" filterUnits="userSpaceOnUse" color-interpolation-filters="sRGB">
<feFlood flood-opacity="0" result="BackgroundImageFix"/>
<feBlend mode="normal" in="SourceGraphic" in2="BackgroundImageFix" result="shape"/>
<feColorMatrix in="SourceAlpha" type="matrix" values="0 0 0 0 0 0 0 0 0 0 0 0 0 0 0 0 0 0 127 0" result="hardAlpha"/>
<feOffset dx="-1" dy="24"/>
<feGaussianBlur stdDeviation="5.2"/>
<feComposite in2="hardAlpha" operator="arithmetic" k2="-1" k3="1"/>
<feColorMatrix type="matrix" values="0 0 0 0 0 0 0 0 0 0 0 0 0 0 0 0 0 0 0.25 0"/>
<feBlend mode="normal" in2="shape" result="effect1_innerShadow_693_11100"/>
</filter>
<filter id="filter16_d_693_11100" x="798.858" y="185.976" width="34.4236" height="83.0831" filterUnits="userSpaceOnUse" color-interpolation-filters="sRGB">
<feFlood flood-opacity="0" result="BackgroundImageFix"/>
<feColorMatrix in="SourceAlpha" type="matrix" values="0 0 0 0 0 0 0 0 0 0 0 0 0 0 0 0 0 0 127 0" result="hardAlpha"/>
<feOffset dx="-4" dy="-2"/>
<feGaussianBlur stdDeviation="2.35"/>
<feComposite in2="hardAlpha" operator="out"/>
<feColorMatrix type="matrix" values="0 0 0 0 0 0 0 0 0 0 0 0 0 0 0 0 0 0 0.25 0"/>
<feBlend mode="normal" in2="BackgroundImageFix" result="effect1_dropShadow_693_11100"/>
<feBlend mode="normal" in="SourceGraphic" in2="effect1_dropShadow_693_11100" result="shape"/>
</filter>
<filter id="filter17_d_693_11100" x="725.05" y="145.412" width="34.4237" height="83.0831" filterUnits="userSpaceOnUse" color-interpolation-filters="sRGB">
<feFlood flood-opacity="0" result="BackgroundImageFix"/>
<feColorMatrix in="SourceAlpha" type="matrix" values="0 0 0 0 0 0 0 0 0 0 0 0 0 0 0 0 0 0 127 0" result="hardAlpha"/>
<feOffset dx="-4" dy="-2"/>
<feGaussianBlur stdDeviation="2.35"/>
<feComposite in2="hardAlpha" operator="out"/>
<feColorMatrix type="matrix" values="0 0 0 0 0 0 0 0 0 0 0 0 0 0 0 0 0 0 0.25 0"/>
<feBlend mode="normal" in2="BackgroundImageFix" result="effect1_dropShadow_693_11100"/>
<feBlend mode="normal" in="SourceGraphic" in2="effect1_dropShadow_693_11100" result="shape"/>
</filter>
<filter id="filter18_d_693_11100" x="758.336" y="162.797" width="34.4237" height="83.0826" filterUnits="userSpaceOnUse" color-interpolation-filters="sRGB">
<feFlood flood-opacity="0" result="BackgroundImageFix"/>
<feColorMatrix in="SourceAlpha" type="matrix" values="0 0 0 0 0 0 0 0 0 0 0 0 0 0 0 0 0 0 127 0" result="hardAlpha"/>
<feOffset dx="-4" dy="-2"/>
<feGaussianBlur stdDeviation="2.35"/>
<feComposite in2="hardAlpha" operator="out"/>
<feColorMatrix type="matrix" values="0 0 0 0 0 0 0 0 0 0 0 0 0 0 0 0 0 0 0.25 0"/>
<feBlend mode="normal" in2="BackgroundImageFix" result="effect1_dropShadow_693_11100"/>
<feBlend mode="normal" in="SourceGraphic" in2="effect1_dropShadow_693_11100" result="shape"/>
</filter>
<filter id="filter19_d_693_11100" x="370.835" y="126.036" width="44.5132" height="83.5356" filterUnits="userSpaceOnUse" color-interpolation-filters="sRGB">
<feFlood flood-opacity="0" result="BackgroundImageFix"/>
<feColorMatrix in="SourceAlpha" type="matrix" values="0 0 0 0 0 0 0 0 0 0 0 0 0 0 0 0 0 0 127 0" result="hardAlpha"/>
<feOffset dy="4"/>
<feGaussianBlur stdDeviation="2"/>
<feComposite in2="hardAlpha" operator="out"/>
<feColorMatrix type="matrix" values="0 0 0 0 0 0 0 0 0 0 0 0 0 0 0 0 0 0 0.25 0"/>
<feBlend mode="normal" in2="BackgroundImageFix" result="effect1_dropShadow_693_11100"/>
<feBlend mode="normal" in="SourceGraphic" in2="effect1_dropShadow_693_11100" result="shape"/>
</filter>
<filter id="filter20_d_693_11100" x="320.181" y="149.215" width="44.5132" height="83.5356" filterUnits="userSpaceOnUse" color-interpolation-filters="sRGB">
<feFlood flood-opacity="0" result="BackgroundImageFix"/>
<feColorMatrix in="SourceAlpha" type="matrix" values="0 0 0 0 0 0 0 0 0 0 0 0 0 0 0 0 0 0 127 0" result="hardAlpha"/>
<feOffset dy="4"/>
<feGaussianBlur stdDeviation="2"/>
<feComposite in2="hardAlpha" operator="out"/>
<feColorMatrix type="matrix" values="0 0 0 0 0 0 0 0 0 0 0 0 0 0 0 0 0 0 0.25 0"/>
<feBlend mode="normal" in2="BackgroundImageFix" result="effect1_dropShadow_693_11100"/>
<feBlend mode="normal" in="SourceGraphic" in2="effect1_dropShadow_693_11100" result="shape"/>
</filter>
<filter id="filter21_d_693_11100" x="269.528" y="178.189" width="44.5132" height="83.5356" filterUnits="userSpaceOnUse" color-interpolation-filters="sRGB">
<feFlood flood-opacity="0" result="BackgroundImageFix"/>
<feColorMatrix in="SourceAlpha" type="matrix" values="0 0 0 0 0 0 0 0 0 0 0 0 0 0 0 0 0 0 127 0" result="hardAlpha"/>
<feOffset dy="4"/>
<feGaussianBlur stdDeviation="2"/>
<feComposite in2="hardAlpha" operator="out"/>
<feColorMatrix type="matrix" values="0 0 0 0 0 0 0 0 0 0 0 0 0 0 0 0 0 0 0.25 0"/>
<feBlend mode="normal" in2="BackgroundImageFix" result="effect1_dropShadow_693_11100"/>
<feBlend mode="normal" in="SourceGraphic" in2="effect1_dropShadow_693_11100" result="shape"/>
</filter>
<filter id="filter22_d_693_11100" x="145.066" y="256.418" width="44.5132" height="83.5356" filterUnits="userSpaceOnUse" color-interpolation-filters="sRGB">
<feFlood flood-opacity="0" result="BackgroundImageFix"/>
<feColorMatrix in="SourceAlpha" type="matrix" values="0 0 0 0 0 0 0 0 0 0 0 0 0 0 0 0 0 0 127 0" result="hardAlpha"/>
<feOffset dy="4"/>
<feGaussianBlur stdDeviation="2"/>
<feComposite in2="hardAlpha" operator="out"/>
<feColorMatrix type="matrix" values="0 0 0 0 0 0 0 0 0 0 0 0 0 0 0 0 0 0 0.25 0"/>
<feBlend mode="normal" in2="BackgroundImageFix" result="effect1_dropShadow_693_11100"/>
<feBlend mode="normal" in="SourceGraphic" in2="effect1_dropShadow_693_11100" result="shape"/>
</filter>
<filter id="filter23_d_693_11100" x="207.297" y="214.406" width="44.5132" height="83.5356" filterUnits="userSpaceOnUse" color-interpolation-filters="sRGB">
<feFlood flood-opacity="0" result="BackgroundImageFix"/>
<feColorMatrix in="SourceAlpha" type="matrix" values="0 0 0 0 0 0 0 0 0 0 0 0 0 0 0 0 0 0 127 0" result="hardAlpha"/>
<feOffset dy="4"/>
<feGaussianBlur stdDeviation="2"/>
<feComposite in2="hardAlpha" operator="out"/>
<feColorMatrix type="matrix" values="0 0 0 0 0 0 0 0 0 0 0 0 0 0 0 0 0 0 0.25 0"/>
<feBlend mode="normal" in2="BackgroundImageFix" result="effect1_dropShadow_693_11100"/>
<feBlend mode="normal" in="SourceGraphic" in2="effect1_dropShadow_693_11100" result="shape"/>
</filter>
<linearGradient id="paint0_linear_693_11100" x1="471.756" y1="92.0428" x2="471.616" y2="100.064" gradientUnits="userSpaceOnUse">
<stop stop-color="white"/>
<stop offset="1" stop-color="#C7C9C9"/>
</linearGradient>
<linearGradient id="paint1_linear_693_11100" x1="471.756" y1="92.0428" x2="471.616" y2="100.064" gradientUnits="userSpaceOnUse">
<stop stop-color="white"/>
<stop offset="1" stop-color="#C7C9C9"/>
</linearGradient>
<linearGradient id="paint2_linear_693_11100" x1="466.958" y1="104.567" x2="466.818" y2="112.588" gradientUnits="userSpaceOnUse">
<stop stop-color="white"/>
<stop offset="1" stop-color="#C7C9C9"/>
</linearGradient>
<linearGradient id="paint3_linear_693_11100" x1="461.015" y1="117.072" x2="460.875" y2="125.093" gradientUnits="userSpaceOnUse">
<stop stop-color="white"/>
<stop offset="1" stop-color="#C7C9C9"/>
</linearGradient>
<linearGradient id="paint4_linear_693_11100" x1="527.579" y1="96.6304" x2="527.579" y2="104.653" gradientUnits="userSpaceOnUse">
<stop stop-color="white"/>
<stop offset="1" stop-color="#CFCCCC"/>
</linearGradient>
<linearGradient id="paint5_linear_693_11100" x1="522.998" y1="109.237" x2="522.998" y2="117.26" gradientUnits="userSpaceOnUse">
<stop stop-color="white"/>
<stop offset="1" stop-color="#CFCCCC"/>
</linearGradient>
<linearGradient id="paint6_linear_693_11100" x1="517.274" y1="121.843" x2="517.274" y2="129.865" gradientUnits="userSpaceOnUse">
<stop stop-color="white"/>
<stop offset="1" stop-color="#CFCCCC"/>
</linearGradient>
<clipPath id="clip0_693_11100">
<rect width="1080" height="720" fill="white"/>
</clipPath>
</defs>
</svg>
