<svg width="1080" height="720" viewBox="0 0 1080 720" fill="none" xmlns="http://www.w3.org/2000/svg">
<g clip-path="url(#clip0_693_11102)">
<g filter="url(#filter0_d_693_11102)">
<path d="M222.875 434.381L147.618 354.05L988.463 360.391L949.388 406.116L894.393 446.282L867.619 477.986L837.951 482.728C832.644 489.069 785.85 558.113 785.85 558.113C785.85 558.113 728.684 606.408 735.197 602.499L682.372 634.204L634.614 668.214L576.001 720.001L558.634 708.1L543.438 691.736L521.729 668.214L443.578 620.331L389.307 558.113L351.679 531.075L303.196 494.629L263.397 472.315L222.875 434.381Z" fill="#412504"/>
<path d="M573.106 690.848L576 720L632.442 668.822L683.096 633.839L733.026 603.391L785.126 558.691L845.186 490.022L867.619 477.065L894.393 445.322L954.453 409.835L988.463 358.513H577.447L573.106 690.848Z" fill="#AD5E00"/>
</g>
<path opacity="0.5" fill-rule="evenodd" clip-rule="evenodd" d="M171.864 150.248C161.671 150.248 153.407 158.511 153.407 168.705C153.407 178.899 161.671 187.162 171.864 187.162L221.297 187.162C223.093 195.475 230.488 201.704 239.338 201.704L315.604 201.704C325.798 201.704 334.061 193.441 334.061 183.247C334.061 173.053 325.798 164.79 315.604 164.79L266.171 164.79C264.376 156.477 256.98 150.248 248.13 150.248L171.864 150.248Z" fill="white"/>
<rect x="137.488" y="132.396" width="113.18" height="36.9147" rx="18.4573" fill="#70C7EC" fill-opacity="0.31"/>
<path opacity="0.5" fill-rule="evenodd" clip-rule="evenodd" d="M546.304 99.7347L505.331 99.7347C486.812 99.7347 471.799 84.7221 471.799 66.203C471.799 47.684 486.812 32.6713 505.331 32.6713L543.746 32.6713C544.202 14.5499 559.035 2.81645e-08 577.267 3.40506e-08L712.626 7.77521e-08C731.145 8.37311e-08 746.158 15.0127 746.158 33.5317C746.158 43.4303 741.868 52.3271 735.047 58.4651C741.869 64.603 746.158 73.5 746.158 83.3989C746.158 101.918 731.145 116.931 712.626 116.931L575.594 116.931C563.006 116.931 552.038 109.994 546.304 99.7347Z" fill="white"/>
<path opacity="0.5" fill-rule="evenodd" clip-rule="evenodd" d="M744.876 128.111C740.121 132.22 733.923 134.706 727.144 134.706L617.607 134.706C602.621 134.706 590.473 122.557 590.473 107.571C590.473 92.5846 602.621 80.4359 617.607 80.4359L663.761 80.4359C668.517 76.3267 674.715 73.8413 681.493 73.8413L792.384 73.8413C807.37 73.8413 819.519 85.99 819.519 100.976C819.519 115.962 807.37 128.111 792.384 128.111L744.876 128.111ZM898.485 163.499C898.485 156.851 903.874 151.461 910.523 151.461L959.058 151.461C965.706 151.461 971.096 156.851 971.096 163.499C971.096 170.148 965.706 175.537 959.058 175.537L910.523 175.537C903.874 175.537 898.485 170.148 898.485 163.499Z" fill="#0081C9" fill-opacity="0.41"/>
<path opacity="0.5" fill-rule="evenodd" clip-rule="evenodd" d="M74.5044 373.455L33.5317 373.455C15.0126 373.455 -2.66112e-08 358.443 -2.07945e-08 339.924C-1.49778e-08 321.405 15.0127 306.392 33.5317 306.392L71.9459 306.392C72.4015 288.27 87.2349 273.719 105.467 273.719L240.826 273.719C259.345 273.719 274.358 288.732 274.358 307.251C274.358 317.15 270.068 326.047 263.247 332.185C270.069 338.323 274.359 347.22 274.359 357.12C274.359 375.639 259.346 390.651 240.827 390.651L103.795 390.651C91.2065 390.651 80.2385 383.715 74.5044 373.455Z" fill="white"/>
<path opacity="0.5" fill-rule="evenodd" clip-rule="evenodd" d="M940.707 165.083L921.583 165.083C912.725 165.083 905.544 157.903 905.544 149.045C905.544 140.187 912.725 133.006 921.583 133.006L940.005 133.006C940.183 124.487 947.144 117.636 955.706 117.636L1020.52 117.636C1029.19 117.636 1036.22 124.667 1036.22 133.341C1036.22 138.484 1033.75 143.05 1029.93 145.914C1033 148.781 1034.92 152.865 1034.92 157.399C1034.92 166.072 1027.89 173.103 1019.22 173.103L954.405 173.103C948.524 173.103 943.397 169.87 940.707 165.083Z" fill="white"/>
<path opacity="0.5" fill-rule="evenodd" clip-rule="evenodd" d="M932.701 424.246L903.207 424.246C889.547 424.246 878.473 413.172 878.473 399.512C878.473 385.851 889.547 374.778 903.207 374.778L931.617 374.778C931.891 361.64 942.627 351.074 955.831 351.074L1055.78 351.074C1069.16 351.074 1080 361.917 1080 375.292C1080 383.224 1076.19 390.264 1070.3 394.682C1075.03 399.103 1078 405.402 1078 412.393C1078 425.769 1067.15 436.612 1053.78 436.612L953.826 436.612C944.756 436.612 936.851 431.626 932.701 424.246Z" fill="white"/>
<path opacity="0.5" fill-rule="evenodd" clip-rule="evenodd" d="M776.615 278.182C770.526 278.182 765.589 283.118 765.589 289.208C765.589 295.298 770.526 300.235 776.615 300.235L806.146 300.235C807.218 305.201 811.636 308.923 816.924 308.923L862.485 308.923C868.575 308.923 873.511 303.986 873.511 297.896C873.511 291.806 868.575 286.87 862.485 286.87L832.955 286.87C831.882 281.903 827.464 278.182 822.177 278.182L776.615 278.182Z" fill="white"/>
<rect x="826.373" y="291.57" width="67.6143" height="22.0529" rx="11.0265" fill="#04D1C3" fill-opacity="0.2"/>
<path opacity="0.5" fill-rule="evenodd" clip-rule="evenodd" d="M255 519.565L242.25 519.565C236.345 519.565 231.558 514.778 231.558 508.872C231.558 502.967 236.345 498.18 242.25 498.18L254.532 498.18C254.651 492.501 259.291 487.934 264.999 487.934L308.207 487.934C313.989 487.934 318.676 492.621 318.676 498.404C318.676 501.832 317.028 504.876 314.481 506.786C316.529 508.697 317.81 511.42 317.81 514.442C317.81 520.224 313.122 524.912 307.34 524.912L264.132 524.912C260.211 524.912 256.793 522.756 255 519.565Z" fill="white"/>
<path d="M990.634 319.092L769.207 426.34L746.051 437.555L671.518 473.655L576.001 519.918V569.009L990.634 357.77V319.092Z" fill="#B1F492"/>
<path d="M576.001 519.918L445.749 458.856L280.04 381.172L147.618 319.092V353.307L576.001 569.009V519.918Z" fill="#6AE5AE"/>
<path d="M356.02 344.381L280.04 381.172L445.749 458.856L516.664 417.274L356.02 344.381Z" fill="#D5BEA4"/>
<path fill-rule="evenodd" clip-rule="evenodd" d="M381.573 202.584C365.559 220.059 352.721 238.245 341.25 257.645L366.151 272.976L431.277 231.87L381.573 202.584Z" fill="#D5BEA4"/>
<path d="M299.384 231.87L147.618 319.092L280.04 381.172C287.92 365.179 295.026 350.022 301.796 335.578C315.125 307.145 327.157 281.479 341.25 257.645L299.384 231.87Z" fill="#F5F8FD"/>
<path d="M366.151 193.497L299.384 231.87L341.25 257.645C352.721 238.245 365.559 220.059 381.573 202.584L366.151 193.497Z" fill="#F5F8FD"/>
<path d="M422.593 161.059L366.151 193.497L381.573 202.584C394.04 188.979 408.433 175.806 425.605 162.826L422.593 161.059Z" fill="#F5F8FD"/>
<path d="M990.634 319.092L843.74 231.87C857.226 278.493 830.404 303.233 804.041 327.549C776.593 352.866 749.644 377.723 769.207 426.34L823.478 400.053L769.207 368.218L840.121 331.028L898.735 363.603L990.634 319.092Z" fill="#7FA169"/>
<path d="M769.207 368.218L823.478 400.053L898.735 363.603L840.121 331.028L769.207 368.218Z" fill="#7FA169"/>
<path d="M701.91 147.655L638.955 110.274C650.092 132.515 661.508 149.703 675.037 163.079L701.91 147.655Z" fill="#8BAB5E"/>
<path d="M804.041 208.298L701.91 147.655L675.037 163.079C703.281 191.006 740.729 202.318 804.041 208.298Z" fill="#8BAB5E"/>
<path fill-rule="evenodd" clip-rule="evenodd" d="M457.263 141.134L491.877 121.241L551.398 156.795L530.155 167.084L510.358 176.672L476.865 192.895L425.605 162.826C435.234 155.549 445.736 148.332 457.263 141.134Z" fill="#D5BEA4"/>
<path d="M422.593 161.059L425.605 162.826C435.234 155.549 445.736 148.332 457.263 141.134L422.593 161.059Z" fill="#F5F8FD"/>
<path d="M510.358 176.672C465.31 207.305 448.686 236.354 422.593 293.059H576.001V265.187C568.477 222.584 559.369 200.727 530.155 167.084L510.358 176.672Z" fill="#7AB579"/>
<path fill-rule="evenodd" clip-rule="evenodd" d="M576.001 265.187V72.8936L638.955 110.274C650.092 132.515 661.508 149.703 675.037 163.079L633.89 186.695L723.128 242.419L576.001 304.463V293.059V265.187ZM576.001 413.388V519.918L671.518 473.655L617.247 441.819L619.33 440.727L576.001 413.388Z" fill="#D5BEA4"/>
<path fill-rule="evenodd" clip-rule="evenodd" d="M671.518 473.655L617.247 441.819L619.33 440.727L671.518 473.655Z" fill="#D5BEA4"/>
<path fill-rule="evenodd" clip-rule="evenodd" d="M576.001 304.463V293.059H422.593C448.686 236.354 465.31 207.305 510.358 176.672L476.865 192.895L425.605 162.826C408.433 175.806 394.04 188.979 381.573 202.584L431.277 231.87L366.151 272.976L341.25 257.645C327.157 281.479 315.125 307.145 301.796 335.578C295.026 350.022 287.92 365.179 280.04 381.172L356.02 344.381L516.664 417.274L445.749 458.856L576.001 519.918V413.388L472.523 348.1L576.001 304.463ZM576.001 72.8936V265.187C568.477 222.584 559.369 200.727 530.155 167.084L551.398 156.795L491.877 121.241L576.001 72.8936Z" fill="#D5BEA4"/>
<path fill-rule="evenodd" clip-rule="evenodd" d="M804.041 208.298C740.729 202.318 703.281 191.006 675.037 163.079L633.89 186.695L723.128 242.419L804.041 208.298Z" fill="#D5BEA4"/>
<path d="M843.74 231.87L772.825 273.452L723.128 242.419L576.001 304.463V413.388L619.33 440.727L688.162 404.629L746.051 437.555L769.207 426.34C749.644 377.723 776.593 352.866 804.041 327.549C830.404 303.233 857.226 278.493 843.74 231.87Z" fill="#D5DCE4"/>
<path d="M472.523 348.1L576.001 413.388V304.463L472.523 348.1Z" fill="#D5DCE4"/>
<path d="M671.518 473.655L746.051 437.555L688.162 404.629L619.33 440.727L671.518 473.655Z" fill="#D5DCE4"/>
<path d="M772.825 273.452L843.74 231.87L804.041 208.298L723.128 242.419L772.825 273.452Z" fill="#D5DCE4"/>
<path d="M663.658 102.006H668.475L672.4 140.546H659.671L663.658 102.006Z" fill="#93642D"/>
<path d="M663.623 102.006H668.408L670.489 122.749H661.543L663.623 102.006Z" fill="#714D22"/>
<path fill-rule="evenodd" clip-rule="evenodd" d="M644.737 83.5352C644.737 77.946 649.268 73.415 654.857 73.415C660.447 73.415 664.978 77.946 664.978 83.5352V84.8428C664.978 85.1352 664.965 85.4248 664.941 85.711C669.14 86.9433 672.206 90.825 672.206 95.4229V96.7305C672.206 102.32 667.675 106.851 662.086 106.851C659.063 106.851 656.35 105.525 654.495 103.424C652.641 105.525 649.928 106.851 646.905 106.851C641.316 106.851 636.785 102.32 636.785 96.7304V95.4229C636.785 90.5695 640.201 86.5141 644.76 85.5304C644.745 85.3032 644.737 85.0739 644.737 84.8428V83.5352Z" fill="#66A865"/>
<path fill-rule="evenodd" clip-rule="evenodd" d="M667.459 115.588C664.046 119.808 657.934 120.371 653.808 116.844C649.682 113.318 649.104 107.039 652.518 102.819L653.024 102.194C653.246 101.919 653.48 101.66 653.724 101.416C651.365 97.8348 651.468 92.9597 654.28 89.4828L654.786 88.8574C658.199 84.6376 664.311 84.0752 668.437 87.6013C670.668 89.5081 671.862 92.2199 671.948 94.9759C674.6 94.5592 677.412 95.2703 679.644 97.1774C683.77 100.704 684.348 106.983 680.934 111.203L680.428 111.828C677.461 115.497 672.454 116.401 668.486 114.258C668.324 114.498 668.15 114.734 667.965 114.963L667.459 115.588Z" fill="#66A865"/>
<path fill-rule="evenodd" clip-rule="evenodd" d="M665.065 80.1814C665.065 74.53 669.646 69.9487 675.298 69.9487C680.949 69.9487 685.53 74.53 685.53 80.1814V81.5035C685.53 81.7997 685.518 82.093 685.493 82.3828C689.739 83.6286 692.84 87.5537 692.84 92.2029V93.5249C692.84 99.1763 688.258 103.758 682.607 103.758C679.551 103.758 676.807 102.418 674.932 100.293C673.057 102.417 670.314 103.757 667.258 103.757C661.606 103.757 657.025 99.176 657.025 93.5247V92.2026C657.025 87.2956 660.479 83.1953 665.088 82.2004C665.073 81.9701 665.065 81.7377 665.065 81.5035V80.1814Z" fill="#66A865"/>
<path fill-rule="evenodd" clip-rule="evenodd" d="M661.339 65.3972C661.339 59.7459 665.92 55.1646 671.571 55.1646C677.223 55.1646 681.804 59.7459 681.804 65.3972V66.7193C681.804 67.0154 681.791 67.3086 681.767 67.5983C686.013 68.8444 689.113 72.7692 689.113 77.4182V78.7403C689.113 84.3916 684.532 88.9729 678.88 88.9729C675.824 88.9729 673.081 87.6333 671.206 85.5092C669.331 87.6334 666.588 88.9731 663.532 88.9731C657.881 88.9731 653.299 84.3918 653.299 78.7404V77.4184C653.299 72.5116 656.753 68.4115 661.362 67.4163C661.347 67.1859 661.339 66.9535 661.339 66.7193V65.3972Z" fill="#66A865"/>
<path fill-rule="evenodd" clip-rule="evenodd" d="M646.711 69.7715C646.711 65.1345 650.47 61.3755 655.107 61.3755C659.744 61.3755 663.503 65.1345 663.503 69.7715V70.8563C663.503 71.0989 663.493 71.3392 663.472 71.5766C666.956 72.5992 669.5 75.8194 669.5 79.6338V80.7186C669.5 85.3556 665.741 89.1146 661.104 89.1146C658.596 89.1146 656.346 88.0155 654.807 86.2728C653.269 88.0156 651.018 89.1148 648.51 89.1148C643.873 89.1148 640.114 85.3558 640.114 80.7188V79.634C640.114 75.6079 642.948 72.2437 646.73 71.4272C646.717 71.2385 646.711 71.0482 646.711 70.8563V69.7715Z" fill="#66A865"/>
<path fill-rule="evenodd" clip-rule="evenodd" d="M673.696 61.6982C676.876 65.1571 676.721 70.6149 673.351 73.8885C669.981 77.162 664.671 77.0117 661.491 73.5528L661.061 73.0852C660.848 72.853 660.649 72.6117 660.466 72.3627C657.229 74.0719 653.161 73.4687 650.54 70.6177L650.11 70.1501C646.931 66.6912 647.085 61.2334 650.456 57.9599C652.278 56.1894 654.668 55.4205 656.982 55.6347C656.905 53.2482 657.787 50.8388 659.61 49.0683C662.98 45.7947 668.29 45.945 671.47 49.404L671.9 49.8715C674.664 52.8791 674.908 57.3978 672.71 60.6778C672.901 60.8516 673.087 61.0359 673.266 61.2306L673.696 61.6982Z" fill="#83C082"/>
<path fill-rule="evenodd" clip-rule="evenodd" d="M692 88.3291C690.515 90.5906 688.158 92.2284 685.408 92.7643C685.101 94.3168 684.428 95.8147 683.375 97.1165L682.869 97.742C679.902 101.41 674.896 102.315 670.927 100.172C670.766 100.412 670.592 100.647 670.407 100.876L669.901 101.501C666.488 105.721 660.377 106.283 656.251 102.757C653.843 100.7 652.643 97.7043 652.74 94.7278C651.265 95.5685 649.557 96.0488 647.737 96.0488C643.602 96.0488 640.047 93.5691 638.476 90.0156C637.408 91.6199 636.785 93.5468 636.785 95.6191V96.9267C636.785 102.516 641.316 107.047 646.905 107.047C648.27 107.047 649.573 106.776 650.761 106.286C649.576 110.047 650.657 114.346 653.808 117.04C657.934 120.566 664.046 120.003 667.459 115.783L667.965 115.158C668.15 114.929 668.324 114.694 668.486 114.454C672.454 116.597 677.461 115.693 680.429 112.024L680.935 111.399C682.683 109.237 683.384 106.535 683.098 103.939C688.521 103.683 692.84 99.2048 692.84 93.7179V92.3958C692.84 90.9507 692.54 89.5756 692 88.3291Z" fill="#7AB579"/>
<path d="M707.075 133.246H711.891L715.817 171.785H703.087L707.075 133.246Z" fill="#93642D"/>
<path d="M707.04 133.246H711.825L713.905 153.989H704.96L707.04 133.246Z" fill="#714D22"/>
<path fill-rule="evenodd" clip-rule="evenodd" d="M688.154 114.775C688.154 109.186 692.685 104.655 698.274 104.655C703.863 104.655 708.394 109.186 708.394 114.775V116.083C708.394 116.375 708.382 116.665 708.357 116.951C712.557 118.183 715.623 122.065 715.623 126.663V127.97C715.623 133.559 711.092 138.09 705.503 138.09C702.48 138.09 699.766 136.765 697.912 134.664C696.058 136.765 693.344 138.09 690.321 138.09C684.732 138.09 680.201 133.559 680.201 127.97V126.663C680.201 121.809 683.618 117.754 688.177 116.77C688.162 116.543 688.154 116.314 688.154 116.083V114.775Z" fill="#66A865"/>
<path fill-rule="evenodd" clip-rule="evenodd" d="M710.876 146.829C707.463 151.049 701.351 151.611 697.225 148.085C693.099 144.559 692.521 138.279 695.934 134.06L696.44 133.434C696.663 133.159 696.896 132.9 697.14 132.656C694.781 129.075 694.884 124.2 697.697 120.723L698.203 120.098C701.616 115.878 707.727 115.315 711.853 118.842C714.085 120.749 715.279 123.461 715.364 126.217C718.017 125.801 720.829 126.512 723.061 128.419C727.187 131.945 727.764 138.224 724.351 142.444L723.845 143.069C720.878 146.738 715.871 147.642 711.902 145.499C711.74 145.739 711.567 145.974 711.382 146.203L710.876 146.829Z" fill="#66A865"/>
<path fill-rule="evenodd" clip-rule="evenodd" d="M708.482 111.421C708.482 105.77 713.063 101.188 718.714 101.188C724.366 101.188 728.947 105.77 728.947 111.421V112.743C728.947 113.039 728.934 113.332 728.91 113.622C733.156 114.868 736.256 118.793 736.256 123.442V124.764C736.256 130.416 731.675 134.997 726.024 134.997C722.967 134.997 720.224 133.657 718.349 131.532C716.474 133.657 713.73 134.997 710.674 134.997C705.023 134.997 700.442 130.415 700.442 124.764V123.442C700.442 118.535 703.896 114.435 708.505 113.44C708.489 113.21 708.482 112.977 708.482 112.743V111.421Z" fill="#66A865"/>
<path fill-rule="evenodd" clip-rule="evenodd" d="M704.755 96.6369C704.755 90.9856 709.337 86.4043 714.988 86.4043C720.639 86.4043 725.221 90.9856 725.221 96.6369V97.959C725.221 98.2552 725.208 98.5484 725.183 98.8381C729.429 100.084 732.529 104.009 732.529 108.658V109.98C732.529 115.631 727.948 120.213 722.297 120.213C719.241 120.213 716.498 118.873 714.623 116.749C712.748 118.873 710.005 120.213 706.949 120.213C701.297 120.213 696.716 115.632 696.716 109.98V108.658C696.716 103.751 700.17 99.6512 704.779 98.656C704.763 98.4257 704.755 98.1933 704.755 97.959V96.6369Z" fill="#66A865"/>
<path fill-rule="evenodd" clip-rule="evenodd" d="M690.128 101.011C690.128 96.3743 693.887 92.6152 698.524 92.6152C703.161 92.6152 706.92 96.3743 706.92 101.011V102.096C706.92 102.339 706.909 102.579 706.889 102.817C710.373 103.839 712.916 107.06 712.916 110.874V111.959C712.916 116.596 709.157 120.355 704.52 120.355C702.013 120.355 699.762 119.256 698.224 117.513C696.685 119.256 694.434 120.355 691.927 120.355C687.29 120.355 683.531 116.596 683.531 111.959V110.874C683.531 106.848 686.365 103.484 690.147 102.667C690.134 102.478 690.128 102.288 690.128 102.096V101.011Z" fill="#66A865"/>
<path fill-rule="evenodd" clip-rule="evenodd" d="M717.113 92.9379C720.292 96.3969 720.138 101.855 716.768 105.128C713.397 108.402 708.087 108.251 704.908 104.793L704.478 104.325C704.264 104.093 704.066 103.852 703.883 103.603C700.646 105.312 696.579 104.708 693.958 101.857L693.528 101.39C690.349 97.9309 690.503 92.4732 693.873 89.1996C695.696 87.4295 698.085 86.6605 700.399 86.8744C700.321 84.4878 701.204 82.0785 703.026 80.308C706.397 77.0345 711.707 77.1847 714.886 80.6437L715.316 81.1113C718.081 84.1188 718.325 88.6375 716.126 91.9176C716.318 92.0913 716.504 92.2756 716.683 92.4704L717.113 92.9379Z" fill="#83C082"/>
<path fill-rule="evenodd" clip-rule="evenodd" d="M735.416 119.569C733.932 121.83 731.575 123.468 728.824 124.004C728.518 125.556 727.845 127.054 726.792 128.356L726.286 128.981C723.319 132.65 718.312 133.554 714.344 131.411C714.182 131.651 714.009 131.886 713.824 132.115L713.318 132.74C709.905 136.96 703.793 137.523 699.667 133.997C697.259 131.939 696.06 128.943 696.157 125.966C694.681 126.807 692.974 127.287 691.154 127.287C687.019 127.287 683.463 124.808 681.893 121.254C680.824 122.859 680.201 124.785 680.201 126.858V128.165C680.201 133.755 684.732 138.285 690.321 138.285C691.687 138.285 692.99 138.015 694.178 137.525C692.992 141.286 694.073 145.586 697.225 148.28C701.351 151.806 707.463 151.243 710.876 147.023L711.382 146.398C711.567 146.169 711.741 145.934 711.902 145.694C715.871 147.837 720.878 146.933 723.845 143.264L724.351 142.639C726.1 140.477 726.801 137.775 726.514 135.179C731.938 134.923 736.256 130.445 736.256 124.958V123.636C736.256 122.19 735.957 120.815 735.416 119.569Z" fill="#7AB579"/>
<path d="M754.833 155.56H759.649L763.575 194.099H750.846L754.833 155.56Z" fill="#93642D"/>
<path d="M754.799 155.56H759.584L761.664 176.303H752.718L754.799 155.56Z" fill="#714D22"/>
<path fill-rule="evenodd" clip-rule="evenodd" d="M735.913 137.089C735.913 131.5 740.444 126.969 746.033 126.969C751.622 126.969 756.153 131.5 756.153 137.089V138.397C756.153 138.69 756.141 138.98 756.116 139.266C760.315 140.499 763.381 144.38 763.381 148.978V150.286C763.381 155.875 758.85 160.406 753.261 160.406C750.238 160.406 747.525 159.081 745.671 156.98C743.816 159.081 741.103 160.406 738.081 160.406C732.492 160.406 727.961 155.875 727.961 150.286V148.978C727.961 144.125 731.377 140.07 735.936 139.086C735.92 138.858 735.913 138.628 735.913 138.397V137.089Z" fill="#66A865"/>
<path fill-rule="evenodd" clip-rule="evenodd" d="M758.635 169.142C755.222 173.362 749.11 173.924 744.984 170.398C740.858 166.872 740.281 160.593 743.694 156.373L744.2 155.747C744.422 155.472 744.656 155.213 744.9 154.969C742.541 151.388 742.644 146.513 745.456 143.036L745.962 142.41C749.375 138.191 755.487 137.628 759.613 141.154C761.844 143.061 763.038 145.774 763.124 148.53C765.776 148.114 768.587 148.825 770.819 150.732C774.945 154.258 775.522 160.537 772.109 164.757L771.603 165.383C768.636 169.051 763.63 169.955 759.661 167.813C759.5 168.053 759.326 168.288 759.141 168.516L758.635 169.142Z" fill="#66A865"/>
<path fill-rule="evenodd" clip-rule="evenodd" d="M756.24 133.734C756.24 128.082 760.822 123.501 766.473 123.501C772.124 123.501 776.706 128.082 776.706 133.734V135.056C776.706 135.352 776.693 135.645 776.668 135.934C780.915 137.18 784.016 141.105 784.016 145.755V147.077C784.016 152.728 779.434 157.309 773.783 157.309C770.727 157.309 767.983 155.969 766.108 153.845C764.233 155.969 761.49 157.309 758.434 157.309C752.782 157.309 748.201 152.728 748.201 147.077V145.755C748.201 140.848 751.655 136.748 756.264 135.753C756.248 135.522 756.24 135.29 756.24 135.056V133.734Z" fill="#66A865"/>
<path fill-rule="evenodd" clip-rule="evenodd" d="M752.514 118.951C752.514 113.3 757.096 108.718 762.747 108.718C768.398 108.718 772.979 113.3 772.979 118.951V120.273C772.979 120.569 772.967 120.862 772.942 121.152C777.188 122.398 780.289 126.323 780.289 130.972V132.294C780.289 137.945 775.708 142.527 770.056 142.527C767 142.527 764.256 141.187 762.381 139.062C760.506 141.186 757.763 142.526 754.707 142.526C749.055 142.526 744.474 137.945 744.474 132.294V130.972C744.474 126.065 747.928 121.964 752.538 120.969C752.522 120.739 752.514 120.507 752.514 120.273V118.951Z" fill="#66A865"/>
<path fill-rule="evenodd" clip-rule="evenodd" d="M737.886 123.325C737.886 118.688 741.645 114.929 746.282 114.929C750.919 114.929 754.678 118.688 754.678 123.325V124.41C754.678 124.653 754.668 124.893 754.648 125.131C758.132 126.153 760.676 129.374 760.676 133.188V134.273C760.676 138.91 756.917 142.669 752.28 142.669C749.772 142.669 747.521 141.57 745.983 139.827C744.444 141.57 742.193 142.67 739.685 142.67C735.048 142.67 731.289 138.91 731.289 134.274V133.189C731.289 129.162 734.123 125.798 737.906 124.982C737.893 124.793 737.886 124.602 737.886 124.41V123.325Z" fill="#66A865"/>
<path fill-rule="evenodd" clip-rule="evenodd" d="M764.871 115.251C768.05 118.71 767.896 124.168 764.526 127.441C761.155 130.715 755.845 130.565 752.666 127.106L752.236 126.638C752.022 126.406 751.824 126.165 751.641 125.916C748.404 127.625 744.337 127.021 741.716 124.171L741.286 123.703C738.107 120.244 738.261 114.786 741.631 111.513C743.454 109.742 745.844 108.973 748.158 109.188C748.081 106.801 748.963 104.392 750.786 102.622C754.156 99.3486 759.466 99.4989 762.646 102.958L763.075 103.425C765.84 106.433 766.084 110.952 763.885 114.232C764.077 114.405 764.262 114.589 764.441 114.784L764.871 115.251Z" fill="#83C082"/>
<path fill-rule="evenodd" clip-rule="evenodd" d="M783.175 141.881C781.691 144.143 779.334 145.781 776.584 146.317C776.277 147.869 775.604 149.367 774.551 150.669L774.045 151.294C771.078 154.963 766.072 155.867 762.103 153.724C761.942 153.965 761.768 154.199 761.583 154.428L761.078 155.054C757.664 159.273 751.553 159.836 747.427 156.31C745.019 154.252 743.819 151.257 743.916 148.281C742.441 149.121 740.733 149.602 738.913 149.602C734.778 149.602 731.222 147.122 729.652 143.568C728.584 145.172 727.961 147.099 727.961 149.171V150.479C727.961 156.068 732.492 160.599 738.081 160.599C739.447 160.599 740.749 160.328 741.938 159.838C740.751 163.599 741.833 167.899 744.984 170.592C749.11 174.118 755.222 173.556 758.635 169.336L759.141 168.711C759.326 168.482 759.5 168.247 759.661 168.007C763.63 170.15 768.636 169.245 771.603 165.577L772.109 164.951C773.858 162.79 774.559 160.088 774.272 157.492C779.696 157.237 784.016 152.758 784.016 147.271V145.949C784.016 144.503 783.716 143.128 783.175 141.881Z" fill="#7AB579"/>
<path d="M873.506 231.428H878.323L882.248 269.968H869.519L873.506 231.428Z" fill="#93642D"/>
<path d="M873.472 231.428H878.257L880.338 252.171H871.392L873.472 231.428Z" fill="#714D22"/>
<path fill-rule="evenodd" clip-rule="evenodd" d="M854.586 212.958C854.586 207.368 859.117 202.837 864.706 202.837C870.296 202.837 874.827 207.368 874.827 212.958V214.265C874.827 214.558 874.814 214.847 874.79 215.134C878.989 216.366 882.054 220.248 882.054 224.845V226.153C882.054 231.742 877.523 236.273 871.934 236.273C868.912 236.273 866.199 234.948 864.344 232.847C862.49 234.948 859.777 236.273 856.754 236.273C851.165 236.273 846.634 231.742 846.634 226.153V224.845C846.634 219.992 850.05 215.937 854.609 214.953C854.594 214.726 854.586 214.496 854.586 214.265V212.958Z" fill="#66A865"/>
<path fill-rule="evenodd" clip-rule="evenodd" d="M877.308 245.01C873.894 249.23 867.783 249.793 863.657 246.266C859.531 242.74 858.953 236.461 862.366 232.241L862.872 231.616C863.094 231.341 863.329 231.081 863.573 230.837C861.214 227.256 861.317 222.381 864.13 218.905L864.635 218.279C868.049 214.06 874.16 213.497 878.286 217.023C880.518 218.93 881.711 221.642 881.797 224.399C884.449 223.982 887.261 224.694 889.492 226.6C893.618 230.126 894.196 236.406 890.783 240.626L890.277 241.251C887.309 244.92 882.302 245.824 878.334 243.681C878.172 243.921 877.999 244.156 877.813 244.385L877.308 245.01Z" fill="#66A865"/>
<path fill-rule="evenodd" clip-rule="evenodd" d="M874.914 209.604C874.914 203.952 879.495 199.371 885.147 199.371C890.798 199.371 895.379 203.952 895.379 209.604V210.926C895.379 211.222 895.367 211.515 895.342 211.805C899.588 213.05 902.689 216.975 902.689 221.625V222.947C902.689 228.598 898.108 233.179 892.457 233.179C889.4 233.179 886.657 231.839 884.782 229.715C882.907 231.839 880.163 233.179 877.107 233.179C871.456 233.179 866.874 228.598 866.874 222.947V221.625C866.874 216.718 870.328 212.618 874.937 211.623C874.922 211.392 874.914 211.16 874.914 210.926V209.604Z" fill="#66A865"/>
<path fill-rule="evenodd" clip-rule="evenodd" d="M871.188 194.819C871.188 189.168 875.769 184.586 881.42 184.586C887.072 184.586 891.653 189.168 891.653 194.819V196.141C891.653 196.437 891.64 196.73 891.616 197.02C895.862 198.266 898.962 202.191 898.962 206.84V208.162C898.962 213.813 894.381 218.395 888.73 218.395C885.673 218.395 882.93 217.055 881.055 214.93C879.18 217.055 876.437 218.395 873.38 218.395C867.729 218.395 863.148 213.813 863.148 208.162V206.84C863.148 201.933 866.602 197.833 871.211 196.838C871.196 196.608 871.188 196.375 871.188 196.141V194.819Z" fill="#66A865"/>
<path fill-rule="evenodd" clip-rule="evenodd" d="M856.56 199.193C856.56 194.556 860.319 190.797 864.956 190.797C869.593 190.797 873.352 194.556 873.352 199.193V200.278C873.352 200.521 873.342 200.761 873.321 200.998C876.805 202.021 879.349 205.241 879.349 209.056V210.14C879.349 214.777 875.59 218.536 870.953 218.536C868.445 218.536 866.194 217.437 864.656 215.694C863.117 217.437 860.866 218.536 858.359 218.536C853.722 218.536 849.963 214.777 849.963 210.14V209.056C849.963 205.029 852.797 201.665 856.579 200.849C856.566 200.66 856.56 200.47 856.56 200.278V199.193Z" fill="#66A865"/>
<path fill-rule="evenodd" clip-rule="evenodd" d="M883.544 191.12C886.724 194.579 886.569 200.036 883.199 203.31C879.829 206.584 874.519 206.433 871.339 202.974L870.909 202.507C870.696 202.275 870.498 202.034 870.314 201.785C867.078 203.493 863.01 202.89 860.39 200.039L859.96 199.572C856.78 196.113 856.935 190.655 860.305 187.381C862.128 185.611 864.518 184.842 866.832 185.056C866.754 182.67 867.636 180.26 869.459 178.49C872.83 175.216 878.14 175.367 881.319 178.826L881.749 179.293C884.514 182.301 884.758 186.82 882.559 190.1C882.75 190.274 882.936 190.458 883.114 190.652L883.544 191.12Z" fill="#83C082"/>
<path fill-rule="evenodd" clip-rule="evenodd" d="M901.849 217.75C900.364 220.012 898.008 221.65 895.257 222.186C894.951 223.739 894.278 225.236 893.225 226.538L892.719 227.164C889.752 230.832 884.745 231.736 880.777 229.594C880.615 229.834 880.442 230.069 880.257 230.297L879.751 230.923C876.338 235.143 870.226 235.705 866.1 232.179C863.692 230.121 862.492 227.125 862.59 224.148C861.114 224.989 859.407 225.469 857.587 225.469C853.452 225.469 849.897 222.99 848.326 219.437C847.257 221.042 846.634 222.969 846.634 225.041V226.349C846.634 231.938 851.165 236.469 856.754 236.469C858.119 236.469 859.421 236.199 860.609 235.709C859.424 239.47 860.506 243.768 863.656 246.461C867.782 249.987 873.894 249.425 877.307 245.205L877.813 244.58C877.999 244.35 878.172 244.115 878.334 243.874C882.303 246.018 887.309 245.113 890.277 241.445L890.783 240.819C892.531 238.658 893.232 235.956 892.946 233.361C898.37 233.106 902.689 228.627 902.689 223.14V221.818C902.689 220.372 902.389 218.997 901.849 217.75Z" fill="#7AB579"/>
<path d="M921.266 255.229H926.082L930.008 293.768H917.278L921.266 255.229Z" fill="#93642D"/>
<path d="M921.231 255.229H926.016L928.097 275.972H919.151L921.231 255.229Z" fill="#714D22"/>
<path fill-rule="evenodd" clip-rule="evenodd" d="M902.345 236.758C902.345 231.169 906.876 226.638 912.465 226.638C918.054 226.638 922.585 231.169 922.585 236.758V238.065C922.585 238.358 922.573 238.648 922.549 238.934C926.748 240.166 929.814 244.048 929.814 248.646V249.953C929.814 255.542 925.283 260.073 919.694 260.073C916.671 260.073 913.958 258.748 912.104 256.647C910.249 258.748 907.536 260.073 904.514 260.073C898.925 260.073 894.394 255.542 894.394 249.953V248.646C894.394 243.793 897.809 239.737 902.368 238.753C902.353 238.526 902.345 238.297 902.345 238.065V236.758Z" fill="#66A865"/>
<path fill-rule="evenodd" clip-rule="evenodd" d="M925.067 268.811C921.654 273.031 915.542 273.593 911.416 270.067C907.29 266.541 906.712 260.262 910.125 256.042L910.631 255.417C910.854 255.142 911.087 254.882 911.331 254.639C908.972 251.058 909.075 246.182 911.888 242.706L912.393 242.08C915.807 237.86 921.918 237.298 926.044 240.824C928.276 242.731 929.47 245.443 929.555 248.2C932.207 247.783 935.02 248.494 937.252 250.401C941.378 253.927 941.955 260.207 938.542 264.426L938.036 265.052C935.069 268.72 930.062 269.625 926.093 267.481C925.931 267.722 925.758 267.957 925.573 268.186L925.067 268.811Z" fill="#66A865"/>
<path fill-rule="evenodd" clip-rule="evenodd" d="M922.673 233.404C922.673 227.753 927.254 223.171 932.905 223.171C938.557 223.171 943.138 227.753 943.138 233.404V234.726C943.138 235.022 943.125 235.316 943.101 235.606C947.347 236.851 950.447 240.776 950.447 245.426V246.748C950.447 252.399 945.866 256.98 940.215 256.98C937.158 256.98 934.415 255.64 932.54 253.516C930.665 255.64 927.922 256.98 924.865 256.98C919.214 256.98 914.633 252.399 914.633 246.747V245.425C914.633 240.518 918.087 236.418 922.696 235.423C922.681 235.193 922.673 234.96 922.673 234.726V233.404Z" fill="#66A865"/>
<path fill-rule="evenodd" clip-rule="evenodd" d="M918.947 218.62C918.947 212.969 923.528 208.387 929.179 208.387C934.83 208.387 939.412 212.969 939.412 218.62V219.942C939.412 220.238 939.399 220.531 939.375 220.821C943.62 222.067 946.72 225.992 946.72 230.641V231.963C946.72 237.614 942.139 242.196 936.488 242.196C933.432 242.196 930.689 240.856 928.814 238.732C926.939 240.856 924.196 242.196 921.14 242.196C915.488 242.196 910.907 237.614 910.907 231.963V230.641C910.907 225.734 914.361 221.634 918.97 220.639C918.954 220.409 918.947 220.176 918.947 219.942V218.62Z" fill="#66A865"/>
<path fill-rule="evenodd" clip-rule="evenodd" d="M904.319 222.994C904.319 218.357 908.078 214.598 912.715 214.598C917.352 214.598 921.111 218.357 921.111 222.994V224.079C921.111 224.322 921.1 224.562 921.08 224.799C924.564 225.822 927.107 229.042 927.107 232.856V233.941C927.107 238.578 923.348 242.337 918.711 242.337C916.204 242.337 913.953 241.238 912.415 239.495C910.876 241.238 908.626 242.337 906.118 242.337C901.481 242.337 897.722 238.578 897.722 233.941V232.857C897.722 228.831 900.556 225.466 904.338 224.65C904.325 224.461 904.319 224.271 904.319 224.079V222.994Z" fill="#66A865"/>
<path fill-rule="evenodd" clip-rule="evenodd" d="M931.303 214.919C934.483 218.378 934.329 223.836 930.958 227.109C927.588 230.383 922.278 230.233 919.098 226.774L918.669 226.306C918.455 226.074 918.257 225.833 918.073 225.584C914.837 227.293 910.77 226.689 908.149 223.839L907.719 223.371C904.539 219.912 904.694 214.454 908.064 211.181C909.887 209.41 912.277 208.641 914.591 208.856C914.514 206.469 915.396 204.06 917.218 202.29C920.589 199.017 925.899 199.167 929.079 202.626L929.508 203.093C932.273 206.101 932.517 210.62 930.318 213.9C930.51 214.073 930.695 214.257 930.874 214.452L931.303 214.919Z" fill="#83C082"/>
<path fill-rule="evenodd" clip-rule="evenodd" d="M949.608 241.553C948.123 243.814 945.766 245.451 943.015 245.987C942.709 247.539 942.036 249.037 940.983 250.339L940.477 250.964C937.51 254.633 932.503 255.537 928.535 253.394C928.373 253.635 928.2 253.869 928.015 254.098L927.509 254.724C924.096 258.944 917.984 259.506 913.858 255.98C911.45 253.922 910.25 250.926 910.348 247.949C908.872 248.79 907.165 249.27 905.345 249.27C901.21 249.27 897.655 246.791 896.084 243.238C895.016 244.842 894.394 246.768 894.394 248.84V250.148C894.394 255.737 898.925 260.268 904.514 260.268C905.879 260.268 907.181 259.998 908.369 259.508C907.183 263.269 908.264 267.569 911.416 270.262C915.542 273.788 921.654 273.226 925.067 269.006L925.573 268.38C925.758 268.151 925.931 267.916 926.093 267.676C930.062 269.819 935.069 268.915 938.036 265.246L938.542 264.621C940.291 262.459 940.992 259.757 940.705 257.161C946.129 256.905 950.447 252.427 950.447 246.94V245.618C950.447 244.174 950.148 242.799 949.608 241.553Z" fill="#7AB579"/>
<path d="M960.341 279.031H965.157L969.082 317.571H956.353L960.341 279.031Z" fill="#93642D"/>
<path d="M960.306 279.031H965.091L967.171 299.774H958.225L960.306 279.031Z" fill="#714D22"/>
<path fill-rule="evenodd" clip-rule="evenodd" d="M941.42 260.56C941.42 254.971 945.951 250.44 951.54 250.44C957.129 250.44 961.66 254.971 961.66 260.56V261.868C961.66 262.161 961.648 262.451 961.624 262.737C965.823 263.97 968.889 267.852 968.889 272.449V273.757C968.889 279.346 964.358 283.877 958.768 283.877C955.746 283.877 953.033 282.552 951.178 280.451C949.324 282.552 946.611 283.877 943.589 283.877C937.999 283.877 933.468 279.346 933.468 273.757V272.449C933.468 267.596 936.884 263.541 941.443 262.557C941.428 262.329 941.42 262.099 941.42 261.868V260.56Z" fill="#66A865"/>
<path fill-rule="evenodd" clip-rule="evenodd" d="M964.143 292.614C960.73 296.834 954.618 297.396 950.492 293.87C946.366 290.344 945.788 284.065 949.202 279.845L949.707 279.219C949.93 278.944 950.164 278.685 950.408 278.441C948.049 274.86 948.151 269.985 950.964 266.508L951.47 265.882C954.883 261.663 960.995 261.1 965.121 264.626C967.352 266.533 968.546 269.246 968.631 272.002C971.284 271.586 974.096 272.297 976.328 274.204C980.454 277.73 981.031 284.009 977.618 288.229L977.112 288.855C974.145 292.523 969.138 293.427 965.169 291.284C965.008 291.524 964.834 291.759 964.649 291.988L964.143 292.614Z" fill="#66A865"/>
<path fill-rule="evenodd" clip-rule="evenodd" d="M961.749 257.205C961.749 251.554 966.33 246.973 971.981 246.973C977.632 246.973 982.214 251.554 982.214 257.205V258.527C982.214 258.823 982.201 259.117 982.177 259.406C986.423 260.652 989.523 264.577 989.523 269.226V270.548C989.523 276.2 984.942 280.781 979.291 280.781C976.234 280.781 973.491 279.441 971.616 277.317C969.741 279.441 966.998 280.781 963.941 280.781C958.29 280.781 953.709 276.2 953.709 270.548V269.226C953.709 264.319 957.163 260.219 961.772 259.224C961.756 258.994 961.749 258.762 961.749 258.527V257.205Z" fill="#66A865"/>
<path fill-rule="evenodd" clip-rule="evenodd" d="M958.022 242.422C958.022 236.771 962.603 232.189 968.255 232.189C973.906 232.189 978.487 236.771 978.487 242.422V243.744C978.487 244.04 978.475 244.333 978.45 244.623C982.696 245.869 985.797 249.794 985.797 254.443V255.765C985.797 261.417 981.215 265.998 975.564 265.998C972.507 265.998 969.764 264.658 967.889 262.533C966.014 264.658 963.271 265.998 960.214 265.998C954.563 265.998 949.982 261.416 949.982 255.765V254.443C949.982 249.536 953.436 245.435 958.045 244.441C958.03 244.21 958.022 243.978 958.022 243.744V242.422Z" fill="#66A865"/>
<path fill-rule="evenodd" clip-rule="evenodd" d="M943.394 246.796C943.394 242.159 947.153 238.4 951.79 238.4C956.427 238.4 960.186 242.159 960.186 246.796V247.881C960.186 248.124 960.176 248.364 960.156 248.601C963.639 249.624 966.183 252.844 966.183 256.659V257.743C966.183 262.38 962.424 266.14 957.787 266.14C955.28 266.14 953.029 265.04 951.491 263.298C949.952 265.04 947.701 266.139 945.194 266.139C940.557 266.139 936.798 262.38 936.798 257.743V256.659C936.798 252.633 939.632 249.269 943.413 248.452C943.401 248.263 943.394 248.073 943.394 247.881V246.796Z" fill="#66A865"/>
<path fill-rule="evenodd" clip-rule="evenodd" d="M970.38 238.722C973.56 242.181 973.405 247.638 970.035 250.912C966.664 254.185 961.355 254.035 958.175 250.576L957.745 250.109C957.532 249.877 957.333 249.635 957.15 249.387C953.914 251.095 949.846 250.492 947.225 247.641L946.796 247.174C943.616 243.715 943.77 238.257 947.141 234.983C948.963 233.213 951.354 232.444 953.667 232.658C953.59 230.272 954.472 227.863 956.295 226.093C959.665 222.82 964.975 222.97 968.155 226.429L968.585 226.896C971.349 229.904 971.594 234.422 969.395 237.703C969.586 237.876 969.771 238.06 969.95 238.254L970.38 238.722Z" fill="#83C082"/>
<path fill-rule="evenodd" clip-rule="evenodd" d="M988.683 265.353C987.198 267.614 984.842 269.252 982.091 269.789C981.785 271.341 981.112 272.839 980.059 274.141L979.553 274.766C976.586 278.434 971.579 279.339 967.611 277.196C967.449 277.436 967.276 277.671 967.091 277.9L966.585 278.525C963.172 282.745 957.06 283.308 952.934 279.781C950.526 277.724 949.327 274.728 949.424 271.751C947.948 272.592 946.241 273.072 944.421 273.072C940.286 273.072 936.73 270.593 935.16 267.039C934.091 268.643 933.468 270.57 933.468 272.643V273.95C933.468 279.539 937.999 284.07 943.589 284.07C944.954 284.07 946.256 283.8 947.444 283.31C946.258 287.071 947.339 291.371 950.491 294.064C954.617 297.59 960.729 297.028 964.142 292.808L964.648 292.182C964.833 291.953 965.006 291.718 965.168 291.478C969.137 293.621 974.144 292.717 977.111 289.048L977.617 288.423C979.365 286.261 980.066 283.559 979.78 280.964C985.204 280.709 989.523 276.23 989.523 270.743V269.421C989.523 267.975 989.224 266.599 988.683 265.353Z" fill="#7AB579"/>
<path d="M524.722 154.072H529.538L533.464 192.611H520.734L524.722 154.072Z" fill="#93642D"/>
<path d="M524.688 154.072H529.473L531.554 174.815H522.608L524.688 154.072Z" fill="#714D22"/>
<path fill-rule="evenodd" clip-rule="evenodd" d="M505.802 135.601C505.802 130.012 510.333 125.481 515.922 125.481C521.511 125.481 526.042 130.012 526.042 135.601V136.909C526.042 137.202 526.03 137.492 526.005 137.779C530.205 139.011 533.271 142.893 533.271 147.491V148.798C533.271 154.388 528.74 158.919 523.151 158.919C520.128 158.919 517.415 157.593 515.56 155.492C513.706 157.593 510.992 158.918 507.97 158.918C502.38 158.918 497.849 154.387 497.849 148.798V147.491C497.849 142.637 501.266 138.582 505.825 137.598C505.81 137.37 505.802 137.14 505.802 136.909V135.601Z" fill="#66A865"/>
<path fill-rule="evenodd" clip-rule="evenodd" d="M528.524 167.654C525.111 171.874 518.999 172.437 514.873 168.91C510.747 165.384 510.169 159.105 513.583 154.885L514.088 154.26C514.311 153.985 514.545 153.725 514.789 153.481C512.431 149.9 512.534 145.025 515.346 141.549L515.852 140.923C519.265 136.704 525.377 136.141 529.503 139.667C531.734 141.574 532.928 144.286 533.014 147.043C535.666 146.626 538.477 147.338 540.709 149.244C544.835 152.771 545.412 159.05 541.999 163.27L541.493 163.895C538.526 167.564 533.519 168.468 529.55 166.325C529.389 166.565 529.215 166.8 529.03 167.029L528.524 167.654Z" fill="#66A865"/>
<path fill-rule="evenodd" clip-rule="evenodd" d="M526.13 132.246C526.13 126.594 530.711 122.013 536.362 122.013C542.014 122.013 546.595 126.594 546.595 132.246V133.568C546.595 133.864 546.582 134.157 546.558 134.447C550.804 135.693 553.904 139.618 553.904 144.267V145.589C553.904 151.24 549.323 155.822 543.672 155.822C540.615 155.822 537.872 154.482 535.997 152.357C534.122 154.481 531.379 155.821 528.322 155.821C522.671 155.821 518.09 151.24 518.09 145.589V144.267C518.09 139.36 521.544 135.26 526.153 134.264C526.137 134.034 526.13 133.802 526.13 133.568V132.246Z" fill="#66A865"/>
<path fill-rule="evenodd" clip-rule="evenodd" d="M522.403 117.463C522.403 111.811 526.985 107.23 532.636 107.23C538.287 107.23 542.869 111.811 542.869 117.463V118.785C542.869 119.081 542.856 119.374 542.831 119.664C547.077 120.91 550.178 124.835 550.178 129.484V130.806C550.178 136.457 545.596 141.038 539.945 141.038C536.889 141.038 534.146 139.699 532.271 137.575C530.396 139.699 527.653 141.038 524.597 141.038C518.945 141.038 514.364 136.457 514.364 130.806V129.484C514.364 124.577 517.818 120.477 522.427 119.482C522.411 119.251 522.403 119.019 522.403 118.785V117.463Z" fill="#66A865"/>
<path fill-rule="evenodd" clip-rule="evenodd" d="M507.776 121.837C507.776 117.2 511.535 113.441 516.172 113.441C520.809 113.441 524.568 117.2 524.568 121.837V122.922C524.568 123.165 524.557 123.406 524.537 123.644C528.021 124.666 530.564 127.887 530.564 131.701V132.786C530.564 137.423 526.805 141.182 522.168 141.182C519.661 141.182 517.41 140.083 515.872 138.34C514.333 140.083 512.083 141.182 509.575 141.182C504.938 141.182 501.179 137.423 501.179 132.786V131.701C501.179 127.675 504.013 124.311 507.795 123.494C507.782 123.305 507.776 123.115 507.776 122.922V121.837Z" fill="#66A865"/>
<path fill-rule="evenodd" clip-rule="evenodd" d="M534.761 113.764C537.94 117.223 537.786 122.681 534.416 125.954C531.045 129.228 525.735 129.077 522.556 125.618L522.126 125.151C521.912 124.919 521.714 124.678 521.531 124.429C518.295 126.137 514.227 125.534 511.606 122.683L511.176 122.216C507.997 118.757 508.151 113.299 511.522 110.026C513.344 108.255 515.734 107.486 518.048 107.7C517.971 105.314 518.853 102.905 520.676 101.135C524.046 97.8613 529.356 98.0116 532.536 101.471L532.966 101.938C535.73 104.946 535.974 109.464 533.775 112.745C533.967 112.918 534.152 113.102 534.331 113.296L534.761 113.764Z" fill="#83C082"/>
<path fill-rule="evenodd" clip-rule="evenodd" d="M553.065 140.396C551.58 142.657 549.223 144.295 546.472 144.831C546.166 146.384 545.493 147.881 544.44 149.183L543.934 149.808C540.967 153.477 535.961 154.381 531.992 152.238C531.83 152.479 531.657 152.713 531.472 152.942L530.966 153.568C527.553 157.787 521.441 158.35 517.315 154.824C514.907 152.766 513.708 149.77 513.805 146.793C512.329 147.634 510.622 148.114 508.802 148.114C504.667 148.114 501.111 145.634 499.541 142.08C498.472 143.684 497.849 145.611 497.849 147.683V148.991C497.849 154.58 502.38 159.111 507.97 159.111C509.335 159.111 510.638 158.841 511.826 158.35C510.64 162.112 511.721 166.412 514.873 169.105C518.999 172.631 525.111 172.069 528.524 167.849L529.03 167.224C529.215 166.994 529.389 166.759 529.551 166.519C533.519 168.662 538.526 167.757 541.493 164.089L541.999 163.463C543.747 161.302 544.449 158.6 544.162 156.005C549.586 155.749 553.904 151.271 553.904 145.784V144.462C553.904 143.017 553.605 141.642 553.065 140.396Z" fill="#458244"/>
<path d="M549.325 207.625H554.142L558.067 246.165H545.338L549.325 207.625Z" fill="#93642D"/>
<path d="M549.291 207.625H554.076L556.157 228.369H547.211L549.291 207.625Z" fill="#714D22"/>
<path fill-rule="evenodd" clip-rule="evenodd" d="M530.405 189.155C530.405 183.566 534.936 179.035 540.525 179.035C546.114 179.035 550.645 183.566 550.645 189.155V190.462C550.645 190.755 550.633 191.045 550.608 191.331C554.807 192.563 557.873 196.445 557.873 201.043V202.35C557.873 207.939 553.342 212.47 547.753 212.47C544.731 212.47 542.018 211.145 540.163 209.044C538.309 211.145 535.596 212.47 532.573 212.47C526.984 212.47 522.453 207.939 522.453 202.35V201.043C522.453 196.19 525.869 192.134 530.428 191.15C530.413 190.923 530.405 190.694 530.405 190.462V189.155Z" fill="#66A865"/>
<path fill-rule="evenodd" clip-rule="evenodd" d="M553.128 221.208C549.714 225.428 543.603 225.99 539.477 222.464C535.351 218.938 534.773 212.659 538.186 208.439L538.692 207.814C538.914 207.539 539.148 207.279 539.392 207.036C537.033 203.454 537.136 198.579 539.948 195.102L540.454 194.477C543.867 190.257 549.979 189.695 554.105 193.221C556.337 195.128 557.53 197.84 557.616 200.597C560.268 200.18 563.08 200.892 565.311 202.798C569.437 206.324 570.015 212.604 566.601 216.824L566.096 217.449C563.128 221.117 558.122 222.022 554.154 219.879C553.992 220.119 553.819 220.354 553.634 220.583L553.128 221.208Z" fill="#66A865"/>
<path fill-rule="evenodd" clip-rule="evenodd" d="M550.733 185.801C550.733 180.15 555.314 175.568 560.965 175.568C566.617 175.568 571.198 180.15 571.198 185.801V187.123C571.198 187.419 571.185 187.712 571.161 188.002C575.407 189.247 578.508 193.173 578.508 197.822V199.144C578.508 204.795 573.927 209.377 568.276 209.377C565.219 209.377 562.476 208.037 560.601 205.912C558.726 208.037 555.982 209.377 552.926 209.377C547.275 209.377 542.693 204.795 542.693 199.144V197.822C542.693 192.915 546.147 188.815 550.756 187.82C550.741 187.59 550.733 187.357 550.733 187.123V185.801Z" fill="#66A865"/>
<path fill-rule="evenodd" clip-rule="evenodd" d="M547.006 171.017C547.006 165.365 551.588 160.784 557.239 160.784C562.89 160.784 567.472 165.365 567.472 171.017V172.339C567.472 172.635 567.459 172.928 567.434 173.218C571.681 174.464 574.781 178.389 574.781 183.038V184.36C574.781 190.012 570.2 194.593 564.549 194.593C561.492 194.593 558.749 193.253 556.874 191.128C554.999 193.253 552.255 194.593 549.199 194.593C543.548 194.593 538.966 190.011 538.966 184.36V183.038C538.966 178.131 542.42 174.031 547.03 173.036C547.014 172.806 547.006 172.573 547.006 172.339V171.017Z" fill="#66A865"/>
<path fill-rule="evenodd" clip-rule="evenodd" d="M532.379 175.391C532.379 170.754 536.138 166.995 540.775 166.995C545.412 166.995 549.171 170.754 549.171 175.391V176.476C549.171 176.719 549.16 176.959 549.14 177.197C552.623 178.22 555.167 181.44 555.167 185.254V186.339C555.167 190.976 551.408 194.735 546.771 194.735C544.263 194.735 542.012 193.636 540.474 191.893C538.936 193.635 536.685 194.735 534.178 194.735C529.541 194.735 525.782 190.976 525.782 186.339V185.254C525.782 181.227 528.616 177.863 532.398 177.047C532.385 176.858 532.379 176.668 532.379 176.476V175.391Z" fill="#66A865"/>
<path fill-rule="evenodd" clip-rule="evenodd" d="M559.363 167.316C562.543 170.775 562.388 176.233 559.018 179.506C555.648 182.78 550.338 182.63 547.158 179.171L546.728 178.703C546.515 178.471 546.316 178.23 546.133 177.981C542.897 179.69 538.829 179.086 536.209 176.236L535.779 175.768C532.599 172.309 532.753 166.851 536.124 163.578C537.947 161.807 540.337 161.038 542.65 161.253C542.573 158.866 543.455 156.457 545.278 154.687C548.648 151.414 553.958 151.564 557.138 155.023L557.568 155.49C560.333 158.498 560.577 163.017 558.378 166.297C558.569 166.47 558.754 166.654 558.933 166.849L559.363 167.316Z" fill="#83C082"/>
<path fill-rule="evenodd" clip-rule="evenodd" d="M577.668 193.947C576.183 196.209 573.826 197.847 571.075 198.383C570.768 199.936 570.095 201.433 569.042 202.735L568.537 203.36C565.569 207.029 560.563 207.933 556.595 205.79C556.433 206.031 556.26 206.265 556.074 206.494L555.569 207.12C552.155 211.34 546.044 211.902 541.918 208.376C539.51 206.318 538.31 203.323 538.407 200.347C536.932 201.187 535.224 201.668 533.404 201.668C529.27 201.668 525.714 199.188 524.144 195.635C523.076 197.239 522.453 199.165 522.453 201.237V202.544C522.453 208.134 526.984 212.665 532.573 212.665C533.939 212.665 535.241 212.394 536.43 211.904C535.244 215.665 536.325 219.965 539.477 222.658C543.603 226.184 549.715 225.622 553.128 221.402L553.634 220.776C553.819 220.548 553.992 220.313 554.154 220.073C558.122 222.215 563.129 221.311 566.096 217.643L566.602 217.017C568.35 214.856 569.051 212.153 568.765 209.558C574.189 209.303 578.508 204.824 578.508 199.337V198.015C578.508 196.569 578.208 195.194 577.668 193.947Z" fill="#458244"/>
<path d="M472.621 201.676H477.438L481.363 240.215H468.634L472.621 201.676Z" fill="#93642D"/>
<path d="M472.587 201.676H477.372L479.453 222.419H470.507L472.587 201.676Z" fill="#714D22"/>
<path fill-rule="evenodd" clip-rule="evenodd" d="M453.701 183.206C453.701 177.617 458.232 173.086 463.821 173.086C469.411 173.086 473.942 177.617 473.942 183.206V184.514C473.942 184.806 473.929 185.096 473.905 185.382C478.104 186.614 481.17 190.496 481.17 195.094V196.401C481.17 201.991 476.639 206.522 471.05 206.522C468.027 206.522 465.314 205.196 463.46 203.095C461.605 205.196 458.892 206.522 455.869 206.522C450.28 206.522 445.749 201.991 445.749 196.402V195.094C445.749 190.241 449.165 186.185 453.724 185.202C453.709 184.974 453.701 184.745 453.701 184.514V183.206Z" fill="#66A865"/>
<path fill-rule="evenodd" clip-rule="evenodd" d="M476.423 215.258C473.01 219.478 466.898 220.04 462.772 216.514C458.647 212.988 458.069 206.709 461.482 202.489L461.988 201.863C462.21 201.588 462.444 201.328 462.689 201.085C460.33 197.503 460.433 192.629 463.245 189.152L463.751 188.527C467.165 184.307 473.276 183.745 477.402 187.271C479.633 189.177 480.827 191.889 480.913 194.645C483.565 194.229 486.377 194.94 488.608 196.847C492.734 200.373 493.312 206.652 489.899 210.872L489.393 211.498C486.425 215.166 481.419 216.07 477.45 213.927C477.288 214.168 477.115 214.403 476.929 214.632L476.423 215.258Z" fill="#66A865"/>
<path fill-rule="evenodd" clip-rule="evenodd" d="M474.029 179.851C474.029 174.2 478.61 169.619 484.262 169.619C489.913 169.619 494.494 174.2 494.494 179.851V181.173C494.494 181.469 494.482 181.762 494.457 182.051C498.703 183.297 501.804 187.222 501.804 191.871V193.193C501.804 198.845 497.223 203.426 491.571 203.426C488.515 203.426 485.771 202.086 483.896 199.961C482.021 202.086 479.278 203.426 476.222 203.426C470.571 203.426 465.989 198.844 465.989 193.193V191.871C465.989 186.964 469.443 182.864 474.052 181.869C474.037 181.639 474.029 181.407 474.029 181.173V179.851Z" fill="#66A865"/>
<path fill-rule="evenodd" clip-rule="evenodd" d="M470.303 165.067C470.303 159.416 474.884 154.834 480.535 154.834C486.187 154.834 490.768 159.416 490.768 165.067V166.389C490.768 166.685 490.755 166.978 490.731 167.268C494.977 168.514 498.077 172.439 498.077 177.088V178.41C498.077 184.062 493.496 188.643 487.844 188.643C484.788 188.643 482.045 187.303 480.17 185.179C478.295 187.303 475.552 188.643 472.496 188.643C466.845 188.643 462.264 184.062 462.264 178.41V177.088C462.264 172.181 465.717 168.081 470.326 167.086C470.311 166.856 470.303 166.623 470.303 166.389V165.067Z" fill="#66A865"/>
<path fill-rule="evenodd" clip-rule="evenodd" d="M455.675 169.441C455.675 164.804 459.434 161.045 464.071 161.045C468.708 161.045 472.467 164.804 472.467 169.441V170.526C472.467 170.768 472.457 171.009 472.437 171.246C475.92 172.269 478.464 175.489 478.464 179.303V180.388C478.464 185.025 474.705 188.784 470.068 188.784C467.56 188.784 465.31 187.685 463.771 185.942C462.233 187.685 459.982 188.784 457.475 188.784C452.838 188.784 449.079 185.025 449.079 180.388V179.303C449.079 175.277 451.912 171.913 455.694 171.097C455.681 170.908 455.675 170.718 455.675 170.526V169.441Z" fill="#66A865"/>
<path fill-rule="evenodd" clip-rule="evenodd" d="M482.66 161.368C485.84 164.827 485.686 170.284 482.315 173.558C478.945 176.831 473.635 176.681 470.455 173.222L470.025 172.755C469.812 172.523 469.614 172.281 469.43 172.033C466.194 173.741 462.127 173.138 459.506 170.287L459.076 169.82C455.896 166.361 456.051 160.903 459.421 157.629C461.244 155.859 463.634 155.09 465.948 155.304C465.871 152.918 466.753 150.509 468.575 148.739C471.946 145.466 477.256 145.616 480.435 149.075L480.865 149.542C483.63 152.55 483.874 157.068 481.675 160.349C481.867 160.522 482.052 160.706 482.231 160.9L482.66 161.368Z" fill="#83C082"/>
<path fill-rule="evenodd" clip-rule="evenodd" d="M500.963 187.999C499.479 190.26 497.122 191.898 494.372 192.434C494.066 193.987 493.392 195.485 492.34 196.786L491.834 197.412C488.866 201.08 483.86 201.985 479.892 199.842C479.73 200.082 479.557 200.317 479.372 200.546L478.866 201.171C475.452 205.391 469.341 205.953 465.215 202.427C462.807 200.37 461.608 197.374 461.704 194.398C460.229 195.239 458.521 195.719 456.702 195.719C452.567 195.719 449.011 193.239 447.44 189.686C446.372 191.29 445.749 193.217 445.749 195.289V196.596C445.749 202.186 450.28 206.717 455.869 206.717C457.235 206.717 458.537 206.446 459.726 205.956C458.54 209.717 459.621 214.017 462.772 216.71C466.898 220.236 473.01 219.674 476.423 215.454L476.929 214.828C477.115 214.599 477.288 214.364 477.45 214.123C481.419 216.266 486.425 215.362 489.393 211.693L489.899 211.068C491.647 208.907 492.348 206.205 492.062 203.61C497.485 203.354 501.804 198.876 501.804 193.389V192.067C501.804 190.621 501.504 189.245 500.963 187.999Z" fill="#458244"/>
<ellipse cx="513.108" cy="295.512" rx="91.9613" ry="58.5369" fill="#858C90"/>
<g filter="url(#filter1_d_693_11102)">
<ellipse cx="513.107" cy="295.512" rx="85.2118" ry="54.2008" fill="#656661"/>
</g>
<g filter="url(#filter2_d_693_11102)">
<ellipse cx="513.107" cy="291.176" rx="78.4624" ry="49.8647" fill="#B3B4A5"/>
</g>
<g filter="url(#filter3_d_693_11102)">
<path d="M443.926 262.125L513.108 303.751L583.134 266.461L513.108 228.304L443.926 262.125Z" fill="#D9D9D9"/>
<path d="M443.926 262.125V282.071L513.108 327.166V303.751L443.926 262.125Z" fill="#868D9A"/>
<path d="M513.108 303.751V327.166L583.134 285.973V266.461L513.108 303.751Z" fill="#C2C3BD"/>
</g>
<g filter="url(#filter4_i_693_11102)">
<path d="M462.486 266.537L513.704 298.805V279.47V253.133C505.177 250.859 498.344 248.289 492.621 244.348C482.622 237.461 476.008 226.387 469.658 205.385L462.486 266.537Z" fill="#986F3E"/>
<path d="M508.66 188.777C493.457 203.253 490.075 212.78 508.66 236.525C523.008 244.023 521.777 254.018 520.138 267.32C519.736 270.577 519.311 274.033 519.083 277.699L548.335 261.091C552.561 240.827 554.284 229.919 539.929 222.685C539.75 220.053 539.508 217.656 539.168 215.405C529.295 208.608 514.629 196.621 506.532 180.038L507.781 185.919C508.089 186.991 508.39 187.962 508.66 188.777Z" fill="#DBAC74"/>
<path d="M520.318 185.919C521.775 187.995 523.814 189.033 520.318 176.578C516.821 164.122 511.015 160.777 508.55 160.662C506.084 160.777 500.682 161.976 498.799 165.852C497.219 169.104 506.173 180.318 507.781 185.919L506.532 180.038C514.629 196.621 529.295 208.608 539.168 215.405C537.761 206.11 527.51 196.458 520.318 185.919Z" fill="#C9A170"/>
<path d="M513.704 298.805L560.775 273.833V256.922L548.335 261.091L519.083 277.699L513.704 279.47V298.805Z" fill="#AB9A8B"/>
<path fill-rule="evenodd" clip-rule="evenodd" d="M469.658 205.385C476.008 226.387 482.622 237.461 492.621 244.348C484.823 224.984 483.68 214.182 489.906 195.047L469.658 205.385ZM560.775 226.491V256.922L548.335 261.091C552.561 240.827 554.284 229.919 539.929 222.685C539.75 220.053 539.508 217.656 539.168 215.405C545.24 219.586 552.211 222.884 560.775 226.491Z" fill="#714D22"/>
<path d="M508.66 236.525C490.075 212.78 493.457 203.253 508.66 188.777C508.39 187.962 508.089 186.991 507.781 185.919L489.906 195.047C483.68 214.182 484.823 224.984 492.621 244.348C498.344 248.289 505.177 250.859 513.704 253.133V279.47L519.083 277.699C519.311 274.033 519.736 270.577 520.138 267.32C521.777 254.018 523.008 244.023 508.66 236.525Z" fill="#5F4E36"/>
</g>
</g>
<defs>
<filter id="filter0_d_693_11102" x="143.618" y="354.05" width="848.845" height="373.951" filterUnits="userSpaceOnUse" color-interpolation-filters="sRGB">
<feFlood flood-opacity="0" result="BackgroundImageFix"/>
<feColorMatrix in="SourceAlpha" type="matrix" values="0 0 0 0 0 0 0 0 0 0 0 0 0 0 0 0 0 0 127 0" result="hardAlpha"/>
<feOffset dy="4"/>
<feGaussianBlur stdDeviation="2"/>
<feComposite in2="hardAlpha" operator="out"/>
<feColorMatrix type="matrix" values="0 0 0 0 0 0 0 0 0 0 0 0 0 0 0 0 0 0 0.25 0"/>
<feBlend mode="normal" in2="BackgroundImageFix" result="effect1_dropShadow_693_11102"/>
<feBlend mode="normal" in="SourceGraphic" in2="effect1_dropShadow_693_11102" result="shape"/>
</filter>
<filter id="filter1_d_693_11102" x="427.895" y="241.312" width="170.424" height="109.401" filterUnits="userSpaceOnUse" color-interpolation-filters="sRGB">
<feFlood flood-opacity="0" result="BackgroundImageFix"/>
<feColorMatrix in="SourceAlpha" type="matrix" values="0 0 0 0 0 0 0 0 0 0 0 0 0 0 0 0 0 0 127 0" result="hardAlpha"/>
<feOffset dy="1"/>
<feComposite in2="hardAlpha" operator="out"/>
<feColorMatrix type="matrix" values="0 0 0 0 0 0 0 0 0 0 0 0 0 0 0 0 0 0 0.47 0"/>
<feBlend mode="normal" in2="BackgroundImageFix" result="effect1_dropShadow_693_11102"/>
<feBlend mode="normal" in="SourceGraphic" in2="effect1_dropShadow_693_11102" result="shape"/>
</filter>
<filter id="filter2_d_693_11102" x="434.644" y="241.312" width="156.925" height="100.729" filterUnits="userSpaceOnUse" color-interpolation-filters="sRGB">
<feFlood flood-opacity="0" result="BackgroundImageFix"/>
<feColorMatrix in="SourceAlpha" type="matrix" values="0 0 0 0 0 0 0 0 0 0 0 0 0 0 0 0 0 0 127 0" result="hardAlpha"/>
<feOffset dy="1"/>
<feComposite in2="hardAlpha" operator="out"/>
<feColorMatrix type="matrix" values="0 0 0 0 0 0 0 0 0 0 0 0 0 0 0 0 0 0 0.47 0"/>
<feBlend mode="normal" in2="BackgroundImageFix" result="effect1_dropShadow_693_11102"/>
<feBlend mode="normal" in="SourceGraphic" in2="effect1_dropShadow_693_11102" result="shape"/>
</filter>
<filter id="filter3_d_693_11102" x="433.926" y="222.304" width="149.207" height="106.862" filterUnits="userSpaceOnUse" color-interpolation-filters="sRGB">
<feFlood flood-opacity="0" result="BackgroundImageFix"/>
<feColorMatrix in="SourceAlpha" type="matrix" values="0 0 0 0 0 0 0 0 0 0 0 0 0 0 0 0 0 0 127 0" result="hardAlpha"/>
<feOffset dx="-6" dy="-2"/>
<feGaussianBlur stdDeviation="2"/>
<feComposite in2="hardAlpha" operator="out"/>
<feColorMatrix type="matrix" values="0 0 0 0 0 0 0 0 0 0 0 0 0 0 0 0 0 0 0.25 0"/>
<feBlend mode="normal" in2="BackgroundImageFix" result="effect1_dropShadow_693_11102"/>
<feBlend mode="normal" in="SourceGraphic" in2="effect1_dropShadow_693_11102" result="shape"/>
</filter>
<filter id="filter4_i_693_11102" x="455.986" y="160.662" width="104.789" height="144.643" filterUnits="userSpaceOnUse" color-interpolation-filters="sRGB">
<feFlood flood-opacity="0" result="BackgroundImageFix"/>
<feBlend mode="normal" in="SourceGraphic" in2="BackgroundImageFix" result="shape"/>
<feColorMatrix in="SourceAlpha" type="matrix" values="0 0 0 0 0 0 0 0 0 0 0 0 0 0 0 0 0 0 127 0" result="hardAlpha"/>
<feOffset dx="-22" dy="19"/>
<feGaussianBlur stdDeviation="3.25"/>
<feComposite in2="hardAlpha" operator="arithmetic" k2="-1" k3="1"/>
<feColorMatrix type="matrix" values="0 0 0 0 0 0 0 0 0 0 0 0 0 0 0 0 0 0 0.25 0"/>
<feBlend mode="normal" in2="shape" result="effect1_innerShadow_693_11102"/>
</filter>
<clipPath id="clip0_693_11102">
<rect width="1080" height="720" fill="white"/>
</clipPath>
</defs>
</svg>
